SplineFontDB: 3.2
FontName: hin54mb1
FullName: hin54mb1
FamilyName: hin54mb1
Weight: Book
Copyright: Copyright 2022 The Noto Project Authors (https://github.com/notofonts/devanagari)
Version: 2.003
ItalicAngle: 0
UnderlinePosition: -125
UnderlineWidth: 50
Ascent: 800
Descent: 200
InvalidEm: 0
sfntRevision: 0x000200c5
LayerCount: 2
Layer: 0 1 "Back" 1
Layer: 1 1 "Fore" 0
XUID: [1021 467 -1121320856 6788634]
StyleMap: 0x0040
FSType: 0
OS2Version: 4
OS2_WeightWidthSlopeOnly: 0
OS2_UseTypoMetrics: 1
CreationTime: 1432194851
ModificationTime: 1679897285
PfmFamily: 81
TTFWeight: 400
TTFWidth: 5
LineGap: 0
VLineGap: 0
Panose: 0 0 0 0 0 0 0 0 0 0
OS2TypoAscent: 896
OS2TypoAOffset: 0
OS2TypoDescent: -408
OS2TypoDOffset: 0
OS2TypoLinegap: 0
OS2WinAscent: 896
OS2WinAOffset: 0
OS2WinDescent: 408
OS2WinDOffset: 0
HheadAscent: 896
HheadAOffset: 0
HheadDescent: -408
HheadDOffset: 0
OS2SubXSize: 650
OS2SubYSize: 600
OS2SubXOff: 0
OS2SubYOff: 75
OS2SupXSize: 650
OS2SupYSize: 600
OS2SupXOff: 0
OS2SupYOff: 350
OS2StrikeYSize: 50
OS2StrikeYPos: 322
OS2CapHeight: 622
OS2XHeight: 536
OS2Vendor: 'GOOG'
OS2CodePages: 00000093.00000000
OS2UnicodeRanges: 80008023.00002046.00000000.00000000
Lookup: 258 0 0 "'kern' Horizontal Kerning in Latin lookup 0" { "'kern' Horizontal Kerning in Latin lookup 0 subtable"  } ['kern' ('DFLT' <'dflt' > 'latn' <'dflt' > ) ]
Lookup: 258 0 0 "'kern' Horizontal Kerning in Latin lookup 1" { "'kern' Horizontal Kerning in Latin lookup 1 subtable"  } ['kern' ('DFLT' <'dflt' > 'latn' <'dflt' > ) ]
MarkAttachClasses: 1
DEI: 91125
KernClass2: 24 20 "'kern' Horizontal Kerning in Latin lookup 1 subtable"
 57 b e o p ae egrave eacute ecircumflex edieresis eth ograve
 56 a h m n agrave aacute acircumflex atilde adieresis aring
 59 D O Q Eth Ograve Oacute Ocircumflex Otilde Odieresis Oslash
 5 v w y
 50 A Agrave Aacute Acircumflex Atilde Adieresis Aring
 37 U Ugrave Uacute Ucircumflex Udieresis
 3 V W
 10 C Ccedilla
 1 L
 8 Y Yacute
 1 Z
 1 r
 3 K X
 1 T

StartChar: exclam.deva
Encoding: 33 33 33
Width: 771
Flags: W
LayerCount: 2
Fore
SplineSet
336 202 m 1,0,-1
 316 714 l 1,1,-1
 456 714 l 1,2,-1
 435 202 l 1,3,-1
 336 202 l 1,0,-1
385 -10 m 0,4,5
 352 -10 352 -10 329 6 c 128,-1,6
 306 22 306 22 306 58 c 0,7,8
 306 96 306 96 329 111 c 128,-1,9
 352 126 352 126 385 126 c 0,10,11
 419 126 419 126 442 111 c 128,-1,12
 465 96 465 96 465 58 c 0,13,14
 465 22 465 22 442 6 c 128,-1,15
 419 -10 419 -10 385 -10 c 0,4,5
EndSplineSet
EndChar

StartChar: quotedbl.deva
Encoding: 34 34 34
Width: 771
Flags: W
LayerCount: 2
Fore
SplineSet
469 456 m 1,0,-1
 443 714 l 1,1,-1
 565 714 l 1,2,-1
 539 456 l 1,3,-1
 469 456 l 1,0,-1
231 456 m 1,4,-1
 205 714 l 1,5,-1
 327 714 l 1,6,-1
 302 456 l 1,7,-1
 231 456 l 1,4,-1
EndSplineSet
EndChar

StartChar: numbersign.deva
Encoding: 35 35 35
Width: 771
Flags: W
LayerCount: 2
Fore
SplineSet
130 0 m 1,0,-1
 178 209 l 1,1,-1
 25 209 l 1,2,-1
 25 276 l 1,3,-1
 195 276 l 1,4,-1
 236 436 l 1,5,-1
 73 436 l 1,6,-1
 73 502 l 1,7,-1
 252 502 l 1,8,-1
 303 714 l 1,9,-1
 396 714 l 1,10,-1
 344 502 l 1,11,-1
 503 502 l 1,12,-1
 555 714 l 1,13,-1
 644 714 l 1,14,-1
 592 502 l 1,15,-1
 745 502 l 1,16,-1
 745 436 l 1,17,-1
 575 436 l 1,18,-1
 536 276 l 1,19,-1
 701 276 l 1,20,-1
 701 209 l 1,21,-1
 519 209 l 1,22,-1
 466 0 l 1,23,-1
 375 0 l 1,24,-1
 428 209 l 1,25,-1
 270 209 l 1,26,-1
 219 0 l 1,27,-1
 130 0 l 1,0,-1
286 276 m 1,28,-1
 444 276 l 1,29,-1
 484 436 l 1,30,-1
 326 436 l 1,31,-1
 286 276 l 1,28,-1
EndSplineSet
EndChar

StartChar: dollar
Encoding: 36 36 36
Width: 771
Flags: W
LayerCount: 2
Fore
SplineSet
338 34 m 1,0,1
 273 35 273 35 215 43.5 c 128,-1,2
 157 52 157 52 115 67 c 1,3,-1
 115 152 l 1,4,5
 159 136 159 136 219 124 c 128,-1,6
 279 112 279 112 338 111 c 1,7,-1
 338 328 l 1,8,9
 261 348 261 348 208 371.5 c 128,-1,10
 155 395 155 395 129 429.5 c 128,-1,11
 103 464 103 464 103 515 c 0,12,13
 103 565 103 565 131.5 602 c 128,-1,14
 160 639 160 639 213 660.5 c 128,-1,15
 266 682 266 682 338 686 c 1,16,-1
 338 759 l 1,17,-1
 420 759 l 1,18,-1
 420 687 l 1,19,20
 484 686 484 686 535.5 675.5 c 128,-1,21
 587 665 587 665 633 650 c 1,22,-1
 599 576 l 1,23,24
 557 589 557 589 512 598.5 c 128,-1,25
 467 608 467 608 420 611 c 1,26,-1
 420 395 l 1,27,28
 502 376 502 376 557.5 354.5 c 128,-1,29
 613 333 613 333 640.5 299.5 c 128,-1,30
 668 266 668 266 668 212 c 0,31,32
 668 142 668 142 603 95.5 c 128,-1,33
 538 49 538 49 420 38 c 1,34,-1
 420 -58 l 1,35,-1
 338 -58 l 1,36,-1
 338 34 l 1,0,1
420 116 m 1,37,38
 492 123 492 123 524.5 148.5 c 128,-1,39
 557 174 557 174 557 214 c 0,40,41
 557 239 557 239 545 255.5 c 128,-1,42
 533 272 533 272 503.5 284 c 128,-1,43
 474 296 474 296 420 307 c 1,44,-1
 420 116 l 1,37,38
338 609 m 1,45,46
 295 606 295 606 267.5 593.5 c 128,-1,47
 240 581 240 581 226.5 561 c 128,-1,48
 213 541 213 541 213 515 c 0,49,50
 213 490 213 490 224.5 471.5 c 128,-1,51
 236 453 236 453 263 440 c 128,-1,52
 290 427 290 427 338 417 c 1,53,-1
 338 609 l 1,45,46
EndSplineSet
EndChar

StartChar: percent.deva
Encoding: 37 37 37
Width: 771
Flags: W
LayerCount: 2
Fore
SplineSet
140 9 m 1,0,-1
 543 687 l 1,1,-1
 630 687 l 1,2,-1
 227 9 l 1,3,-1
 140 9 l 1,0,-1
562 0 m 0,4,5
 493 0 493 0 447 42.5 c 128,-1,6
 401 85 401 85 401 162 c 256,7,8
 401 239 401 239 444.5 280.5 c 128,-1,9
 488 322 488 322 564 322 c 0,10,11
 633 322 633 322 679 280.5 c 128,-1,12
 725 239 725 239 725 162 c 256,13,14
 725 85 725 85 681 42.5 c 128,-1,15
 637 0 637 0 562 0 c 0,4,5
563 55 m 0,16,17
 602 55 602 55 621 81 c 128,-1,18
 640 107 640 107 640 162 c 0,19,20
 640 218 640 218 621 242 c 128,-1,21
 602 266 602 266 563 266 c 0,22,23
 525 266 525 266 505 242 c 128,-1,24
 485 218 485 218 485 162 c 0,25,26
 485 107 485 107 505 81 c 128,-1,27
 525 55 525 55 563 55 c 0,16,17
207 373 m 0,28,29
 138 373 138 373 92 415 c 128,-1,30
 46 457 46 457 46 534 c 256,31,32
 46 611 46 611 89.5 653 c 128,-1,33
 133 695 133 695 209 695 c 0,34,35
 278 695 278 695 324 653 c 128,-1,36
 370 611 370 611 370 534 c 256,37,38
 370 457 370 457 326 415 c 128,-1,39
 282 373 282 373 207 373 c 0,28,29
208 428 m 256,40,41
 246 428 246 428 265.5 453.5 c 128,-1,42
 285 479 285 479 285 534 c 0,43,44
 285 590 285 590 265.5 614.5 c 128,-1,45
 246 639 246 639 208 639 c 256,46,47
 170 639 170 639 150 614.5 c 128,-1,48
 130 590 130 590 130 534 c 0,49,50
 130 479 130 479 150 453.5 c 128,-1,51
 170 428 170 428 208 428 c 256,40,41
EndSplineSet
EndChar

StartChar: ampersand
Encoding: 38 38 38
Width: 771
Flags: W
LayerCount: 2
Fore
SplineSet
285 -10 m 0,0,1
 209 -10 209 -10 155.5 14 c 128,-1,2
 102 38 102 38 74.5 80.5 c 128,-1,3
 47 123 47 123 47 176 c 0,4,5
 47 233 47 233 76 275.5 c 128,-1,6
 105 318 105 318 151 351.5 c 128,-1,7
 197 385 197 385 250 414 c 0,8,9
 280 430 280 430 316 454 c 128,-1,10
 352 478 352 478 379 509.5 c 128,-1,11
 406 541 406 541 406 580 c 0,12,13
 406 616 406 616 381.5 636 c 128,-1,14
 357 656 357 656 317 656 c 256,15,16
 277 656 277 656 253 635 c 128,-1,17
 229 614 229 614 229 576 c 0,18,19
 229 550 229 550 240 522 c 128,-1,20
 251 494 251 494 270 468 c 128,-1,21
 289 442 289 442 310 420 c 2,22,-1
 743 0 l 1,23,-1
 606 0 l 1,24,-1
 244 364 l 2,25,26
 215 393 215 393 187.5 427 c 128,-1,27
 160 461 160 461 142 499.5 c 128,-1,28
 124 538 124 538 124 578 c 0,29,30
 124 644 124 644 175.5 684.5 c 128,-1,31
 227 725 227 725 317 725 c 256,32,33
 407 725 407 725 458.5 684.5 c 128,-1,34
 510 644 510 644 510 580 c 0,35,36
 510 530 510 530 480.5 490 c 128,-1,37
 451 450 451 450 406 418.5 c 128,-1,38
 361 387 361 387 316 359 c 0,39,40
 278 336 278 336 241.5 310.5 c 128,-1,41
 205 285 205 285 181.5 253.5 c 128,-1,42
 158 222 158 222 158 181 c 0,43,44
 158 133 158 133 195 100 c 128,-1,45
 232 67 232 67 298 67 c 0,46,47
 345 67 345 67 387 84.5 c 128,-1,48
 429 102 429 102 463.5 132 c 128,-1,49
 498 162 498 162 524.5 198.5 c 128,-1,50
 551 235 551 235 568 274 c 128,-1,51
 585 313 585 313 593 349 c 1,52,-1
 700 349 l 1,53,54
 687 292 687 292 662 239 c 128,-1,55
 637 186 637 186 599.5 140.5 c 128,-1,56
 562 95 562 95 514.5 61.5 c 128,-1,57
 467 28 467 28 409.5 9 c 128,-1,58
 352 -10 352 -10 285 -10 c 0,0,1
EndSplineSet
EndChar

StartChar: quotesingle.deva
Encoding: 39 39 39
Width: 771
Flags: W
LayerCount: 2
Fore
SplineSet
349 456 m 1,0,-1
 324 714 l 1,1,-1
 446 714 l 1,2,-1
 420 456 l 1,3,-1
 349 456 l 1,0,-1
EndSplineSet
EndChar

StartChar: parenleft.deva
Encoding: 40 40 40
Width: 771
Flags: W
LayerCount: 2
Fore
SplineSet
441 -158 m 1,0,1
 344 -70 344 -70 298 41.5 c 128,-1,2
 252 153 252 153 252 274 c 0,3,4
 252 396 252 396 298 509.5 c 128,-1,5
 344 623 344 623 441 714 c 1,6,-1
 548 714 l 1,7,8
 458 620 458 620 412.5 507 c 128,-1,9
 367 394 367 394 367 275 c 0,10,11
 367 159 367 159 412.5 47.5 c 128,-1,12
 458 -64 458 -64 547 -158 c 1,13,-1
 441 -158 l 1,0,1
EndSplineSet
EndChar

StartChar: parenright.deva
Encoding: 41 41 41
Width: 771
Flags: W
LayerCount: 2
Fore
SplineSet
329 714 m 1,0,1
 427 626 427 626 472.5 514.5 c 128,-1,2
 518 403 518 403 518 282 c 0,3,4
 518 160 518 160 472.5 46.5 c 128,-1,5
 427 -67 427 -67 329 -158 c 1,6,-1
 222 -158 l 1,7,8
 312 -64 312 -64 358 49.5 c 128,-1,9
 404 163 404 163 404 281 c 0,10,11
 404 397 404 397 358 508.5 c 128,-1,12
 312 620 312 620 224 714 c 1,13,-1
 329 714 l 1,0,1
EndSplineSet
EndChar

StartChar: asterisk.deva
Encoding: 42 42 42
Width: 771
Flags: W
LayerCount: 2
Fore
SplineSet
489 334 m 1,0,-1
 385 489 l 1,1,-1
 282 335 l 1,2,-1
 187 382 l 1,3,-1
 323 516 l 1,4,-1
 115 537 l 1,5,-1
 133 612 l 1,6,-1
 351 569 l 1,7,-1
 333 746 l 1,8,-1
 435 746 l 1,9,-1
 420 569 l 1,10,-1
 639 616 l 1,11,-1
 659 534 l 1,12,-1
 452 514 l 1,13,-1
 588 381 l 1,14,-1
 489 334 l 1,0,-1
EndSplineSet
EndChar

StartChar: plus.deva
Encoding: 43 43 43
Width: 771
Flags: W
LayerCount: 2
Fore
SplineSet
340 121 m 1,0,-1
 340 317 l 1,1,-1
 103 317 l 1,2,-1
 103 388 l 1,3,-1
 340 388 l 1,4,-1
 340 585 l 1,5,-1
 433 585 l 1,6,-1
 433 388 l 1,7,-1
 668 388 l 1,8,-1
 668 317 l 1,9,-1
 433 317 l 1,10,-1
 433 121 l 1,11,-1
 340 121 l 1,0,-1
EndSplineSet
EndChar

StartChar: comma.deva
Encoding: 44 44 44
Width: 771
Flags: W
LayerCount: 2
Fore
SplineSet
272 -140 m 1,0,1
 286 -96 286 -96 299 -48.5 c 128,-1,2
 312 -1 312 -1 323.5 45 c 128,-1,3
 335 91 335 91 342 129 c 1,4,-1
 479 129 l 1,5,-1
 489 117 l 1,6,7
 480 88 480 88 466 55.5 c 128,-1,8
 452 23 452 23 436 -10.5 c 128,-1,9
 420 -44 420 -44 402.5 -77 c 128,-1,10
 385 -110 385 -110 367 -140 c 1,11,-1
 272 -140 l 1,0,1
EndSplineSet
EndChar

StartChar: hyphen.deva
Encoding: 45 45 45
Width: 771
Flags: W
LayerCount: 2
Fore
SplineSet
192 230 m 1,0,-1
 192 310 l 1,1,-1
 578 310 l 1,2,-1
 578 230 l 1,3,-1
 192 230 l 1,0,-1
EndSplineSet
EndChar

StartChar: period.deva
Encoding: 46 46 46
Width: 771
Flags: W
LayerCount: 2
Fore
SplineSet
300 -10 m 256,0,1
 267 -10 267 -10 243.5 6 c 128,-1,2
 220 22 220 22 220 58 c 0,3,4
 220 96 220 96 243.5 111 c 128,-1,5
 267 126 267 126 300 126 c 256,6,7
 333 126 333 126 356.5 111 c 128,-1,8
 380 96 380 96 380 58 c 0,9,10
 380 22 380 22 356.5 6 c 128,-1,11
 333 -10 333 -10 300 -10 c 256,0,1
EndSplineSet
EndChar

StartChar: slash.deva
Encoding: 47 47 47
Width: 771
Flags: W
LayerCount: 2
Fore
SplineSet
154 0 m 1,0,-1
 506 714 l 1,1,-1
 617 714 l 1,2,-1
 264 0 l 1,3,-1
 154 0 l 1,0,-1
EndSplineSet
EndChar

StartChar: zero.deva
Encoding: 48 48 48
Width: 771
Flags: W
LayerCount: 2
Fore
SplineSet
122 85 m 0,0,1
 122 103 122 103 142 118 c 128,-1,2
 162 133 162 133 198 144.5 c 128,-1,3
 234 156 234 156 282 162.5 c 128,-1,4
 330 169 330 169 385 169 c 0,5,6
 442 169 442 169 490 162.5 c 128,-1,7
 538 156 538 156 573.5 144.5 c 128,-1,8
 609 133 609 133 629.5 118 c 128,-1,9
 650 103 650 103 650 85 c 0,10,11
 650 68 650 68 629.5 53 c 128,-1,12
 609 38 609 38 573.5 27 c 128,-1,13
 538 16 538 16 490 9.5 c 128,-1,14
 442 3 442 3 385 3 c 0,15,16
 330 3 330 3 282 9.5 c 128,-1,17
 234 16 234 16 198 27 c 128,-1,18
 162 38 162 38 142 53 c 128,-1,19
 122 68 122 68 122 85 c 0,0,1
225 85 m 256,20,21
 225 74 225 74 237 64.5 c 128,-1,22
 249 55 249 55 271 48.5 c 128,-1,23
 293 42 293 42 322.5 38 c 128,-1,24
 352 34 352 34 385 34 c 0,25,26
 420 34 420 34 449 38 c 128,-1,27
 478 42 478 42 500 48.5 c 128,-1,28
 522 55 522 55 534 64.5 c 128,-1,29
 546 74 546 74 546 85 c 256,30,31
 546 96 546 96 534 105.5 c 128,-1,32
 522 115 522 115 500 122 c 128,-1,33
 478 129 478 129 449 133 c 128,-1,34
 420 137 420 137 385 137 c 0,35,36
 352 137 352 137 322.5 133 c 128,-1,37
 293 129 293 129 271 122 c 128,-1,38
 249 115 249 115 237 105.5 c 128,-1,39
 225 96 225 96 225 85 c 256,20,21
122 272 m 0,40,41
 122 290 122 290 142 305 c 128,-1,42
 162 320 162 320 198 331.5 c 128,-1,43
 234 343 234 343 282 349 c 128,-1,44
 330 355 330 355 385 355 c 0,45,46
 442 355 442 355 490 349 c 128,-1,47
 538 343 538 343 573.5 331.5 c 128,-1,48
 609 320 609 320 629.5 305 c 128,-1,49
 650 290 650 290 650 272 c 0,50,51
 650 255 650 255 629.5 240 c 128,-1,52
 609 225 609 225 573.5 214 c 128,-1,53
 538 203 538 203 490 196 c 128,-1,54
 442 189 442 189 385 189 c 0,55,56
 330 189 330 189 282 196 c 128,-1,57
 234 203 234 203 198 214 c 128,-1,58
 162 225 162 225 142 240 c 128,-1,59
 122 255 122 255 122 272 c 0,40,41
225 272 m 256,60,61
 225 261 225 261 237 251.5 c 128,-1,62
 249 242 249 242 271 235 c 128,-1,63
 293 228 293 228 322.5 224 c 128,-1,64
 352 220 352 220 385 220 c 0,65,66
 420 220 420 220 449 224 c 128,-1,67
 478 228 478 228 500 235 c 128,-1,68
 522 242 522 242 534 251.5 c 128,-1,69
 546 261 546 261 546 272 c 256,70,71
 546 283 546 283 534 292.5 c 128,-1,72
 522 302 522 302 500 309 c 128,-1,73
 478 316 478 316 449 320 c 128,-1,74
 420 324 420 324 385 324 c 0,75,76
 352 324 352 324 322.5 320 c 128,-1,77
 293 316 293 316 271 309 c 128,-1,78
 249 302 249 302 237 292.5 c 128,-1,79
 225 283 225 283 225 272 c 256,60,61
122 461 m 256,80,81
 122 478 122 478 142 493.5 c 128,-1,82
 162 509 162 509 198 520 c 128,-1,83
 234 531 234 531 282 537.5 c 128,-1,84
 330 544 330 544 385 544 c 0,85,86
 442 544 442 544 490 537.5 c 128,-1,87
 538 531 538 531 573.5 520 c 128,-1,88
 609 509 609 509 629.5 493.5 c 128,-1,89
 650 478 650 478 650 461 c 256,90,91
 650 444 650 444 629.5 429 c 128,-1,92
 609 414 609 414 573.5 402.5 c 128,-1,93
 538 391 538 391 490 384.5 c 128,-1,94
 442 378 442 378 385 378 c 0,95,96
 330 378 330 378 282 384.5 c 128,-1,97
 234 391 234 391 198 402.5 c 128,-1,98
 162 414 162 414 142 429 c 128,-1,99
 122 444 122 444 122 461 c 256,80,81
225 461 m 256,100,101
 225 450 225 450 237 440.5 c 128,-1,102
 249 431 249 431 271 424 c 128,-1,103
 293 417 293 417 322.5 413 c 128,-1,104
 352 409 352 409 385 409 c 0,105,106
 420 409 420 409 449 413 c 128,-1,107
 478 417 478 417 500 424 c 128,-1,108
 522 431 522 431 534 440.5 c 128,-1,109
 546 450 546 450 546 461 c 256,110,111
 546 472 546 472 534 481.5 c 128,-1,112
 522 491 522 491 500 498 c 128,-1,113
 478 505 478 505 449 509 c 128,-1,114
 420 513 420 513 385 513 c 0,115,116
 352 513 352 513 322.5 509 c 128,-1,117
 293 505 293 505 271 498 c 128,-1,118
 249 491 249 491 237 481.5 c 128,-1,119
 225 472 225 472 225 461 c 256,100,101
122 648 m 256,120,121
 122 665 122 665 142 680.5 c 128,-1,122
 162 696 162 696 198 707 c 128,-1,123
 234 718 234 718 282 724.5 c 128,-1,124
 330 731 330 731 385 731 c 0,125,126
 442 731 442 731 490 724.5 c 128,-1,127
 538 718 538 718 573.5 707 c 128,-1,128
 609 696 609 696 629.5 680.5 c 128,-1,129
 650 665 650 665 650 648 c 256,130,131
 650 631 650 631 629.5 616 c 128,-1,132
 609 601 609 601 573.5 589.5 c 128,-1,133
 538 578 538 578 490 571.5 c 128,-1,134
 442 565 442 565 385 565 c 0,135,136
 330 565 330 565 282 571.5 c 128,-1,137
 234 578 234 578 198 589.5 c 128,-1,138
 162 601 162 601 142 616 c 128,-1,139
 122 631 122 631 122 648 c 256,120,121
225 648 m 0,140,141
 225 637 225 637 237 627.5 c 128,-1,142
 249 618 249 618 271 611 c 128,-1,143
 293 604 293 604 322.5 600 c 128,-1,144
 352 596 352 596 385 596 c 0,145,146
 420 596 420 596 449 600 c 128,-1,147
 478 604 478 604 500 611 c 128,-1,148
 522 618 522 618 534 627.5 c 128,-1,149
 546 637 546 637 546 648 c 0,150,151
 546 658 546 658 534 668 c 128,-1,152
 522 678 522 678 500 685 c 128,-1,153
 478 692 478 692 449 696 c 128,-1,154
 420 700 420 700 385 700 c 0,155,156
 352 700 352 700 322.5 696 c 128,-1,157
 293 692 293 692 271 685 c 128,-1,158
 249 678 249 678 237 668 c 128,-1,159
 225 658 225 658 225 648 c 0,140,141
EndSplineSet
EndChar

StartChar: one.deva
Encoding: 49 49 49
Width: 771
Flags: W
LayerCount: 2
Fore
SplineSet
122 85 m 0,0,1
 122 103 122 103 142 118 c 128,-1,2
 162 133 162 133 198 144.5 c 128,-1,3
 234 156 234 156 282 162.5 c 128,-1,4
 330 169 330 169 385 169 c 0,5,6
 442 169 442 169 490 162.5 c 128,-1,7
 538 156 538 156 573.5 144.5 c 128,-1,8
 609 133 609 133 629.5 118 c 128,-1,9
 650 103 650 103 650 85 c 0,10,11
 650 68 650 68 629.5 53 c 128,-1,12
 609 38 609 38 573.5 27 c 128,-1,13
 538 16 538 16 490 9.5 c 128,-1,14
 442 3 442 3 385 3 c 0,15,16
 330 3 330 3 282 9.5 c 128,-1,17
 234 16 234 16 198 27 c 128,-1,18
 162 38 162 38 142 53 c 128,-1,19
 122 68 122 68 122 85 c 0,0,1
122 272 m 0,20,21
 122 290 122 290 142 305 c 128,-1,22
 162 320 162 320 198 331.5 c 128,-1,23
 234 343 234 343 282 349 c 128,-1,24
 330 355 330 355 385 355 c 0,25,26
 442 355 442 355 490 349 c 128,-1,27
 538 343 538 343 573.5 331.5 c 128,-1,28
 609 320 609 320 629.5 305 c 128,-1,29
 650 290 650 290 650 272 c 0,30,31
 650 255 650 255 629.5 240 c 128,-1,32
 609 225 609 225 573.5 214 c 128,-1,33
 538 203 538 203 490 196 c 128,-1,34
 442 189 442 189 385 189 c 0,35,36
 330 189 330 189 282 196 c 128,-1,37
 234 203 234 203 198 214 c 128,-1,38
 162 225 162 225 142 240 c 128,-1,39
 122 255 122 255 122 272 c 0,20,21
225 272 m 256,40,41
 225 261 225 261 237 251.5 c 128,-1,42
 249 242 249 242 271 235 c 128,-1,43
 293 228 293 228 322.5 224 c 128,-1,44
 352 220 352 220 385 220 c 0,45,46
 420 220 420 220 449 224 c 128,-1,47
 478 228 478 228 500 235 c 128,-1,48
 522 242 522 242 534 251.5 c 128,-1,49
 546 261 546 261 546 272 c 256,50,51
 546 283 546 283 534 292.5 c 128,-1,52
 522 302 522 302 500 309 c 128,-1,53
 478 316 478 316 449 320 c 128,-1,54
 420 324 420 324 385 324 c 0,55,56
 352 324 352 324 322.5 320 c 128,-1,57
 293 316 293 316 271 309 c 128,-1,58
 249 302 249 302 237 292.5 c 128,-1,59
 225 283 225 283 225 272 c 256,40,41
122 461 m 256,60,61
 122 478 122 478 142 493.5 c 128,-1,62
 162 509 162 509 198 520 c 128,-1,63
 234 531 234 531 282 537.5 c 128,-1,64
 330 544 330 544 385 544 c 0,65,66
 442 544 442 544 490 537.5 c 128,-1,67
 538 531 538 531 573.5 520 c 128,-1,68
 609 509 609 509 629.5 493.5 c 128,-1,69
 650 478 650 478 650 461 c 256,70,71
 650 444 650 444 629.5 429 c 128,-1,72
 609 414 609 414 573.5 402.5 c 128,-1,73
 538 391 538 391 490 384.5 c 128,-1,74
 442 378 442 378 385 378 c 0,75,76
 330 378 330 378 282 384.5 c 128,-1,77
 234 391 234 391 198 402.5 c 128,-1,78
 162 414 162 414 142 429 c 128,-1,79
 122 444 122 444 122 461 c 256,60,61
225 461 m 256,80,81
 225 450 225 450 237 440.5 c 128,-1,82
 249 431 249 431 271 424 c 128,-1,83
 293 417 293 417 322.5 413 c 128,-1,84
 352 409 352 409 385 409 c 0,85,86
 420 409 420 409 449 413 c 128,-1,87
 478 417 478 417 500 424 c 128,-1,88
 522 431 522 431 534 440.5 c 128,-1,89
 546 450 546 450 546 461 c 256,90,91
 546 472 546 472 534 481.5 c 128,-1,92
 522 491 522 491 500 498 c 128,-1,93
 478 505 478 505 449 509 c 128,-1,94
 420 513 420 513 385 513 c 0,95,96
 352 513 352 513 322.5 509 c 128,-1,97
 293 505 293 505 271 498 c 128,-1,98
 249 491 249 491 237 481.5 c 128,-1,99
 225 472 225 472 225 461 c 256,80,81
122 648 m 256,100,101
 122 665 122 665 142 680.5 c 128,-1,102
 162 696 162 696 198 707 c 128,-1,103
 234 718 234 718 282 724.5 c 128,-1,104
 330 731 330 731 385 731 c 0,105,106
 442 731 442 731 490 724.5 c 128,-1,107
 538 718 538 718 573.5 707 c 128,-1,108
 609 696 609 696 629.5 680.5 c 128,-1,109
 650 665 650 665 650 648 c 256,110,111
 650 631 650 631 629.5 616 c 128,-1,112
 609 601 609 601 573.5 589.5 c 128,-1,113
 538 578 538 578 490 571.5 c 128,-1,114
 442 565 442 565 385 565 c 0,115,116
 330 565 330 565 282 571.5 c 128,-1,117
 234 578 234 578 198 589.5 c 128,-1,118
 162 601 162 601 142 616 c 128,-1,119
 122 631 122 631 122 648 c 256,100,101
225 648 m 0,120,121
 225 637 225 637 237 627.5 c 128,-1,122
 249 618 249 618 271 611 c 128,-1,123
 293 604 293 604 322.5 600 c 128,-1,124
 352 596 352 596 385 596 c 0,125,126
 420 596 420 596 449 600 c 128,-1,127
 478 604 478 604 500 611 c 128,-1,128
 522 618 522 618 534 627.5 c 128,-1,129
 546 637 546 637 546 648 c 0,130,131
 546 658 546 658 534 668 c 128,-1,132
 522 678 522 678 500 685 c 128,-1,133
 478 692 478 692 449 696 c 128,-1,134
 420 700 420 700 385 700 c 0,135,136
 352 700 352 700 322.5 696 c 128,-1,137
 293 692 293 692 271 685 c 128,-1,138
 249 678 249 678 237 668 c 128,-1,139
 225 658 225 658 225 648 c 0,120,121
EndSplineSet
EndChar

StartChar: two.deva
Encoding: 50 50 50
Width: 771
Flags: W
LayerCount: 2
Fore
SplineSet
122 85 m 0,0,1
 122 103 122 103 142 118 c 128,-1,2
 162 133 162 133 198 144.5 c 128,-1,3
 234 156 234 156 282 162.5 c 128,-1,4
 330 169 330 169 385 169 c 0,5,6
 442 169 442 169 490 162.5 c 128,-1,7
 538 156 538 156 573.5 144.5 c 128,-1,8
 609 133 609 133 629.5 118 c 128,-1,9
 650 103 650 103 650 85 c 0,10,11
 650 68 650 68 629.5 53 c 128,-1,12
 609 38 609 38 573.5 27 c 128,-1,13
 538 16 538 16 490 9.5 c 128,-1,14
 442 3 442 3 385 3 c 0,15,16
 330 3 330 3 282 9.5 c 128,-1,17
 234 16 234 16 198 27 c 128,-1,18
 162 38 162 38 142 53 c 128,-1,19
 122 68 122 68 122 85 c 0,0,1
225 85 m 256,20,21
 225 74 225 74 237 64.5 c 128,-1,22
 249 55 249 55 271 48.5 c 128,-1,23
 293 42 293 42 322.5 38 c 128,-1,24
 352 34 352 34 385 34 c 0,25,26
 420 34 420 34 449 38 c 128,-1,27
 478 42 478 42 500 48.5 c 128,-1,28
 522 55 522 55 534 64.5 c 128,-1,29
 546 74 546 74 546 85 c 256,30,31
 546 96 546 96 534 105.5 c 128,-1,32
 522 115 522 115 500 122 c 128,-1,33
 478 129 478 129 449 133 c 128,-1,34
 420 137 420 137 385 137 c 0,35,36
 352 137 352 137 322.5 133 c 128,-1,37
 293 129 293 129 271 122 c 128,-1,38
 249 115 249 115 237 105.5 c 128,-1,39
 225 96 225 96 225 85 c 256,20,21
122 272 m 0,40,41
 122 290 122 290 142 305 c 128,-1,42
 162 320 162 320 198 331.5 c 128,-1,43
 234 343 234 343 282 349 c 128,-1,44
 330 355 330 355 385 355 c 0,45,46
 442 355 442 355 490 349 c 128,-1,47
 538 343 538 343 573.5 331.5 c 128,-1,48
 609 320 609 320 629.5 305 c 128,-1,49
 650 290 650 290 650 272 c 0,50,51
 650 255 650 255 629.5 240 c 128,-1,52
 609 225 609 225 573.5 214 c 128,-1,53
 538 203 538 203 490 196 c 128,-1,54
 442 189 442 189 385 189 c 0,55,56
 330 189 330 189 282 196 c 128,-1,57
 234 203 234 203 198 214 c 128,-1,58
 162 225 162 225 142 240 c 128,-1,59
 122 255 122 255 122 272 c 0,40,41
122 461 m 256,60,61
 122 478 122 478 142 493.5 c 128,-1,62
 162 509 162 509 198 520 c 128,-1,63
 234 531 234 531 282 537.5 c 128,-1,64
 330 544 330 544 385 544 c 0,65,66
 442 544 442 544 490 537.5 c 128,-1,67
 538 531 538 531 573.5 520 c 128,-1,68
 609 509 609 509 629.5 493.5 c 128,-1,69
 650 478 650 478 650 461 c 256,70,71
 650 444 650 444 629.5 429 c 128,-1,72
 609 414 609 414 573.5 402.5 c 128,-1,73
 538 391 538 391 490 384.5 c 128,-1,74
 442 378 442 378 385 378 c 0,75,76
 330 378 330 378 282 384.5 c 128,-1,77
 234 391 234 391 198 402.5 c 128,-1,78
 162 414 162 414 142 429 c 128,-1,79
 122 444 122 444 122 461 c 256,60,61
225 461 m 256,80,81
 225 450 225 450 237 440.5 c 128,-1,82
 249 431 249 431 271 424 c 128,-1,83
 293 417 293 417 322.5 413 c 128,-1,84
 352 409 352 409 385 409 c 0,85,86
 420 409 420 409 449 413 c 128,-1,87
 478 417 478 417 500 424 c 128,-1,88
 522 431 522 431 534 440.5 c 128,-1,89
 546 450 546 450 546 461 c 256,90,91
 546 472 546 472 534 481.5 c 128,-1,92
 522 491 522 491 500 498 c 128,-1,93
 478 505 478 505 449 509 c 128,-1,94
 420 513 420 513 385 513 c 0,95,96
 352 513 352 513 322.5 509 c 128,-1,97
 293 505 293 505 271 498 c 128,-1,98
 249 491 249 491 237 481.5 c 128,-1,99
 225 472 225 472 225 461 c 256,80,81
122 648 m 256,100,101
 122 665 122 665 142 680.5 c 128,-1,102
 162 696 162 696 198 707 c 128,-1,103
 234 718 234 718 282 724.5 c 128,-1,104
 330 731 330 731 385 731 c 0,105,106
 442 731 442 731 490 724.5 c 128,-1,107
 538 718 538 718 573.5 707 c 128,-1,108
 609 696 609 696 629.5 680.5 c 128,-1,109
 650 665 650 665 650 648 c 256,110,111
 650 631 650 631 629.5 616 c 128,-1,112
 609 601 609 601 573.5 589.5 c 128,-1,113
 538 578 538 578 490 571.5 c 128,-1,114
 442 565 442 565 385 565 c 0,115,116
 330 565 330 565 282 571.5 c 128,-1,117
 234 578 234 578 198 589.5 c 128,-1,118
 162 601 162 601 142 616 c 128,-1,119
 122 631 122 631 122 648 c 256,100,101
225 648 m 0,120,121
 225 637 225 637 237 627.5 c 128,-1,122
 249 618 249 618 271 611 c 128,-1,123
 293 604 293 604 322.5 600 c 128,-1,124
 352 596 352 596 385 596 c 0,125,126
 420 596 420 596 449 600 c 128,-1,127
 478 604 478 604 500 611 c 128,-1,128
 522 618 522 618 534 627.5 c 128,-1,129
 546 637 546 637 546 648 c 0,130,131
 546 658 546 658 534 668 c 128,-1,132
 522 678 522 678 500 685 c 128,-1,133
 478 692 478 692 449 696 c 128,-1,134
 420 700 420 700 385 700 c 0,135,136
 352 700 352 700 322.5 696 c 128,-1,137
 293 692 293 692 271 685 c 128,-1,138
 249 678 249 678 237 668 c 128,-1,139
 225 658 225 658 225 648 c 0,120,121
EndSplineSet
EndChar

StartChar: three.deva
Encoding: 51 51 51
Width: 771
Flags: W
LayerCount: 2
Fore
SplineSet
122 85 m 0,0,1
 122 103 122 103 142 118 c 128,-1,2
 162 133 162 133 198 144.5 c 128,-1,3
 234 156 234 156 282 162.5 c 128,-1,4
 330 169 330 169 385 169 c 0,5,6
 442 169 442 169 490 162.5 c 128,-1,7
 538 156 538 156 573.5 144.5 c 128,-1,8
 609 133 609 133 629.5 118 c 128,-1,9
 650 103 650 103 650 85 c 0,10,11
 650 68 650 68 629.5 53 c 128,-1,12
 609 38 609 38 573.5 27 c 128,-1,13
 538 16 538 16 490 9.5 c 128,-1,14
 442 3 442 3 385 3 c 0,15,16
 330 3 330 3 282 9.5 c 128,-1,17
 234 16 234 16 198 27 c 128,-1,18
 162 38 162 38 142 53 c 128,-1,19
 122 68 122 68 122 85 c 0,0,1
122 272 m 0,20,21
 122 290 122 290 142 305 c 128,-1,22
 162 320 162 320 198 331.5 c 128,-1,23
 234 343 234 343 282 349 c 128,-1,24
 330 355 330 355 385 355 c 0,25,26
 442 355 442 355 490 349 c 128,-1,27
 538 343 538 343 573.5 331.5 c 128,-1,28
 609 320 609 320 629.5 305 c 128,-1,29
 650 290 650 290 650 272 c 0,30,31
 650 255 650 255 629.5 240 c 128,-1,32
 609 225 609 225 573.5 214 c 128,-1,33
 538 203 538 203 490 196 c 128,-1,34
 442 189 442 189 385 189 c 0,35,36
 330 189 330 189 282 196 c 128,-1,37
 234 203 234 203 198 214 c 128,-1,38
 162 225 162 225 142 240 c 128,-1,39
 122 255 122 255 122 272 c 0,20,21
122 461 m 256,40,41
 122 478 122 478 142 493.5 c 128,-1,42
 162 509 162 509 198 520 c 128,-1,43
 234 531 234 531 282 537.5 c 128,-1,44
 330 544 330 544 385 544 c 0,45,46
 442 544 442 544 490 537.5 c 128,-1,47
 538 531 538 531 573.5 520 c 128,-1,48
 609 509 609 509 629.5 493.5 c 128,-1,49
 650 478 650 478 650 461 c 256,50,51
 650 444 650 444 629.5 429 c 128,-1,52
 609 414 609 414 573.5 402.5 c 128,-1,53
 538 391 538 391 490 384.5 c 128,-1,54
 442 378 442 378 385 378 c 0,55,56
 330 378 330 378 282 384.5 c 128,-1,57
 234 391 234 391 198 402.5 c 128,-1,58
 162 414 162 414 142 429 c 128,-1,59
 122 444 122 444 122 461 c 256,40,41
225 461 m 256,60,61
 225 450 225 450 237 440.5 c 128,-1,62
 249 431 249 431 271 424 c 128,-1,63
 293 417 293 417 322.5 413 c 128,-1,64
 352 409 352 409 385 409 c 0,65,66
 420 409 420 409 449 413 c 128,-1,67
 478 417 478 417 500 424 c 128,-1,68
 522 431 522 431 534 440.5 c 128,-1,69
 546 450 546 450 546 461 c 256,70,71
 546 472 546 472 534 481.5 c 128,-1,72
 522 491 522 491 500 498 c 128,-1,73
 478 505 478 505 449 509 c 128,-1,74
 420 513 420 513 385 513 c 0,75,76
 352 513 352 513 322.5 509 c 128,-1,77
 293 505 293 505 271 498 c 128,-1,78
 249 491 249 491 237 481.5 c 128,-1,79
 225 472 225 472 225 461 c 256,60,61
122 648 m 256,80,81
 122 665 122 665 142 680.5 c 128,-1,82
 162 696 162 696 198 707 c 128,-1,83
 234 718 234 718 282 724.5 c 128,-1,84
 330 731 330 731 385 731 c 0,85,86
 442 731 442 731 490 724.5 c 128,-1,87
 538 718 538 718 573.5 707 c 128,-1,88
 609 696 609 696 629.5 680.5 c 128,-1,89
 650 665 650 665 650 648 c 256,90,91
 650 631 650 631 629.5 616 c 128,-1,92
 609 601 609 601 573.5 589.5 c 128,-1,93
 538 578 538 578 490 571.5 c 128,-1,94
 442 565 442 565 385 565 c 0,95,96
 330 565 330 565 282 571.5 c 128,-1,97
 234 578 234 578 198 589.5 c 128,-1,98
 162 601 162 601 142 616 c 128,-1,99
 122 631 122 631 122 648 c 256,80,81
225 648 m 0,100,101
 225 637 225 637 237 627.5 c 128,-1,102
 249 618 249 618 271 611 c 128,-1,103
 293 604 293 604 322.5 600 c 128,-1,104
 352 596 352 596 385 596 c 0,105,106
 420 596 420 596 449 600 c 128,-1,107
 478 604 478 604 500 611 c 128,-1,108
 522 618 522 618 534 627.5 c 128,-1,109
 546 637 546 637 546 648 c 0,110,111
 546 658 546 658 534 668 c 128,-1,112
 522 678 522 678 500 685 c 128,-1,113
 478 692 478 692 449 696 c 128,-1,114
 420 700 420 700 385 700 c 0,115,116
 352 700 352 700 322.5 696 c 128,-1,117
 293 692 293 692 271 685 c 128,-1,118
 249 678 249 678 237 668 c 128,-1,119
 225 658 225 658 225 648 c 0,100,101
EndSplineSet
EndChar

StartChar: four.deva
Encoding: 52 52 52
Width: 771
Flags: W
LayerCount: 2
Fore
SplineSet
122 85 m 0,0,1
 122 103 122 103 142 118 c 128,-1,2
 162 133 162 133 198 144.5 c 128,-1,3
 234 156 234 156 282 162.5 c 128,-1,4
 330 169 330 169 385 169 c 0,5,6
 442 169 442 169 490 162.5 c 128,-1,7
 538 156 538 156 573.5 144.5 c 128,-1,8
 609 133 609 133 629.5 118 c 128,-1,9
 650 103 650 103 650 85 c 0,10,11
 650 68 650 68 629.5 53 c 128,-1,12
 609 38 609 38 573.5 27 c 128,-1,13
 538 16 538 16 490 9.5 c 128,-1,14
 442 3 442 3 385 3 c 0,15,16
 330 3 330 3 282 9.5 c 128,-1,17
 234 16 234 16 198 27 c 128,-1,18
 162 38 162 38 142 53 c 128,-1,19
 122 68 122 68 122 85 c 0,0,1
225 85 m 256,20,21
 225 74 225 74 237 64.5 c 128,-1,22
 249 55 249 55 271 48.5 c 128,-1,23
 293 42 293 42 322.5 38 c 128,-1,24
 352 34 352 34 385 34 c 0,25,26
 420 34 420 34 449 38 c 128,-1,27
 478 42 478 42 500 48.5 c 128,-1,28
 522 55 522 55 534 64.5 c 128,-1,29
 546 74 546 74 546 85 c 256,30,31
 546 96 546 96 534 105.5 c 128,-1,32
 522 115 522 115 500 122 c 128,-1,33
 478 129 478 129 449 133 c 128,-1,34
 420 137 420 137 385 137 c 0,35,36
 352 137 352 137 322.5 133 c 128,-1,37
 293 129 293 129 271 122 c 128,-1,38
 249 115 249 115 237 105.5 c 128,-1,39
 225 96 225 96 225 85 c 256,20,21
122 272 m 0,40,41
 122 290 122 290 142 305 c 128,-1,42
 162 320 162 320 198 331.5 c 128,-1,43
 234 343 234 343 282 349 c 128,-1,44
 330 355 330 355 385 355 c 0,45,46
 442 355 442 355 490 349 c 128,-1,47
 538 343 538 343 573.5 331.5 c 128,-1,48
 609 320 609 320 629.5 305 c 128,-1,49
 650 290 650 290 650 272 c 0,50,51
 650 255 650 255 629.5 240 c 128,-1,52
 609 225 609 225 573.5 214 c 128,-1,53
 538 203 538 203 490 196 c 128,-1,54
 442 189 442 189 385 189 c 0,55,56
 330 189 330 189 282 196 c 128,-1,57
 234 203 234 203 198 214 c 128,-1,58
 162 225 162 225 142 240 c 128,-1,59
 122 255 122 255 122 272 c 0,40,41
225 272 m 256,60,61
 225 261 225 261 237 251.5 c 128,-1,62
 249 242 249 242 271 235 c 128,-1,63
 293 228 293 228 322.5 224 c 128,-1,64
 352 220 352 220 385 220 c 0,65,66
 420 220 420 220 449 224 c 128,-1,67
 478 228 478 228 500 235 c 128,-1,68
 522 242 522 242 534 251.5 c 128,-1,69
 546 261 546 261 546 272 c 256,70,71
 546 283 546 283 534 292.5 c 128,-1,72
 522 302 522 302 500 309 c 128,-1,73
 478 316 478 316 449 320 c 128,-1,74
 420 324 420 324 385 324 c 0,75,76
 352 324 352 324 322.5 320 c 128,-1,77
 293 316 293 316 271 309 c 128,-1,78
 249 302 249 302 237 292.5 c 128,-1,79
 225 283 225 283 225 272 c 256,60,61
122 461 m 256,80,81
 122 478 122 478 142 493.5 c 128,-1,82
 162 509 162 509 198 520 c 128,-1,83
 234 531 234 531 282 537.5 c 128,-1,84
 330 544 330 544 385 544 c 0,85,86
 442 544 442 544 490 537.5 c 128,-1,87
 538 531 538 531 573.5 520 c 128,-1,88
 609 509 609 509 629.5 493.5 c 128,-1,89
 650 478 650 478 650 461 c 256,90,91
 650 444 650 444 629.5 429 c 128,-1,92
 609 414 609 414 573.5 402.5 c 128,-1,93
 538 391 538 391 490 384.5 c 128,-1,94
 442 378 442 378 385 378 c 0,95,96
 330 378 330 378 282 384.5 c 128,-1,97
 234 391 234 391 198 402.5 c 128,-1,98
 162 414 162 414 142 429 c 128,-1,99
 122 444 122 444 122 461 c 256,80,81
122 648 m 256,100,101
 122 665 122 665 142 680.5 c 128,-1,102
 162 696 162 696 198 707 c 128,-1,103
 234 718 234 718 282 724.5 c 128,-1,104
 330 731 330 731 385 731 c 0,105,106
 442 731 442 731 490 724.5 c 128,-1,107
 538 718 538 718 573.5 707 c 128,-1,108
 609 696 609 696 629.5 680.5 c 128,-1,109
 650 665 650 665 650 648 c 256,110,111
 650 631 650 631 629.5 616 c 128,-1,112
 609 601 609 601 573.5 589.5 c 128,-1,113
 538 578 538 578 490 571.5 c 128,-1,114
 442 565 442 565 385 565 c 0,115,116
 330 565 330 565 282 571.5 c 128,-1,117
 234 578 234 578 198 589.5 c 128,-1,118
 162 601 162 601 142 616 c 128,-1,119
 122 631 122 631 122 648 c 256,100,101
225 648 m 0,120,121
 225 637 225 637 237 627.5 c 128,-1,122
 249 618 249 618 271 611 c 128,-1,123
 293 604 293 604 322.5 600 c 128,-1,124
 352 596 352 596 385 596 c 0,125,126
 420 596 420 596 449 600 c 128,-1,127
 478 604 478 604 500 611 c 128,-1,128
 522 618 522 618 534 627.5 c 128,-1,129
 546 637 546 637 546 648 c 0,130,131
 546 658 546 658 534 668 c 128,-1,132
 522 678 522 678 500 685 c 128,-1,133
 478 692 478 692 449 696 c 128,-1,134
 420 700 420 700 385 700 c 0,135,136
 352 700 352 700 322.5 696 c 128,-1,137
 293 692 293 692 271 685 c 128,-1,138
 249 678 249 678 237 668 c 128,-1,139
 225 658 225 658 225 648 c 0,120,121
EndSplineSet
EndChar

StartChar: five.deva
Encoding: 53 53 53
Width: 771
Flags: W
LayerCount: 2
Fore
SplineSet
122 85 m 0,0,1
 122 103 122 103 142 118 c 128,-1,2
 162 133 162 133 198 144.5 c 128,-1,3
 234 156 234 156 282 162.5 c 128,-1,4
 330 169 330 169 385 169 c 0,5,6
 442 169 442 169 490 162.5 c 128,-1,7
 538 156 538 156 573.5 144.5 c 128,-1,8
 609 133 609 133 629.5 118 c 128,-1,9
 650 103 650 103 650 85 c 0,10,11
 650 68 650 68 629.5 53 c 128,-1,12
 609 38 609 38 573.5 27 c 128,-1,13
 538 16 538 16 490 9.5 c 128,-1,14
 442 3 442 3 385 3 c 0,15,16
 330 3 330 3 282 9.5 c 128,-1,17
 234 16 234 16 198 27 c 128,-1,18
 162 38 162 38 142 53 c 128,-1,19
 122 68 122 68 122 85 c 0,0,1
122 272 m 0,20,21
 122 290 122 290 142 305 c 128,-1,22
 162 320 162 320 198 331.5 c 128,-1,23
 234 343 234 343 282 349 c 128,-1,24
 330 355 330 355 385 355 c 0,25,26
 442 355 442 355 490 349 c 128,-1,27
 538 343 538 343 573.5 331.5 c 128,-1,28
 609 320 609 320 629.5 305 c 128,-1,29
 650 290 650 290 650 272 c 0,30,31
 650 255 650 255 629.5 240 c 128,-1,32
 609 225 609 225 573.5 214 c 128,-1,33
 538 203 538 203 490 196 c 128,-1,34
 442 189 442 189 385 189 c 0,35,36
 330 189 330 189 282 196 c 128,-1,37
 234 203 234 203 198 214 c 128,-1,38
 162 225 162 225 142 240 c 128,-1,39
 122 255 122 255 122 272 c 0,20,21
225 272 m 256,40,41
 225 261 225 261 237 251.5 c 128,-1,42
 249 242 249 242 271 235 c 128,-1,43
 293 228 293 228 322.5 224 c 128,-1,44
 352 220 352 220 385 220 c 0,45,46
 420 220 420 220 449 224 c 128,-1,47
 478 228 478 228 500 235 c 128,-1,48
 522 242 522 242 534 251.5 c 128,-1,49
 546 261 546 261 546 272 c 256,50,51
 546 283 546 283 534 292.5 c 128,-1,52
 522 302 522 302 500 309 c 128,-1,53
 478 316 478 316 449 320 c 128,-1,54
 420 324 420 324 385 324 c 0,55,56
 352 324 352 324 322.5 320 c 128,-1,57
 293 316 293 316 271 309 c 128,-1,58
 249 302 249 302 237 292.5 c 128,-1,59
 225 283 225 283 225 272 c 256,40,41
122 461 m 256,60,61
 122 478 122 478 142 493.5 c 128,-1,62
 162 509 162 509 198 520 c 128,-1,63
 234 531 234 531 282 537.5 c 128,-1,64
 330 544 330 544 385 544 c 0,65,66
 442 544 442 544 490 537.5 c 128,-1,67
 538 531 538 531 573.5 520 c 128,-1,68
 609 509 609 509 629.5 493.5 c 128,-1,69
 650 478 650 478 650 461 c 256,70,71
 650 444 650 444 629.5 429 c 128,-1,72
 609 414 609 414 573.5 402.5 c 128,-1,73
 538 391 538 391 490 384.5 c 128,-1,74
 442 378 442 378 385 378 c 0,75,76
 330 378 330 378 282 384.5 c 128,-1,77
 234 391 234 391 198 402.5 c 128,-1,78
 162 414 162 414 142 429 c 128,-1,79
 122 444 122 444 122 461 c 256,60,61
122 648 m 256,80,81
 122 665 122 665 142 680.5 c 128,-1,82
 162 696 162 696 198 707 c 128,-1,83
 234 718 234 718 282 724.5 c 128,-1,84
 330 731 330 731 385 731 c 0,85,86
 442 731 442 731 490 724.5 c 128,-1,87
 538 718 538 718 573.5 707 c 128,-1,88
 609 696 609 696 629.5 680.5 c 128,-1,89
 650 665 650 665 650 648 c 256,90,91
 650 631 650 631 629.5 616 c 128,-1,92
 609 601 609 601 573.5 589.5 c 128,-1,93
 538 578 538 578 490 571.5 c 128,-1,94
 442 565 442 565 385 565 c 0,95,96
 330 565 330 565 282 571.5 c 128,-1,97
 234 578 234 578 198 589.5 c 128,-1,98
 162 601 162 601 142 616 c 128,-1,99
 122 631 122 631 122 648 c 256,80,81
225 648 m 0,100,101
 225 637 225 637 237 627.5 c 128,-1,102
 249 618 249 618 271 611 c 128,-1,103
 293 604 293 604 322.5 600 c 128,-1,104
 352 596 352 596 385 596 c 0,105,106
 420 596 420 596 449 600 c 128,-1,107
 478 604 478 604 500 611 c 128,-1,108
 522 618 522 618 534 627.5 c 128,-1,109
 546 637 546 637 546 648 c 0,110,111
 546 658 546 658 534 668 c 128,-1,112
 522 678 522 678 500 685 c 128,-1,113
 478 692 478 692 449 696 c 128,-1,114
 420 700 420 700 385 700 c 0,115,116
 352 700 352 700 322.5 696 c 128,-1,117
 293 692 293 692 271 685 c 128,-1,118
 249 678 249 678 237 668 c 128,-1,119
 225 658 225 658 225 648 c 0,100,101
EndSplineSet
EndChar

StartChar: six.deva
Encoding: 54 54 54
Width: 771
Flags: W
LayerCount: 2
Fore
SplineSet
122 85 m 0,0,1
 122 103 122 103 142 118 c 128,-1,2
 162 133 162 133 198 144.5 c 128,-1,3
 234 156 234 156 282 162.5 c 128,-1,4
 330 169 330 169 385 169 c 0,5,6
 442 169 442 169 490 162.5 c 128,-1,7
 538 156 538 156 573.5 144.5 c 128,-1,8
 609 133 609 133 629.5 118 c 128,-1,9
 650 103 650 103 650 85 c 0,10,11
 650 68 650 68 629.5 53 c 128,-1,12
 609 38 609 38 573.5 27 c 128,-1,13
 538 16 538 16 490 9.5 c 128,-1,14
 442 3 442 3 385 3 c 0,15,16
 330 3 330 3 282 9.5 c 128,-1,17
 234 16 234 16 198 27 c 128,-1,18
 162 38 162 38 142 53 c 128,-1,19
 122 68 122 68 122 85 c 0,0,1
225 85 m 256,20,21
 225 74 225 74 237 64.5 c 128,-1,22
 249 55 249 55 271 48.5 c 128,-1,23
 293 42 293 42 322.5 38 c 128,-1,24
 352 34 352 34 385 34 c 0,25,26
 420 34 420 34 449 38 c 128,-1,27
 478 42 478 42 500 48.5 c 128,-1,28
 522 55 522 55 534 64.5 c 128,-1,29
 546 74 546 74 546 85 c 256,30,31
 546 96 546 96 534 105.5 c 128,-1,32
 522 115 522 115 500 122 c 128,-1,33
 478 129 478 129 449 133 c 128,-1,34
 420 137 420 137 385 137 c 0,35,36
 352 137 352 137 322.5 133 c 128,-1,37
 293 129 293 129 271 122 c 128,-1,38
 249 115 249 115 237 105.5 c 128,-1,39
 225 96 225 96 225 85 c 256,20,21
122 272 m 0,40,41
 122 290 122 290 142 305 c 128,-1,42
 162 320 162 320 198 331.5 c 128,-1,43
 234 343 234 343 282 349 c 128,-1,44
 330 355 330 355 385 355 c 0,45,46
 442 355 442 355 490 349 c 128,-1,47
 538 343 538 343 573.5 331.5 c 128,-1,48
 609 320 609 320 629.5 305 c 128,-1,49
 650 290 650 290 650 272 c 0,50,51
 650 255 650 255 629.5 240 c 128,-1,52
 609 225 609 225 573.5 214 c 128,-1,53
 538 203 538 203 490 196 c 128,-1,54
 442 189 442 189 385 189 c 0,55,56
 330 189 330 189 282 196 c 128,-1,57
 234 203 234 203 198 214 c 128,-1,58
 162 225 162 225 142 240 c 128,-1,59
 122 255 122 255 122 272 c 0,40,41
122 461 m 256,60,61
 122 478 122 478 142 493.5 c 128,-1,62
 162 509 162 509 198 520 c 128,-1,63
 234 531 234 531 282 537.5 c 128,-1,64
 330 544 330 544 385 544 c 0,65,66
 442 544 442 544 490 537.5 c 128,-1,67
 538 531 538 531 573.5 520 c 128,-1,68
 609 509 609 509 629.5 493.5 c 128,-1,69
 650 478 650 478 650 461 c 256,70,71
 650 444 650 444 629.5 429 c 128,-1,72
 609 414 609 414 573.5 402.5 c 128,-1,73
 538 391 538 391 490 384.5 c 128,-1,74
 442 378 442 378 385 378 c 0,75,76
 330 378 330 378 282 384.5 c 128,-1,77
 234 391 234 391 198 402.5 c 128,-1,78
 162 414 162 414 142 429 c 128,-1,79
 122 444 122 444 122 461 c 256,60,61
122 648 m 256,80,81
 122 665 122 665 142 680.5 c 128,-1,82
 162 696 162 696 198 707 c 128,-1,83
 234 718 234 718 282 724.5 c 128,-1,84
 330 731 330 731 385 731 c 0,85,86
 442 731 442 731 490 724.5 c 128,-1,87
 538 718 538 718 573.5 707 c 128,-1,88
 609 696 609 696 629.5 680.5 c 128,-1,89
 650 665 650 665 650 648 c 256,90,91
 650 631 650 631 629.5 616 c 128,-1,92
 609 601 609 601 573.5 589.5 c 128,-1,93
 538 578 538 578 490 571.5 c 128,-1,94
 442 565 442 565 385 565 c 0,95,96
 330 565 330 565 282 571.5 c 128,-1,97
 234 578 234 578 198 589.5 c 128,-1,98
 162 601 162 601 142 616 c 128,-1,99
 122 631 122 631 122 648 c 256,80,81
225 648 m 0,100,101
 225 637 225 637 237 627.5 c 128,-1,102
 249 618 249 618 271 611 c 128,-1,103
 293 604 293 604 322.5 600 c 128,-1,104
 352 596 352 596 385 596 c 0,105,106
 420 596 420 596 449 600 c 128,-1,107
 478 604 478 604 500 611 c 128,-1,108
 522 618 522 618 534 627.5 c 128,-1,109
 546 637 546 637 546 648 c 0,110,111
 546 658 546 658 534 668 c 128,-1,112
 522 678 522 678 500 685 c 128,-1,113
 478 692 478 692 449 696 c 128,-1,114
 420 700 420 700 385 700 c 0,115,116
 352 700 352 700 322.5 696 c 128,-1,117
 293 692 293 692 271 685 c 128,-1,118
 249 678 249 678 237 668 c 128,-1,119
 225 658 225 658 225 648 c 0,100,101
EndSplineSet
EndChar

StartChar: seven.deva
Encoding: 55 55 55
Width: 771
Flags: W
LayerCount: 2
Fore
SplineSet
122 85 m 0,0,1
 122 103 122 103 142 118 c 128,-1,2
 162 133 162 133 198 144.5 c 128,-1,3
 234 156 234 156 282 162.5 c 128,-1,4
 330 169 330 169 385 169 c 0,5,6
 442 169 442 169 490 162.5 c 128,-1,7
 538 156 538 156 573.5 144.5 c 128,-1,8
 609 133 609 133 629.5 118 c 128,-1,9
 650 103 650 103 650 85 c 0,10,11
 650 68 650 68 629.5 53 c 128,-1,12
 609 38 609 38 573.5 27 c 128,-1,13
 538 16 538 16 490 9.5 c 128,-1,14
 442 3 442 3 385 3 c 0,15,16
 330 3 330 3 282 9.5 c 128,-1,17
 234 16 234 16 198 27 c 128,-1,18
 162 38 162 38 142 53 c 128,-1,19
 122 68 122 68 122 85 c 0,0,1
122 272 m 0,20,21
 122 290 122 290 142 305 c 128,-1,22
 162 320 162 320 198 331.5 c 128,-1,23
 234 343 234 343 282 349 c 128,-1,24
 330 355 330 355 385 355 c 0,25,26
 442 355 442 355 490 349 c 128,-1,27
 538 343 538 343 573.5 331.5 c 128,-1,28
 609 320 609 320 629.5 305 c 128,-1,29
 650 290 650 290 650 272 c 0,30,31
 650 255 650 255 629.5 240 c 128,-1,32
 609 225 609 225 573.5 214 c 128,-1,33
 538 203 538 203 490 196 c 128,-1,34
 442 189 442 189 385 189 c 0,35,36
 330 189 330 189 282 196 c 128,-1,37
 234 203 234 203 198 214 c 128,-1,38
 162 225 162 225 142 240 c 128,-1,39
 122 255 122 255 122 272 c 0,20,21
122 461 m 256,40,41
 122 478 122 478 142 493.5 c 128,-1,42
 162 509 162 509 198 520 c 128,-1,43
 234 531 234 531 282 537.5 c 128,-1,44
 330 544 330 544 385 544 c 0,45,46
 442 544 442 544 490 537.5 c 128,-1,47
 538 531 538 531 573.5 520 c 128,-1,48
 609 509 609 509 629.5 493.5 c 128,-1,49
 650 478 650 478 650 461 c 256,50,51
 650 444 650 444 629.5 429 c 128,-1,52
 609 414 609 414 573.5 402.5 c 128,-1,53
 538 391 538 391 490 384.5 c 128,-1,54
 442 378 442 378 385 378 c 0,55,56
 330 378 330 378 282 384.5 c 128,-1,57
 234 391 234 391 198 402.5 c 128,-1,58
 162 414 162 414 142 429 c 128,-1,59
 122 444 122 444 122 461 c 256,40,41
122 648 m 256,60,61
 122 665 122 665 142 680.5 c 128,-1,62
 162 696 162 696 198 707 c 128,-1,63
 234 718 234 718 282 724.5 c 128,-1,64
 330 731 330 731 385 731 c 0,65,66
 442 731 442 731 490 724.5 c 128,-1,67
 538 718 538 718 573.5 707 c 128,-1,68
 609 696 609 696 629.5 680.5 c 128,-1,69
 650 665 650 665 650 648 c 256,70,71
 650 631 650 631 629.5 616 c 128,-1,72
 609 601 609 601 573.5 589.5 c 128,-1,73
 538 578 538 578 490 571.5 c 128,-1,74
 442 565 442 565 385 565 c 0,75,76
 330 565 330 565 282 571.5 c 128,-1,77
 234 578 234 578 198 589.5 c 128,-1,78
 162 601 162 601 142 616 c 128,-1,79
 122 631 122 631 122 648 c 256,60,61
225 648 m 0,80,81
 225 637 225 637 237 627.5 c 128,-1,82
 249 618 249 618 271 611 c 128,-1,83
 293 604 293 604 322.5 600 c 128,-1,84
 352 596 352 596 385 596 c 0,85,86
 420 596 420 596 449 600 c 128,-1,87
 478 604 478 604 500 611 c 128,-1,88
 522 618 522 618 534 627.5 c 128,-1,89
 546 637 546 637 546 648 c 0,90,91
 546 658 546 658 534 668 c 128,-1,92
 522 678 522 678 500 685 c 128,-1,93
 478 692 478 692 449 696 c 128,-1,94
 420 700 420 700 385 700 c 0,95,96
 352 700 352 700 322.5 696 c 128,-1,97
 293 692 293 692 271 685 c 128,-1,98
 249 678 249 678 237 668 c 128,-1,99
 225 658 225 658 225 648 c 0,80,81
EndSplineSet
EndChar

StartChar: eight.deva
Encoding: 56 56 56
Width: 771
Flags: W
LayerCount: 2
Fore
SplineSet
122 85 m 0,0,1
 122 103 122 103 142 118 c 128,-1,2
 162 133 162 133 198 144.5 c 128,-1,3
 234 156 234 156 282 162.5 c 128,-1,4
 330 169 330 169 385 169 c 0,5,6
 442 169 442 169 490 162.5 c 128,-1,7
 538 156 538 156 573.5 144.5 c 128,-1,8
 609 133 609 133 629.5 118 c 128,-1,9
 650 103 650 103 650 85 c 0,10,11
 650 68 650 68 629.5 53 c 128,-1,12
 609 38 609 38 573.5 27 c 128,-1,13
 538 16 538 16 490 9.5 c 128,-1,14
 442 3 442 3 385 3 c 0,15,16
 330 3 330 3 282 9.5 c 128,-1,17
 234 16 234 16 198 27 c 128,-1,18
 162 38 162 38 142 53 c 128,-1,19
 122 68 122 68 122 85 c 0,0,1
225 85 m 256,20,21
 225 74 225 74 237 64.5 c 128,-1,22
 249 55 249 55 271 48.5 c 128,-1,23
 293 42 293 42 322.5 38 c 128,-1,24
 352 34 352 34 385 34 c 0,25,26
 420 34 420 34 449 38 c 128,-1,27
 478 42 478 42 500 48.5 c 128,-1,28
 522 55 522 55 534 64.5 c 128,-1,29
 546 74 546 74 546 85 c 256,30,31
 546 96 546 96 534 105.5 c 128,-1,32
 522 115 522 115 500 122 c 128,-1,33
 478 129 478 129 449 133 c 128,-1,34
 420 137 420 137 385 137 c 0,35,36
 352 137 352 137 322.5 133 c 128,-1,37
 293 129 293 129 271 122 c 128,-1,38
 249 115 249 115 237 105.5 c 128,-1,39
 225 96 225 96 225 85 c 256,20,21
122 272 m 0,40,41
 122 290 122 290 142 305 c 128,-1,42
 162 320 162 320 198 331.5 c 128,-1,43
 234 343 234 343 282 349 c 128,-1,44
 330 355 330 355 385 355 c 0,45,46
 442 355 442 355 490 349 c 128,-1,47
 538 343 538 343 573.5 331.5 c 128,-1,48
 609 320 609 320 629.5 305 c 128,-1,49
 650 290 650 290 650 272 c 0,50,51
 650 255 650 255 629.5 240 c 128,-1,52
 609 225 609 225 573.5 214 c 128,-1,53
 538 203 538 203 490 196 c 128,-1,54
 442 189 442 189 385 189 c 0,55,56
 330 189 330 189 282 196 c 128,-1,57
 234 203 234 203 198 214 c 128,-1,58
 162 225 162 225 142 240 c 128,-1,59
 122 255 122 255 122 272 c 0,40,41
225 272 m 256,60,61
 225 261 225 261 237 251.5 c 128,-1,62
 249 242 249 242 271 235 c 128,-1,63
 293 228 293 228 322.5 224 c 128,-1,64
 352 220 352 220 385 220 c 0,65,66
 420 220 420 220 449 224 c 128,-1,67
 478 228 478 228 500 235 c 128,-1,68
 522 242 522 242 534 251.5 c 128,-1,69
 546 261 546 261 546 272 c 256,70,71
 546 283 546 283 534 292.5 c 128,-1,72
 522 302 522 302 500 309 c 128,-1,73
 478 316 478 316 449 320 c 128,-1,74
 420 324 420 324 385 324 c 0,75,76
 352 324 352 324 322.5 320 c 128,-1,77
 293 316 293 316 271 309 c 128,-1,78
 249 302 249 302 237 292.5 c 128,-1,79
 225 283 225 283 225 272 c 256,60,61
122 461 m 256,80,81
 122 478 122 478 142 493.5 c 128,-1,82
 162 509 162 509 198 520 c 128,-1,83
 234 531 234 531 282 537.5 c 128,-1,84
 330 544 330 544 385 544 c 0,85,86
 442 544 442 544 490 537.5 c 128,-1,87
 538 531 538 531 573.5 520 c 128,-1,88
 609 509 609 509 629.5 493.5 c 128,-1,89
 650 478 650 478 650 461 c 256,90,91
 650 444 650 444 629.5 429 c 128,-1,92
 609 414 609 414 573.5 402.5 c 128,-1,93
 538 391 538 391 490 384.5 c 128,-1,94
 442 378 442 378 385 378 c 0,95,96
 330 378 330 378 282 384.5 c 128,-1,97
 234 391 234 391 198 402.5 c 128,-1,98
 162 414 162 414 142 429 c 128,-1,99
 122 444 122 444 122 461 c 256,80,81
225 461 m 256,100,101
 225 450 225 450 237 440.5 c 128,-1,102
 249 431 249 431 271 424 c 128,-1,103
 293 417 293 417 322.5 413 c 128,-1,104
 352 409 352 409 385 409 c 0,105,106
 420 409 420 409 449 413 c 128,-1,107
 478 417 478 417 500 424 c 128,-1,108
 522 431 522 431 534 440.5 c 128,-1,109
 546 450 546 450 546 461 c 256,110,111
 546 472 546 472 534 481.5 c 128,-1,112
 522 491 522 491 500 498 c 128,-1,113
 478 505 478 505 449 509 c 128,-1,114
 420 513 420 513 385 513 c 0,115,116
 352 513 352 513 322.5 509 c 128,-1,117
 293 505 293 505 271 498 c 128,-1,118
 249 491 249 491 237 481.5 c 128,-1,119
 225 472 225 472 225 461 c 256,100,101
122 648 m 256,120,121
 122 665 122 665 142 680.5 c 128,-1,122
 162 696 162 696 198 707 c 128,-1,123
 234 718 234 718 282 724.5 c 128,-1,124
 330 731 330 731 385 731 c 0,125,126
 442 731 442 731 490 724.5 c 128,-1,127
 538 718 538 718 573.5 707 c 128,-1,128
 609 696 609 696 629.5 680.5 c 128,-1,129
 650 665 650 665 650 648 c 256,130,131
 650 631 650 631 629.5 616 c 128,-1,132
 609 601 609 601 573.5 589.5 c 128,-1,133
 538 578 538 578 490 571.5 c 128,-1,134
 442 565 442 565 385 565 c 0,135,136
 330 565 330 565 282 571.5 c 128,-1,137
 234 578 234 578 198 589.5 c 128,-1,138
 162 601 162 601 142 616 c 128,-1,139
 122 631 122 631 122 648 c 256,120,121
EndSplineSet
EndChar

StartChar: nine.deva
Encoding: 57 57 57
Width: 771
Flags: W
LayerCount: 2
Fore
SplineSet
122 85 m 0,0,1
 122 103 122 103 142 118 c 128,-1,2
 162 133 162 133 198 144.5 c 128,-1,3
 234 156 234 156 282 162.5 c 128,-1,4
 330 169 330 169 385 169 c 0,5,6
 442 169 442 169 490 162.5 c 128,-1,7
 538 156 538 156 573.5 144.5 c 128,-1,8
 609 133 609 133 629.5 118 c 128,-1,9
 650 103 650 103 650 85 c 0,10,11
 650 68 650 68 629.5 53 c 128,-1,12
 609 38 609 38 573.5 27 c 128,-1,13
 538 16 538 16 490 9.5 c 128,-1,14
 442 3 442 3 385 3 c 0,15,16
 330 3 330 3 282 9.5 c 128,-1,17
 234 16 234 16 198 27 c 128,-1,18
 162 38 162 38 142 53 c 128,-1,19
 122 68 122 68 122 85 c 0,0,1
122 272 m 0,20,21
 122 290 122 290 142 305 c 128,-1,22
 162 320 162 320 198 331.5 c 128,-1,23
 234 343 234 343 282 349 c 128,-1,24
 330 355 330 355 385 355 c 0,25,26
 442 355 442 355 490 349 c 128,-1,27
 538 343 538 343 573.5 331.5 c 128,-1,28
 609 320 609 320 629.5 305 c 128,-1,29
 650 290 650 290 650 272 c 0,30,31
 650 255 650 255 629.5 240 c 128,-1,32
 609 225 609 225 573.5 214 c 128,-1,33
 538 203 538 203 490 196 c 128,-1,34
 442 189 442 189 385 189 c 0,35,36
 330 189 330 189 282 196 c 128,-1,37
 234 203 234 203 198 214 c 128,-1,38
 162 225 162 225 142 240 c 128,-1,39
 122 255 122 255 122 272 c 0,20,21
225 272 m 256,40,41
 225 261 225 261 237 251.5 c 128,-1,42
 249 242 249 242 271 235 c 128,-1,43
 293 228 293 228 322.5 224 c 128,-1,44
 352 220 352 220 385 220 c 0,45,46
 420 220 420 220 449 224 c 128,-1,47
 478 228 478 228 500 235 c 128,-1,48
 522 242 522 242 534 251.5 c 128,-1,49
 546 261 546 261 546 272 c 256,50,51
 546 283 546 283 534 292.5 c 128,-1,52
 522 302 522 302 500 309 c 128,-1,53
 478 316 478 316 449 320 c 128,-1,54
 420 324 420 324 385 324 c 0,55,56
 352 324 352 324 322.5 320 c 128,-1,57
 293 316 293 316 271 309 c 128,-1,58
 249 302 249 302 237 292.5 c 128,-1,59
 225 283 225 283 225 272 c 256,40,41
122 461 m 256,60,61
 122 478 122 478 142 493.5 c 128,-1,62
 162 509 162 509 198 520 c 128,-1,63
 234 531 234 531 282 537.5 c 128,-1,64
 330 544 330 544 385 544 c 0,65,66
 442 544 442 544 490 537.5 c 128,-1,67
 538 531 538 531 573.5 520 c 128,-1,68
 609 509 609 509 629.5 493.5 c 128,-1,69
 650 478 650 478 650 461 c 256,70,71
 650 444 650 444 629.5 429 c 128,-1,72
 609 414 609 414 573.5 402.5 c 128,-1,73
 538 391 538 391 490 384.5 c 128,-1,74
 442 378 442 378 385 378 c 0,75,76
 330 378 330 378 282 384.5 c 128,-1,77
 234 391 234 391 198 402.5 c 128,-1,78
 162 414 162 414 142 429 c 128,-1,79
 122 444 122 444 122 461 c 256,60,61
225 461 m 256,80,81
 225 450 225 450 237 440.5 c 128,-1,82
 249 431 249 431 271 424 c 128,-1,83
 293 417 293 417 322.5 413 c 128,-1,84
 352 409 352 409 385 409 c 0,85,86
 420 409 420 409 449 413 c 128,-1,87
 478 417 478 417 500 424 c 128,-1,88
 522 431 522 431 534 440.5 c 128,-1,89
 546 450 546 450 546 461 c 256,90,91
 546 472 546 472 534 481.5 c 128,-1,92
 522 491 522 491 500 498 c 128,-1,93
 478 505 478 505 449 509 c 128,-1,94
 420 513 420 513 385 513 c 0,95,96
 352 513 352 513 322.5 509 c 128,-1,97
 293 505 293 505 271 498 c 128,-1,98
 249 491 249 491 237 481.5 c 128,-1,99
 225 472 225 472 225 461 c 256,80,81
122 648 m 256,100,101
 122 665 122 665 142 680.5 c 128,-1,102
 162 696 162 696 198 707 c 128,-1,103
 234 718 234 718 282 724.5 c 128,-1,104
 330 731 330 731 385 731 c 0,105,106
 442 731 442 731 490 724.5 c 128,-1,107
 538 718 538 718 573.5 707 c 128,-1,108
 609 696 609 696 629.5 680.5 c 128,-1,109
 650 665 650 665 650 648 c 256,110,111
 650 631 650 631 629.5 616 c 128,-1,112
 609 601 609 601 573.5 589.5 c 128,-1,113
 538 578 538 578 490 571.5 c 128,-1,114
 442 565 442 565 385 565 c 0,115,116
 330 565 330 565 282 571.5 c 128,-1,117
 234 578 234 578 198 589.5 c 128,-1,118
 162 601 162 601 142 616 c 128,-1,119
 122 631 122 631 122 648 c 256,100,101
EndSplineSet
EndChar

StartChar: colon.deva
Encoding: 58 58 58
Width: 771
Flags: W
LayerCount: 2
Fore
SplineSet
387 410 m 0,0,1
 353 410 353 410 330 426 c 128,-1,2
 307 442 307 442 307 478 c 0,3,4
 307 516 307 516 330 531 c 128,-1,5
 353 546 353 546 387 546 c 0,6,7
 420 546 420 546 442.5 531 c 128,-1,8
 465 516 465 516 465 478 c 0,9,10
 465 442 465 442 442.5 426 c 128,-1,11
 420 410 420 410 387 410 c 0,0,1
385 -10 m 0,12,13
 352 -10 352 -10 329 6 c 128,-1,14
 306 22 306 22 306 58 c 0,15,16
 306 96 306 96 329 111 c 128,-1,17
 352 126 352 126 385 126 c 0,18,19
 419 126 419 126 441.5 111 c 128,-1,20
 464 96 464 96 464 58 c 0,21,22
 464 22 464 22 441.5 6 c 128,-1,23
 419 -10 419 -10 385 -10 c 0,12,13
EndSplineSet
EndChar

StartChar: semicolon.deva
Encoding: 59 59 59
Width: 771
Flags: W
LayerCount: 2
Fore
SplineSet
271 -140 m 1,0,1
 286 -96 286 -96 298.5 -48.5 c 128,-1,2
 311 -1 311 -1 322.5 45 c 128,-1,3
 334 91 334 91 341 129 c 1,4,-1
 478 129 l 1,5,-1
 489 117 l 1,6,7
 480 88 480 88 465.5 55.5 c 128,-1,8
 451 23 451 23 435 -10.5 c 128,-1,9
 419 -44 419 -44 402 -77 c 128,-1,10
 385 -110 385 -110 367 -140 c 1,11,-1
 271 -140 l 1,0,1
415 410 m 0,12,13
 382 410 382 410 359 426 c 128,-1,14
 336 442 336 442 336 478 c 0,15,16
 336 516 336 516 359 531 c 128,-1,17
 382 546 382 546 415 546 c 0,18,19
 449 546 449 546 472 531 c 128,-1,20
 495 516 495 516 495 478 c 0,21,22
 495 442 495 442 472 426 c 128,-1,23
 449 410 449 410 415 410 c 0,12,13
EndSplineSet
EndChar

StartChar: less.deva
Encoding: 60 60 60
Width: 771
Flags: W
LayerCount: 2
Fore
SplineSet
655 116 m 1,0,-1
 115 323 l 1,1,-1
 115 373 l 1,2,-1
 655 608 l 1,3,-1
 655 530 l 1,4,-1
 236 351 l 1,5,-1
 655 194 l 1,6,-1
 655 116 l 1,0,-1
EndSplineSet
EndChar

StartChar: equal.deva
Encoding: 61 61 61
Width: 771
Flags: W
LayerCount: 2
Fore
SplineSet
90 407 m 1,0,-1
 90 487 l 1,1,-1
 681 487 l 1,2,-1
 681 407 l 1,3,-1
 90 407 l 1,0,-1
90 217 m 1,4,-1
 90 297 l 1,5,-1
 681 297 l 1,6,-1
 681 217 l 1,7,-1
 90 217 l 1,4,-1
EndSplineSet
EndChar

StartChar: greater.deva
Encoding: 62 62 62
Width: 771
Flags: W
LayerCount: 2
Fore
SplineSet
115 116 m 1,0,-1
 115 194 l 1,1,-1
 534 351 l 1,2,-1
 115 530 l 1,3,-1
 115 608 l 1,4,-1
 655 373 l 1,5,-1
 655 323 l 1,6,-1
 115 116 l 1,0,-1
EndSplineSet
EndChar

StartChar: question.deva
Encoding: 63 63 63
Width: 771
Flags: W
LayerCount: 2
Fore
SplineSet
295 220 m 2,0,1
 295 258 295 258 306.5 286 c 128,-1,2
 318 314 318 314 347 339.5 c 128,-1,3
 376 365 376 365 425 392 c 0,4,5
 469 416 469 416 495 437 c 128,-1,6
 521 458 521 458 533.5 483 c 128,-1,7
 546 508 546 508 546 545 c 0,8,9
 546 589 546 589 504 617.5 c 128,-1,10
 462 646 462 646 383 646 c 0,11,12
 316 646 316 646 262.5 633.5 c 128,-1,13
 209 621 209 621 157 602 c 1,14,-1
 115 677 l 1,15,16
 168 695 168 695 229 709.5 c 128,-1,17
 290 724 290 724 376 724 c 256,18,19
 462 724 462 724 524.5 702.5 c 128,-1,20
 587 681 587 681 621 642 c 128,-1,21
 655 603 655 603 655 549 c 0,22,23
 655 502 655 502 639.5 468 c 128,-1,24
 624 434 624 434 592.5 406.5 c 128,-1,25
 561 379 561 379 511 350 c 256,26,27
 461 321 461 321 436 300.5 c 128,-1,28
 411 280 411 280 403.5 260 c 128,-1,29
 396 240 396 240 396 211 c 2,30,-1
 396 202 l 1,31,-1
 295 202 l 1,32,-1
 295 220 l 2,0,1
351 -10 m 0,33,34
 317 -10 317 -10 294 6 c 128,-1,35
 271 22 271 22 271 58 c 0,36,37
 271 96 271 96 294 111 c 128,-1,38
 317 126 317 126 351 126 c 0,39,40
 384 126 384 126 407 111 c 128,-1,41
 430 96 430 96 430 58 c 0,42,43
 430 22 430 22 407 6 c 128,-1,44
 384 -10 384 -10 351 -10 c 0,33,34
EndSplineSet
EndChar

StartChar: at
Encoding: 64 64 64
Width: 771
Flags: W
LayerCount: 2
Fore
SplineSet
416 -89 m 0,0,1
 288 -89 288 -89 199 -42 c 128,-1,2
 110 5 110 5 64.5 91.5 c 128,-1,3
 19 178 19 178 19 294 c 0,4,5
 19 386 19 386 44 463 c 128,-1,6
 69 540 69 540 118.5 596 c 128,-1,7
 168 652 168 652 241.5 683 c 128,-1,8
 315 714 315 714 410 714 c 0,9,10
 514 714 514 714 590.5 671 c 128,-1,11
 667 628 667 628 709 548 c 128,-1,12
 751 468 751 468 751 357 c 0,13,14
 751 311 751 311 743 267 c 128,-1,15
 735 223 735 223 717.5 187 c 128,-1,16
 700 151 700 151 671 129.5 c 128,-1,17
 642 108 642 108 600 108 c 0,18,19
 556 108 556 108 531.5 135 c 128,-1,20
 507 162 507 162 501 196 c 1,21,-1
 498 196 l 1,22,23
 480 159 480 159 444 133.5 c 128,-1,24
 408 108 408 108 354 108 c 0,25,26
 276 108 276 108 233.5 160 c 128,-1,27
 191 212 191 212 191 296 c 0,28,29
 191 362 191 362 218 412.5 c 128,-1,30
 245 463 245 463 294.5 491.5 c 128,-1,31
 344 520 344 520 412 520 c 0,32,33
 458 520 458 520 503 512.5 c 128,-1,34
 548 505 548 505 573 497 c 1,35,-1
 559 294 l 2,36,37
 557 286 557 286 557 275.5 c 128,-1,38
 557 265 557 265 557 257 c 0,39,40
 557 205 557 205 571.5 188 c 128,-1,41
 586 171 586 171 602 171 c 0,42,43
 626 171 626 171 640 196.5 c 128,-1,44
 654 222 654 222 659.5 264.5 c 128,-1,45
 665 307 665 307 665 358 c 0,46,47
 665 497 665 497 594 572.5 c 128,-1,48
 523 648 523 648 408 648 c 0,49,50
 311 648 311 648 243.5 604 c 128,-1,51
 176 560 176 560 142 481.5 c 128,-1,52
 108 403 108 403 108 297 c 0,53,54
 108 199 108 199 142.5 127 c 128,-1,55
 177 55 177 55 246.5 16.5 c 128,-1,56
 316 -22 316 -22 420 -22 c 0,57,58
 484 -22 484 -22 538 -11 c 128,-1,59
 592 0 592 0 637 16 c 1,60,-1
 637 -49 l 1,61,62
 591 -67 591 -67 538 -78 c 128,-1,63
 485 -89 485 -89 416 -89 c 0,0,1
371 171 m 0,64,65
 419 171 419 171 438 213.5 c 128,-1,66
 457 256 457 256 462 323 c 2,67,-1
 471 447 l 1,68,69
 458 451 458 451 441.5 454 c 128,-1,70
 425 457 425 457 407 457 c 0,71,72
 365 457 365 457 340 433 c 128,-1,73
 315 409 315 409 303 372 c 128,-1,74
 291 335 291 335 291 294 c 0,75,76
 291 229 291 229 313 200 c 128,-1,77
 335 171 335 171 371 171 c 0,64,65
EndSplineSet
EndChar

StartChar: A
Encoding: 65 65 65
Width: 771
Flags: W
LayerCount: 2
Fore
SplineSet
675 473 m 1,0,-1
 675 1 l 1,1,-1
 594 1 l 1,2,-1
 594 473 l 1,3,-1
 521 473 l 1,4,-1
 521 544 l 1,5,-1
 727 544 l 1,6,-1
 727 473 l 1,7,-1
 675 473 l 1,0,-1
298 554 m 0,8,9
 376 554 376 554 417.5 515 c 128,-1,10
 459 476 459 476 459 417 c 0,11,12
 459 374 459 374 436.5 339.5 c 128,-1,13
 414 305 414 305 370 285 c 128,-1,14
 326 265 326 265 260 263 c 1,15,-1
 255 333 l 1,16,17
 323 335 323 335 351.5 357 c 128,-1,18
 380 379 380 379 380 416 c 0,19,20
 380 452 380 452 356.5 468 c 128,-1,21
 333 484 333 484 302 484 c 0,22,23
 265 484 265 484 235 474 c 128,-1,24
 205 464 205 464 171 447 c 1,25,-1
 146 516 l 1,26,27
 172 530 172 530 210.5 542 c 128,-1,28
 249 554 249 554 298 554 c 0,8,9
470 140 m 0,29,30
 470 94 470 94 449 63 c 128,-1,31
 428 32 428 32 392.5 17 c 128,-1,32
 357 2 357 2 312 2 c 0,33,34
 255 2 255 2 206.5 30 c 128,-1,35
 158 58 158 58 114.5 119 c 128,-1,36
 71 180 71 180 29 278 c 1,37,-1
 100 304 l 1,38,39
 129 233 129 233 160.5 181.5 c 128,-1,40
 192 130 192 130 228 102.5 c 128,-1,41
 264 75 264 75 305 75 c 0,42,43
 343 75 343 75 367 92.5 c 128,-1,44
 391 110 391 110 391 149 c 0,45,46
 391 197 391 197 358 232 c 128,-1,47
 325 267 325 267 278 296 c 1,48,-1
 337 299 l 1,49,-1
 380 308 l 1,50,51
 394 296 394 296 411 279 c 128,-1,52
 428 262 428 262 438 245 c 1,53,-1
 443 226 l 1,54,55
 456 207 456 207 463 186 c 128,-1,56
 470 165 470 165 470 140 c 0,29,30
486 272 m 0,57,58
 534 272 534 272 569 279.5 c 128,-1,59
 604 287 604 287 651 304 c 1,60,-1
 651 232 l 1,61,62
 608 213 608 213 573.5 207 c 128,-1,63
 539 201 539 201 498 201 c 0,64,65
 483 201 483 201 463 203.5 c 128,-1,66
 443 206 443 206 425.5 209.5 c 128,-1,67
 408 213 408 213 400 216 c 1,68,-1
 353 272 l 1,69,-1
 359 287 l 1,70,71
 388 280 388 280 420 276 c 128,-1,72
 452 272 452 272 486 272 c 0,57,58
EndSplineSet
EndChar

StartChar: B
Encoding: 66 66 66
Width: 771
Flags: W
LayerCount: 2
Fore
SplineSet
153 0 m 1,0,-1
 153 572 l 1,1,-1
 379 572 l 2,2,3
 478 572 478 572 540 555.5 c 128,-1,4
 602 539 602 539 631.5 507 c 128,-1,5
 661 475 661 475 661 427 c 0,6,7
 661 393 661 393 643.5 367 c 128,-1,8
 626 341 626 341 594.5 324.5 c 128,-1,9
 563 308 563 308 521 302 c 1,10,-1
 521 299 l 1,11,12
 568 293 568 293 603 277.5 c 128,-1,13
 638 262 638 262 657 234.5 c 128,-1,14
 676 207 676 207 676 165 c 0,15,16
 676 83 676 83 602 41.5 c 128,-1,17
 528 0 528 0 406 0 c 2,18,-1
 153 0 l 1,0,-1
401 69 m 2,19,20
 483 69 483 69 522.5 95 c 128,-1,21
 562 121 562 121 562 170 c 0,22,23
 562 214 562 214 521 239 c 128,-1,24
 480 264 480 264 392 264 c 2,25,-1
 265 264 l 1,26,-1
 265 69 l 1,27,-1
 401 69 l 2,19,20
390 328 m 2,28,29
 473 328 473 328 509 350.5 c 128,-1,30
 545 373 545 373 545 417 c 256,31,32
 545 461 545 461 504 482 c 128,-1,33
 463 503 463 503 379 503 c 2,34,-1
 265 503 l 1,35,-1
 265 328 l 1,36,-1
 390 328 l 2,28,29
EndSplineSet
EndChar

StartChar: C
Encoding: 67 67 67
Width: 771
Flags: W
LayerCount: 2
Fore
SplineSet
450 -8 m 0,0,1
 336 -8 336 -8 260 29 c 128,-1,2
 184 66 184 66 146 132.5 c 128,-1,3
 108 199 108 199 108 287 c 0,4,5
 108 373 108 373 151.5 439 c 128,-1,6
 195 505 195 505 275 542.5 c 128,-1,7
 355 580 355 580 466 580 c 0,8,9
 521 580 521 580 574.5 571 c 128,-1,10
 628 562 628 562 675 544 c 1,11,-1
 638 473 l 1,12,13
 598 488 598 488 555.5 497 c 128,-1,14
 513 506 513 506 468 506 c 0,15,16
 391 506 391 506 337 479 c 128,-1,17
 283 452 283 452 255 402.5 c 128,-1,18
 227 353 227 353 227 286 c 0,19,20
 227 183 227 183 286.5 124.5 c 128,-1,21
 346 66 346 66 467 66 c 0,22,23
 514 66 514 66 558.5 73.5 c 128,-1,24
 603 81 603 81 646 94 c 1,25,-1
 646 17 l 1,26,27
 604 4 604 4 555.5 -2 c 128,-1,28
 507 -8 507 -8 450 -8 c 0,0,1
EndSplineSet
EndChar

StartChar: D
Encoding: 68 68 68
Width: 771
Flags: W
LayerCount: 2
Fore
SplineSet
563 -58 m 1,0,1
 542 -32 542 -32 523 -5 c 128,-1,2
 504 22 504 22 488 46 c 0,3,4
 472 73 472 73 463 89 c 2,5,-1
 445 121 l 2,6,7
 433 141 433 141 431 147 c 0,8,9
 425 165 425 165 425 176 c 0,10,11
 425 211 425 211 452 225.5 c 128,-1,12
 479 240 479 240 511 240 c 0,13,14
 567 240 567 240 595.5 215.5 c 128,-1,15
 624 191 624 191 624 162 c 0,16,17
 624 135 624 135 611.5 118.5 c 128,-1,18
 599 102 599 102 577 93 c 0,19,20
 546 80 546 80 528 79 c 2,21,-1
 496 77 l 2,22,23
 479 73 479 73 454 70.5 c 128,-1,24
 429 68 429 68 401 68 c 0,25,26
 347 68 347 68 292.5 78.5 c 128,-1,27
 238 89 238 89 192 112.5 c 128,-1,28
 146 136 146 136 118.5 175.5 c 128,-1,29
 91 215 91 215 91 272 c 0,30,31
 91 316 91 316 111 347.5 c 128,-1,32
 131 379 131 379 163 401 c 0,33,34
 206 430 206 430 267.5 443 c 128,-1,35
 329 456 329 456 405 456 c 2,36,-1
 457 456 l 1,37,-1
 411 420 l 1,38,-1
 411 537 l 5,39,-1
 515 537 l 1,40,-1
 515 385 l 1,41,-1
 452 385 l 2,42,43
 378 385 378 385 332 378 c 128,-1,44
 286 371 286 371 254 355 c 0,45,46
 226 340 226 340 210 317 c 128,-1,47
 194 294 194 294 194 262 c 0,48,49
 194 209 194 209 244.5 174.5 c 128,-1,50
 295 140 295 140 401 140 c 0,51,52
 416 140 416 140 433 141 c 128,-1,53
 450 142 450 142 486 148 c 1,54,-1
 547 104 l 1,55,56
 565 75 565 75 587.5 46 c 128,-1,57
 610 17 610 17 649 -24 c 1,58,-1
 563 -58 l 1,0,1
EndSplineSet
EndChar

StartChar: E
Encoding: 69 69 69
Width: 771
Flags: W
LayerCount: 2
Fore
SplineSet
419 -10 m 0,0,1
 271 -10 271 -10 200 34.5 c 128,-1,2
 129 79 129 79 129 146 c 0,3,4
 129 186 129 186 150.5 211.5 c 128,-1,5
 172 237 172 237 206.5 252.5 c 128,-1,6
 241 268 241 268 282 277 c 1,7,-1
 282 282 l 1,8,9
 244 291 244 291 215 307 c 128,-1,10
 186 323 186 323 170 347.5 c 128,-1,11
 154 372 154 372 154 404 c 0,12,13
 154 449 154 449 188 481 c 128,-1,14
 222 513 222 513 281.5 529.5 c 128,-1,15
 341 546 341 546 419 546 c 0,16,17
 493 546 493 546 546.5 536 c 128,-1,18
 600 526 600 526 651 508 c 1,19,-1
 609 438 l 1,20,21
 566 453 566 453 522 463 c 128,-1,22
 478 473 478 473 417 473 c 0,23,24
 340 473 340 473 301 454 c 128,-1,25
 262 435 262 435 262 397 c 0,26,27
 262 353 262 353 315 334 c 128,-1,28
 368 315 368 315 458 315 c 2,29,-1
 530 315 l 1,30,-1
 530 243 l 1,31,-1
 437 243 l 2,32,33
 339 243 339 243 290.5 220 c 128,-1,34
 242 197 242 197 242 151 c 0,35,36
 242 118 242 118 266.5 98.5 c 128,-1,37
 291 79 291 79 332.5 70.5 c 128,-1,38
 374 62 374 62 425 62 c 0,39,40
 497 62 497 62 551.5 75 c 128,-1,41
 606 88 606 88 649 104 c 1,42,-1
 649 27 l 1,43,44
 609 11 609 11 553.5 0.5 c 128,-1,45
 498 -10 498 -10 419 -10 c 0,0,1
EndSplineSet
EndChar

StartChar: F
Encoding: 70 70 70
Width: 771
Flags: W
LayerCount: 2
Fore
SplineSet
122 85 m 0,0,1
 122 103 122 103 142 118 c 128,-1,2
 162 133 162 133 198 144.5 c 128,-1,3
 234 156 234 156 282 162.5 c 128,-1,4
 330 169 330 169 385 169 c 0,5,6
 442 169 442 169 490 162.5 c 128,-1,7
 538 156 538 156 573.5 144.5 c 128,-1,8
 609 133 609 133 629.5 118 c 128,-1,9
 650 103 650 103 650 85 c 0,10,11
 650 68 650 68 629.5 53 c 128,-1,12
 609 38 609 38 573.5 27 c 128,-1,13
 538 16 538 16 490 9.5 c 128,-1,14
 442 3 442 3 385 3 c 0,15,16
 330 3 330 3 282 9.5 c 128,-1,17
 234 16 234 16 198 27 c 128,-1,18
 162 38 162 38 142 53 c 128,-1,19
 122 68 122 68 122 85 c 0,0,1
122 272 m 0,20,21
 122 290 122 290 142 305 c 128,-1,22
 162 320 162 320 198 331.5 c 128,-1,23
 234 343 234 343 282 349 c 128,-1,24
 330 355 330 355 385 355 c 0,25,26
 442 355 442 355 490 349 c 128,-1,27
 538 343 538 343 573.5 331.5 c 128,-1,28
 609 320 609 320 629.5 305 c 128,-1,29
 650 290 650 290 650 272 c 0,30,31
 650 255 650 255 629.5 240 c 128,-1,32
 609 225 609 225 573.5 214 c 128,-1,33
 538 203 538 203 490 196 c 128,-1,34
 442 189 442 189 385 189 c 0,35,36
 330 189 330 189 282 196 c 128,-1,37
 234 203 234 203 198 214 c 128,-1,38
 162 225 162 225 142 240 c 128,-1,39
 122 255 122 255 122 272 c 0,20,21
122 461 m 256,40,41
 122 478 122 478 142 493.5 c 128,-1,42
 162 509 162 509 198 520 c 128,-1,43
 234 531 234 531 282 537.5 c 128,-1,44
 330 544 330 544 385 544 c 0,45,46
 442 544 442 544 490 537.5 c 128,-1,47
 538 531 538 531 573.5 520 c 128,-1,48
 609 509 609 509 629.5 493.5 c 128,-1,49
 650 478 650 478 650 461 c 256,50,51
 650 444 650 444 629.5 429 c 128,-1,52
 609 414 609 414 573.5 402.5 c 128,-1,53
 538 391 538 391 490 384.5 c 128,-1,54
 442 378 442 378 385 378 c 0,55,56
 330 378 330 378 282 384.5 c 128,-1,57
 234 391 234 391 198 402.5 c 128,-1,58
 162 414 162 414 142 429 c 128,-1,59
 122 444 122 444 122 461 c 256,40,41
122 648 m 256,60,61
 122 665 122 665 142 680.5 c 128,-1,62
 162 696 162 696 198 707 c 128,-1,63
 234 718 234 718 282 724.5 c 128,-1,64
 330 731 330 731 385 731 c 0,65,66
 442 731 442 731 490 724.5 c 128,-1,67
 538 718 538 718 573.5 707 c 128,-1,68
 609 696 609 696 629.5 680.5 c 128,-1,69
 650 665 650 665 650 648 c 256,70,71
 650 631 650 631 629.5 616 c 128,-1,72
 609 601 609 601 573.5 589.5 c 128,-1,73
 538 578 538 578 490 571.5 c 128,-1,74
 442 565 442 565 385 565 c 0,75,76
 330 565 330 565 282 571.5 c 128,-1,77
 234 578 234 578 198 589.5 c 128,-1,78
 162 601 162 601 142 616 c 128,-1,79
 122 631 122 631 122 648 c 256,60,61
EndSplineSet
EndChar

StartChar: G
Encoding: 71 71 71
Width: 771
Flags: W
LayerCount: 2
Fore
SplineSet
433 -8 m 0,0,1
 256 -8 256 -8 159.5 66.5 c 128,-1,2
 63 141 63 141 63 278 c 0,3,4
 63 370 63 370 107 438 c 128,-1,5
 151 506 151 506 237 544 c 128,-1,6
 323 582 323 582 450 582 c 0,7,8
 510 582 510 582 568.5 573 c 128,-1,9
 627 564 627 564 675 547 c 1,10,-1
 636 476 l 1,11,12
 591 493 591 493 544 501 c 128,-1,13
 497 509 497 509 450 509 c 0,14,15
 361 509 361 509 301.5 481 c 128,-1,16
 242 453 242 453 211 402 c 128,-1,17
 180 351 180 351 180 281 c 0,18,19
 180 177 180 177 247 121 c 128,-1,20
 314 65 314 65 442 65 c 0,21,22
 479 65 479 65 515 69.5 c 128,-1,23
 551 74 551 74 578 81 c 1,24,-1
 578 235 l 1,25,-1
 393 235 l 1,26,-1
 393 306 l 1,27,-1
 686 306 l 1,28,-1
 686 27 l 1,29,30
 635 11 635 11 567 1.5 c 128,-1,31
 499 -8 499 -8 433 -8 c 0,0,1
EndSplineSet
EndChar

StartChar: H
Encoding: 72 72 72
Width: 771
Flags: W
LayerCount: 2
Fore
SplineSet
214 336 m 5,0,1
 182 354 182 354 154.5 384.5 c 132,-1,2
 127 415 127 415 127 459 c 4,3,4
 127 487 127 487 140 507 c 132,-1,5
 153 527 153 527 174 540 c 4,6,7
 194 552 194 552 217 559 c 132,-1,8
 240 566 240 566 269 569 c 132,-1,9
 298 572 298 572 332 572 c 6,10,-1
 502 572 l 5,11,-1
 606 501 l 5,12,-1
 334 501 l 6,13,14
 294 501 294 501 277 498 c 132,-1,15
 260 495 260 495 249 488 c 4,16,17
 240 482 240 482 235 473.5 c 132,-1,18
 230 465 230 465 230 454 c 4,19,20
 230 430 230 430 248.5 412 c 132,-1,21
 267 394 267 394 291 381 c 5,22,-1
 214 336 l 5,0,1
451 176 m 5,23,24
 497 187 497 187 526.5 205 c 132,-1,25
 556 223 556 223 556 255 c 4,26,27
 556 293 556 293 519 314.5 c 132,-1,28
 482 336 482 336 398 336 c 4,29,30
 309 336 309 336 262.5 307.5 c 132,-1,31
 216 279 216 279 216 231 c 4,32,33
 216 208 216 208 223.5 186.5 c 132,-1,34
 231 165 231 165 253 141 c 132,-1,35
 275 117 275 117 316.5 87 c 132,-1,36
 358 57 358 57 426 18 c 5,37,-1
 357 -35 l 5,38,39
 278 13 278 13 223.5 55.5 c 132,-1,40
 169 98 169 98 141 142 c 132,-1,41
 113 186 113 186 113 237 c 4,42,43
 113 293 113 293 154.5 331 c 132,-1,44
 196 369 196 369 262.5 388 c 132,-1,45
 329 407 329 407 403 407 c 4,46,47
 492 407 492 407 548 386 c 132,-1,48
 604 365 604 365 630 331.5 c 132,-1,49
 656 298 656 298 656 260 c 4,50,51
 656 202 656 202 612.5 164 c 132,-1,52
 569 126 569 126 485 109 c 5,53,-1
 451 176 l 5,23,24
EndSplineSet
EndChar

StartChar: I
Encoding: 73 73 73
Width: 771
Flags: W
LayerCount: 2
Fore
SplineSet
154 0 m 1,0,-1
 154 62 l 1,1,-1
 326 75 l 1,2,-1
 326 497 l 1,3,-1
 154 510 l 1,4,-1
 154 572 l 1,5,-1
 617 572 l 1,6,-1
 617 510 l 1,7,-1
 442 497 l 1,8,-1
 442 75 l 1,9,-1
 617 62 l 1,10,-1
 617 0 l 1,11,-1
 154 0 l 1,0,-1
EndSplineSet
EndChar

StartChar: J
Encoding: 74 74 74
Width: 771
Flags: W
LayerCount: 2
Fore
SplineSet
122 85 m 0,0,1
 122 103 122 103 142 118 c 128,-1,2
 162 133 162 133 198 144.5 c 128,-1,3
 234 156 234 156 282 162.5 c 128,-1,4
 330 169 330 169 385 169 c 0,5,6
 442 169 442 169 490 162.5 c 128,-1,7
 538 156 538 156 573.5 144.5 c 128,-1,8
 609 133 609 133 629.5 118 c 128,-1,9
 650 103 650 103 650 85 c 0,10,11
 650 68 650 68 629.5 53 c 128,-1,12
 609 38 609 38 573.5 27 c 128,-1,13
 538 16 538 16 490 9.5 c 128,-1,14
 442 3 442 3 385 3 c 0,15,16
 330 3 330 3 282 9.5 c 128,-1,17
 234 16 234 16 198 27 c 128,-1,18
 162 38 162 38 142 53 c 128,-1,19
 122 68 122 68 122 85 c 0,0,1
122 272 m 0,20,21
 122 290 122 290 142 305 c 128,-1,22
 162 320 162 320 198 331.5 c 128,-1,23
 234 343 234 343 282 349 c 128,-1,24
 330 355 330 355 385 355 c 0,25,26
 442 355 442 355 490 349 c 128,-1,27
 538 343 538 343 573.5 331.5 c 128,-1,28
 609 320 609 320 629.5 305 c 128,-1,29
 650 290 650 290 650 272 c 0,30,31
 650 255 650 255 629.5 240 c 128,-1,32
 609 225 609 225 573.5 214 c 128,-1,33
 538 203 538 203 490 196 c 128,-1,34
 442 189 442 189 385 189 c 0,35,36
 330 189 330 189 282 196 c 128,-1,37
 234 203 234 203 198 214 c 128,-1,38
 162 225 162 225 142 240 c 128,-1,39
 122 255 122 255 122 272 c 0,20,21
122 461 m 256,40,41
 122 478 122 478 142 493.5 c 128,-1,42
 162 509 162 509 198 520 c 128,-1,43
 234 531 234 531 282 537.5 c 128,-1,44
 330 544 330 544 385 544 c 0,45,46
 442 544 442 544 490 537.5 c 128,-1,47
 538 531 538 531 573.5 520 c 128,-1,48
 609 509 609 509 629.5 493.5 c 128,-1,49
 650 478 650 478 650 461 c 256,50,51
 650 444 650 444 629.5 429 c 128,-1,52
 609 414 609 414 573.5 402.5 c 128,-1,53
 538 391 538 391 490 384.5 c 128,-1,54
 442 378 442 378 385 378 c 0,55,56
 330 378 330 378 282 384.5 c 128,-1,57
 234 391 234 391 198 402.5 c 128,-1,58
 162 414 162 414 142 429 c 128,-1,59
 122 444 122 444 122 461 c 256,40,41
225 461 m 256,60,61
 225 450 225 450 237 440.5 c 128,-1,62
 249 431 249 431 271 424 c 128,-1,63
 293 417 293 417 322.5 413 c 128,-1,64
 352 409 352 409 385 409 c 0,65,66
 420 409 420 409 449 413 c 128,-1,67
 478 417 478 417 500 424 c 128,-1,68
 522 431 522 431 534 440.5 c 128,-1,69
 546 450 546 450 546 461 c 256,70,71
 546 472 546 472 534 481.5 c 128,-1,72
 522 491 522 491 500 498 c 128,-1,73
 478 505 478 505 449 509 c 128,-1,74
 420 513 420 513 385 513 c 0,75,76
 352 513 352 513 322.5 509 c 128,-1,77
 293 505 293 505 271 498 c 128,-1,78
 249 491 249 491 237 481.5 c 128,-1,79
 225 472 225 472 225 461 c 256,60,61
122 648 m 256,80,81
 122 665 122 665 142 680.5 c 128,-1,82
 162 696 162 696 198 707 c 128,-1,83
 234 718 234 718 282 724.5 c 128,-1,84
 330 731 330 731 385 731 c 0,85,86
 442 731 442 731 490 724.5 c 128,-1,87
 538 718 538 718 573.5 707 c 128,-1,88
 609 696 609 696 629.5 680.5 c 128,-1,89
 650 665 650 665 650 648 c 256,90,91
 650 631 650 631 629.5 616 c 128,-1,92
 609 601 609 601 573.5 589.5 c 128,-1,93
 538 578 538 578 490 571.5 c 128,-1,94
 442 565 442 565 385 565 c 0,95,96
 330 565 330 565 282 571.5 c 128,-1,97
 234 578 234 578 198 589.5 c 128,-1,98
 162 601 162 601 142 616 c 128,-1,99
 122 631 122 631 122 648 c 256,80,81
EndSplineSet
EndChar

StartChar: K
Encoding: 75 75 75
Width: 771
Flags: W
LayerCount: 2
Fore
SplineSet
191 0 m 1,0,-1
 191 536 l 1,1,-1
 304 536 l 1,2,-1
 304 313 l 1,3,-1
 639 313 l 1,4,-1
 639 239 l 1,5,-1
 304 239 l 1,6,-1
 304 0 l 1,7,-1
 191 0 l 1,0,-1
EndSplineSet
EndChar

StartChar: L
Encoding: 76 76 76
Width: 771
Flags: W
LayerCount: 2
Fore
SplineSet
122 85 m 0,0,1
 122 103 122 103 142 118 c 128,-1,2
 162 133 162 133 198 144.5 c 128,-1,3
 234 156 234 156 282 162.5 c 128,-1,4
 330 169 330 169 385 169 c 0,5,6
 442 169 442 169 490 162.5 c 128,-1,7
 538 156 538 156 573.5 144.5 c 128,-1,8
 609 133 609 133 629.5 118 c 128,-1,9
 650 103 650 103 650 85 c 0,10,11
 650 68 650 68 629.5 53 c 128,-1,12
 609 38 609 38 573.5 27 c 128,-1,13
 538 16 538 16 490 9.5 c 128,-1,14
 442 3 442 3 385 3 c 0,15,16
 330 3 330 3 282 9.5 c 128,-1,17
 234 16 234 16 198 27 c 128,-1,18
 162 38 162 38 142 53 c 128,-1,19
 122 68 122 68 122 85 c 0,0,1
225 85 m 256,20,21
 225 74 225 74 237 64.5 c 128,-1,22
 249 55 249 55 271 48.5 c 128,-1,23
 293 42 293 42 322.5 38 c 128,-1,24
 352 34 352 34 385 34 c 0,25,26
 420 34 420 34 449 38 c 128,-1,27
 478 42 478 42 500 48.5 c 128,-1,28
 522 55 522 55 534 64.5 c 128,-1,29
 546 74 546 74 546 85 c 256,30,31
 546 96 546 96 534 105.5 c 128,-1,32
 522 115 522 115 500 122 c 128,-1,33
 478 129 478 129 449 133 c 128,-1,34
 420 137 420 137 385 137 c 0,35,36
 352 137 352 137 322.5 133 c 128,-1,37
 293 129 293 129 271 122 c 128,-1,38
 249 115 249 115 237 105.5 c 128,-1,39
 225 96 225 96 225 85 c 256,20,21
122 272 m 0,40,41
 122 290 122 290 142 305 c 128,-1,42
 162 320 162 320 198 331.5 c 128,-1,43
 234 343 234 343 282 349 c 128,-1,44
 330 355 330 355 385 355 c 0,45,46
 442 355 442 355 490 349 c 128,-1,47
 538 343 538 343 573.5 331.5 c 128,-1,48
 609 320 609 320 629.5 305 c 128,-1,49
 650 290 650 290 650 272 c 0,50,51
 650 255 650 255 629.5 240 c 128,-1,52
 609 225 609 225 573.5 214 c 128,-1,53
 538 203 538 203 490 196 c 128,-1,54
 442 189 442 189 385 189 c 0,55,56
 330 189 330 189 282 196 c 128,-1,57
 234 203 234 203 198 214 c 128,-1,58
 162 225 162 225 142 240 c 128,-1,59
 122 255 122 255 122 272 c 0,40,41
122 461 m 256,60,61
 122 478 122 478 142 493.5 c 128,-1,62
 162 509 162 509 198 520 c 128,-1,63
 234 531 234 531 282 537.5 c 128,-1,64
 330 544 330 544 385 544 c 0,65,66
 442 544 442 544 490 537.5 c 128,-1,67
 538 531 538 531 573.5 520 c 128,-1,68
 609 509 609 509 629.5 493.5 c 128,-1,69
 650 478 650 478 650 461 c 256,70,71
 650 444 650 444 629.5 429 c 128,-1,72
 609 414 609 414 573.5 402.5 c 128,-1,73
 538 391 538 391 490 384.5 c 128,-1,74
 442 378 442 378 385 378 c 0,75,76
 330 378 330 378 282 384.5 c 128,-1,77
 234 391 234 391 198 402.5 c 128,-1,78
 162 414 162 414 142 429 c 128,-1,79
 122 444 122 444 122 461 c 256,60,61
225 461 m 256,80,81
 225 450 225 450 237 440.5 c 128,-1,82
 249 431 249 431 271 424 c 128,-1,83
 293 417 293 417 322.5 413 c 128,-1,84
 352 409 352 409 385 409 c 0,85,86
 420 409 420 409 449 413 c 128,-1,87
 478 417 478 417 500 424 c 128,-1,88
 522 431 522 431 534 440.5 c 128,-1,89
 546 450 546 450 546 461 c 256,90,91
 546 472 546 472 534 481.5 c 128,-1,92
 522 491 522 491 500 498 c 128,-1,93
 478 505 478 505 449 509 c 128,-1,94
 420 513 420 513 385 513 c 0,95,96
 352 513 352 513 322.5 509 c 128,-1,97
 293 505 293 505 271 498 c 128,-1,98
 249 491 249 491 237 481.5 c 128,-1,99
 225 472 225 472 225 461 c 256,80,81
122 648 m 256,100,101
 122 665 122 665 142 680.5 c 128,-1,102
 162 696 162 696 198 707 c 128,-1,103
 234 718 234 718 282 724.5 c 128,-1,104
 330 731 330 731 385 731 c 0,105,106
 442 731 442 731 490 724.5 c 128,-1,107
 538 718 538 718 573.5 707 c 128,-1,108
 609 696 609 696 629.5 680.5 c 128,-1,109
 650 665 650 665 650 648 c 256,110,111
 650 631 650 631 629.5 616 c 128,-1,112
 609 601 609 601 573.5 589.5 c 128,-1,113
 538 578 538 578 490 571.5 c 128,-1,114
 442 565 442 565 385 565 c 0,115,116
 330 565 330 565 282 571.5 c 128,-1,117
 234 578 234 578 198 589.5 c 128,-1,118
 162 601 162 601 142 616 c 128,-1,119
 122 631 122 631 122 648 c 256,100,101
EndSplineSet
EndChar

StartChar: M
Encoding: 77 77 77
Width: 771
Flags: W
LayerCount: 2
Fore
SplineSet
730 531 m 1,0,-1
 730 1 l 1,1,-1
 635 1 l 1,2,-1
 635 339 l 2,3,4
 635 360 635 360 637 383 c 128,-1,5
 639 406 639 406 641 427 c 1,6,-1
 638 427 l 1,7,-1
 428 1 l 1,8,-1
 340 1 l 1,9,-1
 137 427 l 1,10,-1
 133 427 l 1,11,12
 137 383 137 383 137 336 c 2,13,-1
 137 1 l 1,14,-1
 42 1 l 1,15,-1
 42 531 l 1,16,-1
 182 531 l 1,17,-1
 384 105 l 1,18,-1
 590 531 l 1,19,-1
 730 531 l 1,0,-1
EndSplineSet
EndChar

StartChar: N
Encoding: 78 78 78
Width: 771
Flags: W
LayerCount: 2
Fore
SplineSet
78 0 m 1,0,-1
 78 536 l 1,1,-1
 217 536 l 1,2,-1
 573 104 l 1,3,4
 572 118 572 118 570 142 c 128,-1,5
 568 166 568 166 566.5 190 c 128,-1,6
 565 214 565 214 565 226 c 2,7,-1
 565 536 l 1,8,-1
 672 536 l 1,9,-1
 672 0 l 1,10,-1
 532 0 l 1,11,-1
 180 431 l 1,12,13
 181 418 181 418 182.5 392.5 c 128,-1,14
 184 367 184 367 184.5 341 c 128,-1,15
 185 315 185 315 185 299 c 2,16,-1
 185 0 l 1,17,-1
 78 0 l 1,0,-1
EndSplineSet
EndChar

StartChar: O
Encoding: 79 79 79
Width: 771
Flags: W
LayerCount: 2
Fore
SplineSet
123 253 m 1,0,-1
 123 335 l 1,1,-1
 655 335 l 1,2,-1
 655 253 l 1,3,-1
 123 253 l 1,0,-1
386 0 m 0,4,5
 320 0 320 0 263 17.5 c 128,-1,6
 206 35 206 35 163.5 71.5 c 128,-1,7
 121 108 121 108 97 163 c 128,-1,8
 73 218 73 218 73 292 c 0,9,10
 73 389 73 389 113.5 453 c 128,-1,11
 154 517 154 517 224 548.5 c 128,-1,12
 294 580 294 580 383 580 c 256,13,14
 472 580 472 580 543 548.5 c 128,-1,15
 614 517 614 517 655.5 452.5 c 128,-1,16
 697 388 697 388 697 289 c 0,17,18
 697 216 697 216 673.5 161.5 c 128,-1,19
 650 107 650 107 608.5 71 c 128,-1,20
 567 35 567 35 510.5 17.5 c 128,-1,21
 454 0 454 0 386 0 c 0,4,5
385 76 m 256,22,23
 451 76 451 76 494.5 102 c 128,-1,24
 538 128 538 128 559.5 176.5 c 128,-1,25
 581 225 581 225 581 291 c 0,26,27
 581 358 581 358 559.5 405.5 c 128,-1,28
 538 453 538 453 494 478.5 c 128,-1,29
 450 504 450 504 384 504 c 0,30,31
 285 504 285 504 236 447 c 128,-1,32
 187 390 187 390 187 291 c 0,33,34
 187 225 187 225 209 176.5 c 128,-1,35
 231 128 231 128 275 102 c 128,-1,36
 319 76 319 76 385 76 c 256,22,23
EndSplineSet
EndChar

StartChar: P
Encoding: 80 80 80
Width: 771
Flags: W
LayerCount: 2
Fore
SplineSet
165 0 m 1,0,-1
 165 572 l 1,1,-1
 377 572 l 2,2,3
 515 572 515 572 583 528 c 128,-1,4
 651 484 651 484 651 400 c 0,5,6
 651 344 651 344 619 302.5 c 128,-1,7
 587 261 587 261 524 239 c 128,-1,8
 461 217 461 217 368 217 c 2,9,-1
 277 217 l 1,10,-1
 277 0 l 1,11,-1
 165 0 l 1,0,-1
357 288 m 2,12,13
 440 288 440 288 488.5 311 c 128,-1,14
 537 334 537 334 537 395 c 0,15,16
 537 448 537 448 497 474.5 c 128,-1,17
 457 501 457 501 374 501 c 2,18,-1
 277 501 l 1,19,-1
 277 288 l 1,20,-1
 357 288 l 2,12,13
EndSplineSet
EndChar

StartChar: Q
Encoding: 81 81 81
Width: 771
Flags: W
LayerCount: 2
Fore
SplineSet
122 85 m 0,0,1
 122 103 122 103 142 118 c 128,-1,2
 162 133 162 133 198 144.5 c 128,-1,3
 234 156 234 156 282 162.5 c 128,-1,4
 330 169 330 169 385 169 c 0,5,6
 442 169 442 169 490 162.5 c 128,-1,7
 538 156 538 156 573.5 144.5 c 128,-1,8
 609 133 609 133 629.5 118 c 128,-1,9
 650 103 650 103 650 85 c 0,10,11
 650 68 650 68 629.5 53 c 128,-1,12
 609 38 609 38 573.5 27 c 128,-1,13
 538 16 538 16 490 9.5 c 128,-1,14
 442 3 442 3 385 3 c 0,15,16
 330 3 330 3 282 9.5 c 128,-1,17
 234 16 234 16 198 27 c 128,-1,18
 162 38 162 38 142 53 c 128,-1,19
 122 68 122 68 122 85 c 0,0,1
225 85 m 256,20,21
 225 74 225 74 237 64.5 c 128,-1,22
 249 55 249 55 271 48.5 c 128,-1,23
 293 42 293 42 322.5 38 c 128,-1,24
 352 34 352 34 385 34 c 0,25,26
 420 34 420 34 449 38 c 128,-1,27
 478 42 478 42 500 48.5 c 128,-1,28
 522 55 522 55 534 64.5 c 128,-1,29
 546 74 546 74 546 85 c 256,30,31
 546 96 546 96 534 105.5 c 128,-1,32
 522 115 522 115 500 122 c 128,-1,33
 478 129 478 129 449 133 c 128,-1,34
 420 137 420 137 385 137 c 0,35,36
 352 137 352 137 322.5 133 c 128,-1,37
 293 129 293 129 271 122 c 128,-1,38
 249 115 249 115 237 105.5 c 128,-1,39
 225 96 225 96 225 85 c 256,20,21
122 272 m 0,40,41
 122 290 122 290 142 305 c 128,-1,42
 162 320 162 320 198 331.5 c 128,-1,43
 234 343 234 343 282 349 c 128,-1,44
 330 355 330 355 385 355 c 0,45,46
 442 355 442 355 490 349 c 128,-1,47
 538 343 538 343 573.5 331.5 c 128,-1,48
 609 320 609 320 629.5 305 c 128,-1,49
 650 290 650 290 650 272 c 0,50,51
 650 255 650 255 629.5 240 c 128,-1,52
 609 225 609 225 573.5 214 c 128,-1,53
 538 203 538 203 490 196 c 128,-1,54
 442 189 442 189 385 189 c 0,55,56
 330 189 330 189 282 196 c 128,-1,57
 234 203 234 203 198 214 c 128,-1,58
 162 225 162 225 142 240 c 128,-1,59
 122 255 122 255 122 272 c 0,40,41
225 272 m 256,60,61
 225 261 225 261 237 251.5 c 128,-1,62
 249 242 249 242 271 235 c 128,-1,63
 293 228 293 228 322.5 224 c 128,-1,64
 352 220 352 220 385 220 c 0,65,66
 420 220 420 220 449 224 c 128,-1,67
 478 228 478 228 500 235 c 128,-1,68
 522 242 522 242 534 251.5 c 128,-1,69
 546 261 546 261 546 272 c 256,70,71
 546 283 546 283 534 292.5 c 128,-1,72
 522 302 522 302 500 309 c 128,-1,73
 478 316 478 316 449 320 c 128,-1,74
 420 324 420 324 385 324 c 0,75,76
 352 324 352 324 322.5 320 c 128,-1,77
 293 316 293 316 271 309 c 128,-1,78
 249 302 249 302 237 292.5 c 128,-1,79
 225 283 225 283 225 272 c 256,60,61
122 461 m 256,80,81
 122 478 122 478 142 493.5 c 128,-1,82
 162 509 162 509 198 520 c 128,-1,83
 234 531 234 531 282 537.5 c 128,-1,84
 330 544 330 544 385 544 c 0,85,86
 442 544 442 544 490 537.5 c 128,-1,87
 538 531 538 531 573.5 520 c 128,-1,88
 609 509 609 509 629.5 493.5 c 128,-1,89
 650 478 650 478 650 461 c 256,90,91
 650 444 650 444 629.5 429 c 128,-1,92
 609 414 609 414 573.5 402.5 c 128,-1,93
 538 391 538 391 490 384.5 c 128,-1,94
 442 378 442 378 385 378 c 0,95,96
 330 378 330 378 282 384.5 c 128,-1,97
 234 391 234 391 198 402.5 c 128,-1,98
 162 414 162 414 142 429 c 128,-1,99
 122 444 122 444 122 461 c 256,80,81
122 648 m 256,100,101
 122 665 122 665 142 680.5 c 128,-1,102
 162 696 162 696 198 707 c 128,-1,103
 234 718 234 718 282 724.5 c 128,-1,104
 330 731 330 731 385 731 c 0,105,106
 442 731 442 731 490 724.5 c 128,-1,107
 538 718 538 718 573.5 707 c 128,-1,108
 609 696 609 696 629.5 680.5 c 128,-1,109
 650 665 650 665 650 648 c 256,110,111
 650 631 650 631 629.5 616 c 128,-1,112
 609 601 609 601 573.5 589.5 c 128,-1,113
 538 578 538 578 490 571.5 c 128,-1,114
 442 565 442 565 385 565 c 0,115,116
 330 565 330 565 282 571.5 c 128,-1,117
 234 578 234 578 198 589.5 c 128,-1,118
 162 601 162 601 142 616 c 128,-1,119
 122 631 122 631 122 648 c 256,100,101
EndSplineSet
EndChar

StartChar: R
Encoding: 82 82 82
Width: 771
Flags: W
LayerCount: 2
Fore
SplineSet
139 0 m 1,0,-1
 139 572 l 1,1,-1
 343 572 l 2,2,3
 487 572 487 572 557 530.5 c 128,-1,4
 627 489 627 489 627 409 c 0,5,6
 627 354 627 354 592 314 c 128,-1,7
 557 274 557 274 482 254 c 1,8,-1
 686 0 l 1,9,-1
 559 0 l 1,10,-1
 383 232 l 1,11,-1
 250 232 l 1,12,-1
 250 0 l 1,13,-1
 139 0 l 1,0,-1
352 302 m 2,14,15
 428 302 428 302 470 326 c 128,-1,16
 512 350 512 350 512 402 c 0,17,18
 512 457 512 457 468.5 479.5 c 128,-1,19
 425 502 425 502 342 502 c 2,20,-1
 250 502 l 1,21,-1
 250 302 l 1,22,-1
 352 302 l 2,14,15
EndSplineSet
EndChar

StartChar: S
Encoding: 83 83 83
Width: 771
Flags: W
LayerCount: 2
Fore
SplineSet
346 -8 m 0,0,1
 294 -8 294 -8 239 -1 c 128,-1,2
 184 6 184 6 143 20 c 1,3,-1
 143 100 l 1,4,5
 189 83 189 83 246.5 73.5 c 128,-1,6
 304 64 304 64 353 64 c 0,7,8
 429 64 429 64 471 86.5 c 128,-1,9
 513 109 513 109 513 151 c 0,10,11
 513 180 513 180 493 198 c 128,-1,12
 473 216 473 216 435.5 230 c 128,-1,13
 398 244 398 244 343 260 c 0,14,15
 294 275 294 275 249.5 293.5 c 128,-1,16
 205 312 205 312 177.5 342 c 128,-1,17
 150 372 150 372 150 421 c 0,18,19
 150 474 150 474 183.5 509.5 c 128,-1,20
 217 545 217 545 275 562.5 c 128,-1,21
 333 580 333 580 405 580 c 0,22,23
 462 580 462 580 516 570 c 128,-1,24
 570 560 570 560 615 545 c 1,25,-1
 579 476 l 1,26,27
 533 492 533 492 487.5 500.5 c 128,-1,28
 442 509 442 509 401 509 c 0,29,30
 339 509 339 509 300.5 488.5 c 128,-1,31
 262 468 262 468 262 427 c 0,32,33
 262 398 262 398 283 380 c 128,-1,34
 304 362 304 362 342 349.5 c 128,-1,35
 380 337 380 337 429 321 c 0,36,37
 484 304 484 304 529 285 c 128,-1,38
 574 266 574 266 600.5 237 c 128,-1,39
 627 208 627 208 627 159 c 0,40,41
 627 109 627 109 596 71.5 c 128,-1,42
 565 34 565 34 503 13 c 128,-1,43
 441 -8 441 -8 346 -8 c 0,0,1
EndSplineSet
EndChar

StartChar: T
Encoding: 84 84 84
Width: 771
Flags: W
LayerCount: 2
Fore
SplineSet
624 465 m 1,0,-1
 624 0 l 1,1,-1
 520 0 l 1,2,-1
 520 328 l 1,3,-1
 380 328 l 2,4,5
 301 328 301 328 262 322 c 128,-1,6
 223 316 223 316 198 299 c 0,7,8
 183 289 183 289 175.5 274 c 128,-1,9
 168 259 168 259 168 237 c 0,10,11
 168 204 168 204 189 173.5 c 128,-1,12
 210 143 210 143 251.5 110.5 c 128,-1,13
 293 78 293 78 354 40 c 1,14,-1
 284 -12 l 1,15,16
 225 28 225 28 174.5 68 c 128,-1,17
 124 108 124 108 93.5 151 c 128,-1,18
 63 194 63 194 63 242 c 0,19,20
 63 277 63 277 80.5 305 c 128,-1,21
 98 333 98 333 125 351 c 0,22,23
 150 368 150 368 180.5 378.5 c 128,-1,24
 211 389 211 389 254 394 c 128,-1,25
 297 399 297 399 355 399 c 2,26,-1
 520 399 l 1,27,-1
 520 465 l 1,28,-1
 423 465 l 1,29,-1
 423 536 l 1,30,-1
 709 536 l 1,31,-1
 709 465 l 1,32,-1
 624 465 l 1,0,-1
EndSplineSet
EndChar

StartChar: U
Encoding: 85 85 85
Width: 771
Flags: W
LayerCount: 2
Fore
SplineSet
381 -8 m 0,0,1
 245 -8 245 -8 170.5 49.5 c 128,-1,2
 96 107 96 107 96 211 c 2,3,-1
 96 572 l 1,4,-1
 209 572 l 1,5,-1
 209 215 l 2,6,7
 209 142 209 142 255.5 103.5 c 128,-1,8
 302 65 302 65 388 65 c 0,9,10
 473 65 473 65 517 103.5 c 128,-1,11
 561 142 561 142 561 213 c 2,12,-1
 561 572 l 1,13,-1
 674 572 l 1,14,-1
 674 212 l 2,15,16
 674 143 674 143 640 94 c 128,-1,17
 606 45 606 45 540.5 18.5 c 128,-1,18
 475 -8 475 -8 381 -8 c 0,0,1
EndSplineSet
EndChar

StartChar: V
Encoding: 86 86 86
Width: 771
Flags: W
LayerCount: 2
Fore
SplineSet
386 578 m 0,0,1
 323 578 323 578 284.5 606 c 128,-1,2
 246 634 246 634 246 684 c 256,3,4
 246 734 246 734 284.5 761.5 c 128,-1,5
 323 789 323 789 386 789 c 0,6,7
 446 789 446 789 487 761.5 c 128,-1,8
 528 734 528 734 528 685 c 0,9,10
 528 634 528 634 487.5 606 c 128,-1,11
 447 578 447 578 386 578 c 0,0,1
386 628 m 0,12,13
 418 628 418 628 438 643 c 128,-1,14
 458 658 458 658 458 684 c 256,15,16
 458 710 458 710 437 725 c 128,-1,17
 416 740 416 740 386 740 c 0,18,19
 355 740 355 740 334.5 725 c 128,-1,20
 314 710 314 710 314 684 c 256,21,22
 314 658 314 658 332.5 643 c 128,-1,23
 351 628 351 628 386 628 c 0,12,13
327 0 m 1,24,-1
 32 572 l 1,25,-1
 153 572 l 1,26,-1
 331 200 l 2,27,28
 343 177 343 177 352.5 154 c 128,-1,29
 362 131 362 131 371 110 c 128,-1,30
 380 89 380 89 387 70 c 1,31,-1
 390 70 l 1,32,33
 397 89 397 89 405.5 110.5 c 128,-1,34
 414 132 414 132 423.5 155.5 c 128,-1,35
 433 179 433 179 444 203 c 2,36,-1
 617 572 l 1,37,-1
 739 572 l 1,38,-1
 448 0 l 1,39,-1
 327 0 l 1,24,-1
EndSplineSet
EndChar

StartChar: W
Encoding: 87 87 87
Width: 771
Flags: W
LayerCount: 2
Fore
SplineSet
122 85 m 0,0,1
 122 103 122 103 142 118 c 128,-1,2
 162 133 162 133 198 144.5 c 128,-1,3
 234 156 234 156 282 162.5 c 128,-1,4
 330 169 330 169 385 169 c 0,5,6
 442 169 442 169 490 162.5 c 128,-1,7
 538 156 538 156 573.5 144.5 c 128,-1,8
 609 133 609 133 629.5 118 c 128,-1,9
 650 103 650 103 650 85 c 0,10,11
 650 68 650 68 629.5 53 c 128,-1,12
 609 38 609 38 573.5 27 c 128,-1,13
 538 16 538 16 490 9.5 c 128,-1,14
 442 3 442 3 385 3 c 0,15,16
 330 3 330 3 282 9.5 c 128,-1,17
 234 16 234 16 198 27 c 128,-1,18
 162 38 162 38 142 53 c 128,-1,19
 122 68 122 68 122 85 c 0,0,1
122 272 m 0,20,21
 122 290 122 290 142 305 c 128,-1,22
 162 320 162 320 198 331.5 c 128,-1,23
 234 343 234 343 282 349 c 128,-1,24
 330 355 330 355 385 355 c 0,25,26
 442 355 442 355 490 349 c 128,-1,27
 538 343 538 343 573.5 331.5 c 128,-1,28
 609 320 609 320 629.5 305 c 128,-1,29
 650 290 650 290 650 272 c 0,30,31
 650 255 650 255 629.5 240 c 128,-1,32
 609 225 609 225 573.5 214 c 128,-1,33
 538 203 538 203 490 196 c 128,-1,34
 442 189 442 189 385 189 c 0,35,36
 330 189 330 189 282 196 c 128,-1,37
 234 203 234 203 198 214 c 128,-1,38
 162 225 162 225 142 240 c 128,-1,39
 122 255 122 255 122 272 c 0,20,21
225 272 m 256,40,41
 225 261 225 261 237 251.5 c 128,-1,42
 249 242 249 242 271 235 c 128,-1,43
 293 228 293 228 322.5 224 c 128,-1,44
 352 220 352 220 385 220 c 0,45,46
 420 220 420 220 449 224 c 128,-1,47
 478 228 478 228 500 235 c 128,-1,48
 522 242 522 242 534 251.5 c 128,-1,49
 546 261 546 261 546 272 c 256,50,51
 546 283 546 283 534 292.5 c 128,-1,52
 522 302 522 302 500 309 c 128,-1,53
 478 316 478 316 449 320 c 128,-1,54
 420 324 420 324 385 324 c 0,55,56
 352 324 352 324 322.5 320 c 128,-1,57
 293 316 293 316 271 309 c 128,-1,58
 249 302 249 302 237 292.5 c 128,-1,59
 225 283 225 283 225 272 c 256,40,41
122 461 m 256,60,61
 122 478 122 478 142 493.5 c 128,-1,62
 162 509 162 509 198 520 c 128,-1,63
 234 531 234 531 282 537.5 c 128,-1,64
 330 544 330 544 385 544 c 0,65,66
 442 544 442 544 490 537.5 c 128,-1,67
 538 531 538 531 573.5 520 c 128,-1,68
 609 509 609 509 629.5 493.5 c 128,-1,69
 650 478 650 478 650 461 c 256,70,71
 650 444 650 444 629.5 429 c 128,-1,72
 609 414 609 414 573.5 402.5 c 128,-1,73
 538 391 538 391 490 384.5 c 128,-1,74
 442 378 442 378 385 378 c 0,75,76
 330 378 330 378 282 384.5 c 128,-1,77
 234 391 234 391 198 402.5 c 128,-1,78
 162 414 162 414 142 429 c 128,-1,79
 122 444 122 444 122 461 c 256,60,61
122 648 m 256,80,81
 122 665 122 665 142 680.5 c 128,-1,82
 162 696 162 696 198 707 c 128,-1,83
 234 718 234 718 282 724.5 c 128,-1,84
 330 731 330 731 385 731 c 0,85,86
 442 731 442 731 490 724.5 c 128,-1,87
 538 718 538 718 573.5 707 c 128,-1,88
 609 696 609 696 629.5 680.5 c 128,-1,89
 650 665 650 665 650 648 c 256,90,91
 650 631 650 631 629.5 616 c 128,-1,92
 609 601 609 601 573.5 589.5 c 128,-1,93
 538 578 538 578 490 571.5 c 128,-1,94
 442 565 442 565 385 565 c 0,95,96
 330 565 330 565 282 571.5 c 128,-1,97
 234 578 234 578 198 589.5 c 128,-1,98
 162 601 162 601 142 616 c 128,-1,99
 122 631 122 631 122 648 c 256,80,81
EndSplineSet
EndChar

StartChar: X
Encoding: 88 88 88
Width: 771
Flags: W
LayerCount: 2
Fore
SplineSet
122 85 m 0,0,1
 122 103 122 103 142 118 c 128,-1,2
 162 133 162 133 198 144.5 c 128,-1,3
 234 156 234 156 282 162.5 c 128,-1,4
 330 169 330 169 385 169 c 0,5,6
 442 169 442 169 490 162.5 c 128,-1,7
 538 156 538 156 573.5 144.5 c 128,-1,8
 609 133 609 133 629.5 118 c 128,-1,9
 650 103 650 103 650 85 c 0,10,11
 650 68 650 68 629.5 53 c 128,-1,12
 609 38 609 38 573.5 27 c 128,-1,13
 538 16 538 16 490 9.5 c 128,-1,14
 442 3 442 3 385 3 c 0,15,16
 330 3 330 3 282 9.5 c 128,-1,17
 234 16 234 16 198 27 c 128,-1,18
 162 38 162 38 142 53 c 128,-1,19
 122 68 122 68 122 85 c 0,0,1
225 85 m 256,20,21
 225 74 225 74 237 64.5 c 128,-1,22
 249 55 249 55 271 48.5 c 128,-1,23
 293 42 293 42 322.5 38 c 128,-1,24
 352 34 352 34 385 34 c 0,25,26
 420 34 420 34 449 38 c 128,-1,27
 478 42 478 42 500 48.5 c 128,-1,28
 522 55 522 55 534 64.5 c 128,-1,29
 546 74 546 74 546 85 c 256,30,31
 546 96 546 96 534 105.5 c 128,-1,32
 522 115 522 115 500 122 c 128,-1,33
 478 129 478 129 449 133 c 128,-1,34
 420 137 420 137 385 137 c 0,35,36
 352 137 352 137 322.5 133 c 128,-1,37
 293 129 293 129 271 122 c 128,-1,38
 249 115 249 115 237 105.5 c 128,-1,39
 225 96 225 96 225 85 c 256,20,21
122 272 m 0,40,41
 122 290 122 290 142 305 c 128,-1,42
 162 320 162 320 198 331.5 c 128,-1,43
 234 343 234 343 282 349 c 128,-1,44
 330 355 330 355 385 355 c 0,45,46
 442 355 442 355 490 349 c 128,-1,47
 538 343 538 343 573.5 331.5 c 128,-1,48
 609 320 609 320 629.5 305 c 128,-1,49
 650 290 650 290 650 272 c 0,50,51
 650 255 650 255 629.5 240 c 128,-1,52
 609 225 609 225 573.5 214 c 128,-1,53
 538 203 538 203 490 196 c 128,-1,54
 442 189 442 189 385 189 c 0,55,56
 330 189 330 189 282 196 c 128,-1,57
 234 203 234 203 198 214 c 128,-1,58
 162 225 162 225 142 240 c 128,-1,59
 122 255 122 255 122 272 c 0,40,41
122 461 m 256,60,61
 122 478 122 478 142 493.5 c 128,-1,62
 162 509 162 509 198 520 c 128,-1,63
 234 531 234 531 282 537.5 c 128,-1,64
 330 544 330 544 385 544 c 0,65,66
 442 544 442 544 490 537.5 c 128,-1,67
 538 531 538 531 573.5 520 c 128,-1,68
 609 509 609 509 629.5 493.5 c 128,-1,69
 650 478 650 478 650 461 c 256,70,71
 650 444 650 444 629.5 429 c 128,-1,72
 609 414 609 414 573.5 402.5 c 128,-1,73
 538 391 538 391 490 384.5 c 128,-1,74
 442 378 442 378 385 378 c 0,75,76
 330 378 330 378 282 384.5 c 128,-1,77
 234 391 234 391 198 402.5 c 128,-1,78
 162 414 162 414 142 429 c 128,-1,79
 122 444 122 444 122 461 c 256,60,61
122 648 m 256,80,81
 122 665 122 665 142 680.5 c 128,-1,82
 162 696 162 696 198 707 c 128,-1,83
 234 718 234 718 282 724.5 c 128,-1,84
 330 731 330 731 385 731 c 0,85,86
 442 731 442 731 490 724.5 c 128,-1,87
 538 718 538 718 573.5 707 c 128,-1,88
 609 696 609 696 629.5 680.5 c 128,-1,89
 650 665 650 665 650 648 c 256,90,91
 650 631 650 631 629.5 616 c 128,-1,92
 609 601 609 601 573.5 589.5 c 128,-1,93
 538 578 538 578 490 571.5 c 128,-1,94
 442 565 442 565 385 565 c 0,95,96
 330 565 330 565 282 571.5 c 128,-1,97
 234 578 234 578 198 589.5 c 128,-1,98
 162 601 162 601 142 616 c 128,-1,99
 122 631 122 631 122 648 c 256,80,81
EndSplineSet
EndChar

StartChar: Y
Encoding: 89 89 89
Width: 771
Flags: W
LayerCount: 2
Fore
SplineSet
328 0 m 1,0,-1
 328 218 l 1,1,-1
 81 572 l 1,2,-1
 204 572 l 1,3,-1
 385 299 l 1,4,-1
 568 572 l 1,5,-1
 689 572 l 1,6,-1
 442 222 l 1,7,-1
 442 0 l 1,8,-1
 328 0 l 1,0,-1
EndSplineSet
EndChar

StartChar: Z
Encoding: 90 90 90
Width: 771
Flags: W
LayerCount: 2
Fore
SplineSet
166 243 m 1,0,-1
 166 313 l 1,1,-1
 624 313 l 1,2,-1
 624 243 l 1,3,-1
 166 243 l 1,0,-1
115 0 m 1,4,-1
 115 61 l 1,5,-1
 520 467 l 1,6,-1
 136 467 l 1,7,-1
 136 536 l 1,8,-1
 645 536 l 1,9,-1
 645 465 l 1,10,-1
 253 76 l 1,11,-1
 655 76 l 1,12,-1
 655 0 l 1,13,-1
 115 0 l 1,4,-1
EndSplineSet
EndChar

StartChar: bracketleft.deva
Encoding: 91 91 91
Width: 771
Flags: W
LayerCount: 2
Fore
SplineSet
293 -158 m 1,0,-1
 293 714 l 1,1,-1
 582 714 l 1,2,-1
 582 642 l 1,3,-1
 404 642 l 1,4,-1
 404 -86 l 1,5,-1
 582 -86 l 1,6,-1
 582 -158 l 1,7,-1
 293 -158 l 1,0,-1
EndSplineSet
EndChar

StartChar: backslash.deva
Encoding: 92 92 92
Width: 771
Flags: W
LayerCount: 2
Fore
SplineSet
617 0 m 1,0,-1
 506 0 l 1,1,-1
 154 714 l 1,2,-1
 264 714 l 1,3,-1
 617 0 l 1,0,-1
EndSplineSet
EndChar

StartChar: bracketright.deva
Encoding: 93 93 93
Width: 771
Flags: W
LayerCount: 2
Fore
SplineSet
477 714 m 1,0,-1
 477 -158 l 1,1,-1
 188 -158 l 1,2,-1
 188 -86 l 1,3,-1
 367 -86 l 1,4,-1
 367 642 l 1,5,-1
 188 642 l 1,6,-1
 188 714 l 1,7,-1
 477 714 l 1,0,-1
EndSplineSet
EndChar

StartChar: asciicircum.deva
Encoding: 94 94 94
Width: 771
Flags: W
LayerCount: 2
Fore
SplineSet
64 267 m 1,0,-1
 339 719 l 1,1,-1
 403 719 l 1,2,-1
 706 267 l 1,3,-1
 606 267 l 1,4,-1
 372 626 l 1,5,-1
 164 267 l 1,6,-1
 64 267 l 1,0,-1
EndSplineSet
EndChar

StartChar: underscore.deva
Encoding: 95 95 95
Width: 771
Flags: W
LayerCount: 2
Fore
SplineSet
0 -154 m 1,0,-1
 0 -74 l 1,1,-1
 771 -74 l 1,2,-1
 771 -154 l 1,3,-1
 0 -154 l 1,0,-1
EndSplineSet
EndChar

StartChar: grave
Encoding: 96 96 96
Width: 771
Flags: W
LayerCount: 2
Fore
SplineSet
428 606 m 1,0,1
 406 620 406 620 379 639.5 c 128,-1,2
 352 659 352 659 326 680.5 c 128,-1,3
 300 702 300 702 278.5 722 c 128,-1,4
 257 742 257 742 246 756 c 1,5,-1
 246 766 l 1,6,-1
 381 766 l 1,7,8
 395 744 395 744 416 716.5 c 128,-1,9
 437 689 437 689 461 663 c 128,-1,10
 485 637 485 637 504 618 c 1,11,-1
 504 606 l 1,12,-1
 428 606 l 1,0,1
EndSplineSet
EndChar

StartChar: a
Encoding: 97 97 97
Width: 771
Flags: W
LayerCount: 2
Fore
SplineSet
316 -10 m 0,0,1
 215 -10 215 -10 152.5 29 c 128,-1,2
 90 68 90 68 90 147 c 0,3,4
 90 205 90 205 126 243.5 c 128,-1,5
 162 282 162 282 232 301.5 c 128,-1,6
 302 321 302 321 403 323 c 2,7,-1
 550 326 l 1,8,-1
 550 348 l 2,9,10
 550 420 550 420 504 446.5 c 128,-1,11
 458 473 458 473 379 473 c 0,12,13
 324 473 324 473 274 462 c 128,-1,14
 224 451 224 451 179 431 c 1,15,-1
 139 499 l 1,16,17
 188 518 188 518 247.5 532 c 128,-1,18
 307 546 307 546 386 546 c 0,19,20
 516 546 516 546 586 500.5 c 128,-1,21
 656 455 656 455 656 359 c 2,22,-1
 656 0 l 1,23,-1
 563 0 l 1,24,-1
 550 74 l 1,25,-1
 545 74 l 1,26,27
 517 46 517 46 483 27.5 c 128,-1,28
 449 9 449 9 408 -0.5 c 128,-1,29
 367 -10 367 -10 316 -10 c 0,0,1
336 63 m 0,30,31
 394 63 394 63 442.5 79.5 c 128,-1,32
 491 96 491 96 520.5 129.5 c 128,-1,33
 550 163 550 163 550 214 c 2,34,-1
 550 262 l 1,35,-1
 427 259 l 2,36,37
 345 257 345 257 294.5 243.5 c 128,-1,38
 244 230 244 230 222 206.5 c 128,-1,39
 200 183 200 183 200 150 c 0,40,41
 200 104 200 104 237 83.5 c 128,-1,42
 274 63 274 63 336 63 c 0,30,31
EndSplineSet
EndChar

StartChar: b
Encoding: 98 98 98
Width: 771
Flags: W
LayerCount: 2
Fore
SplineSet
419 -10 m 0,0,1
 343 -10 343 -10 291 13.5 c 128,-1,2
 239 37 239 37 209 68 c 1,3,-1
 202 68 l 1,4,-1
 192 0 l 1,5,-1
 99 0 l 1,6,-1
 99 760 l 1,7,-1
 211 760 l 1,8,-1
 211 576 l 2,9,10
 211 548 211 548 210 521 c 128,-1,11
 209 494 209 494 206 466 c 1,12,-1
 211 466 l 1,13,14
 238 498 238 498 289.5 522 c 128,-1,15
 341 546 341 546 419 546 c 0,16,17
 481 546 481 546 532 528.5 c 128,-1,18
 583 511 583 511 620 476 c 128,-1,19
 657 441 657 441 677 389 c 128,-1,20
 697 337 697 337 697 269 c 0,21,22
 697 200 697 200 677 148 c 128,-1,23
 657 96 657 96 619.5 60.5 c 128,-1,24
 582 25 582 25 531.5 7.5 c 128,-1,25
 481 -10 481 -10 419 -10 c 0,0,1
397 63 m 0,26,27
 491 63 491 63 534.5 116 c 128,-1,28
 578 169 578 169 578 269 c 0,29,30
 578 367 578 367 534.5 420 c 128,-1,31
 491 473 491 473 396 473 c 0,32,33
 307 473 307 473 259 420.5 c 128,-1,34
 211 368 211 368 211 271 c 0,35,36
 211 170 211 170 256.5 116.5 c 128,-1,37
 302 63 302 63 397 63 c 0,26,27
EndSplineSet
EndChar

StartChar: c
Encoding: 99 99 99
Width: 771
Flags: W
LayerCount: 2
Fore
SplineSet
480.959960938 -10 m 0,0,1
 329 -10 329 -10 245.8046875 57 c 0,2,3
 162 124 162 124 162.280273438 245 c 0,4,5
 162 325 162 325 199.544921875 380.5 c 128,-1,6
 237 436 237 436 306.200195312 465 c 1,7,-1
 47.294921875 465 l 1,8,-1
 47.294921875 537 l 1,9,-1
 668.57 537 l 1,10,-1
 668.57 465 l 1,11,-1
 537.5 465 l 2,12,13
 417 465 417 465 347.962890625 411.5 c 128,-1,14
 279 358 279 358 279.21484375 252 c 0,15,16
 279 165 279 165 334.469726562 114.5 c 128,-1,17
 390 64 390 64 492.525390625 64 c 0,18,19
 540 64 540 64 583.759765625 73.5 c 0,20,21
 627 83 627 83 668.5703125 99 c 1,22,-1
 668.5703125 21 l 1,23,24
 631 5 631 5 586.330078125 -2.5 c 0,25,26
 541 -10 541 -10 480.959960938 -10 c 0,0,1
EndSplineSet
EndChar

StartChar: d
Encoding: 100 100 100
Width: 771
Flags: W
LayerCount: 2
Fore
SplineSet
355 -10 m 0,0,1
 292 -10 292 -10 240 7 c 128,-1,2
 188 24 188 24 151 59 c 128,-1,3
 114 94 114 94 94 147 c 128,-1,4
 74 200 74 200 74 271 c 0,5,6
 74 360 74 360 107 421.5 c 128,-1,7
 140 483 140 483 205.5 514.5 c 128,-1,8
 271 546 271 546 368 546 c 0,9,10
 416 546 416 546 452.5 536 c 128,-1,11
 489 526 489 526 515.5 508.5 c 128,-1,12
 542 491 542 491 557 468 c 1,13,-1
 565 468 l 1,14,15
 564 478 564 478 562 491.5 c 128,-1,16
 560 505 560 505 558.5 519.5 c 128,-1,17
 557 534 557 534 557 547 c 2,18,-1
 557 760 l 1,19,-1
 672 760 l 1,20,-1
 672 0 l 1,21,-1
 576 0 l 1,22,-1
 564 72 l 1,23,-1
 558 72 l 1,24,25
 539 48 539 48 511.5 29.5 c 128,-1,26
 484 11 484 11 446 0.5 c 128,-1,27
 408 -10 408 -10 355 -10 c 0,0,1
377 63 m 0,28,29
 468 63 468 63 512.5 112.5 c 128,-1,30
 557 162 557 162 557 247 c 2,31,-1
 557 267 l 2,32,33
 557 326 557 326 540.5 372.5 c 128,-1,34
 524 419 524 419 485.5 446 c 128,-1,35
 447 473 447 473 381 473 c 0,36,37
 291 473 291 473 241.5 421 c 128,-1,38
 192 369 192 369 192 262 c 0,39,40
 192 163 192 163 237.5 113 c 128,-1,41
 283 63 283 63 377 63 c 0,28,29
EndSplineSet
EndChar

StartChar: e
Encoding: 101 101 101
Width: 771
Flags: W
LayerCount: 2
Fore
SplineSet
398 546 m 0,0,1
 487 546 487 546 550.5 516 c 128,-1,2
 614 486 614 486 648 431.5 c 128,-1,3
 682 377 682 377 682 304 c 2,4,-1
 682 251 l 1,5,-1
 211 251 l 1,6,7
 213 160 213 160 270.5 112.5 c 128,-1,8
 328 65 328 65 430 65 c 0,9,10
 496 65 496 65 546.5 74.5 c 128,-1,11
 597 84 597 84 651 102 c 1,12,-1
 651 25 l 1,13,14
 599 7 599 7 547.5 -1.5 c 128,-1,15
 496 -10 496 -10 425 -10 c 0,16,17
 328 -10 328 -10 252.5 21 c 128,-1,18
 177 52 177 52 135.5 113.5 c 128,-1,19
 94 175 94 175 94 264 c 0,20,21
 94 352 94 352 132 415 c 128,-1,22
 170 478 170 478 238.5 512 c 128,-1,23
 307 546 307 546 398 546 c 0,0,1
397 474 m 0,24,25
 316 474 316 474 269 433.5 c 128,-1,26
 222 393 222 393 213 321 c 1,27,-1
 564 321 l 1,28,29
 564 367 564 367 546 401 c 128,-1,30
 528 435 528 435 491.5 454.5 c 128,-1,31
 455 474 455 474 397 474 c 0,24,25
EndSplineSet
EndChar

StartChar: f
Encoding: 102 102 102
Width: 771
Flags: W
LayerCount: 2
Fore
SplineSet
304 0 m 1,0,-1
 304 461 l 1,1,-1
 79 461 l 1,2,-1
 79 523 l 1,3,-1
 304 536 l 1,4,-1
 304 597 l 2,5,6
 304 661 304 661 335.5 697.5 c 128,-1,7
 367 734 367 734 423.5 749.5 c 128,-1,8
 480 765 480 765 555 765 c 0,9,10
 611 765 611 765 653.5 759 c 128,-1,11
 696 753 696 753 727 745 c 1,12,-1
 701 676 l 1,13,14
 676 682 676 682 637.5 686.5 c 128,-1,15
 599 691 599 691 561 691 c 0,16,17
 494 691 494 691 457 669 c 128,-1,18
 420 647 420 647 420 585 c 2,19,-1
 420 536 l 1,20,-1
 680 536 l 1,21,-1
 680 461 l 1,22,-1
 420 461 l 1,23,-1
 420 0 l 1,24,-1
 304 0 l 1,0,-1
EndSplineSet
EndChar

StartChar: g
Encoding: 103 103 103
Width: 771
Flags: W
LayerCount: 2
Fore
SplineSet
358 -245 m 0,0,1
 287 -245 287 -245 225 -234.5 c 128,-1,2
 163 -224 163 -224 110 -207 c 1,3,-1
 110 -127 l 1,4,5
 161 -150 161 -150 228.5 -161.5 c 128,-1,6
 296 -173 296 -173 354 -173 c 0,7,8
 471 -173 471 -173 517.5 -130.5 c 128,-1,9
 564 -88 564 -88 564 -14 c 2,10,-1
 564 5 l 2,11,12
 564 17 564 17 564.5 28 c 128,-1,13
 565 39 565 39 567 62 c 1,14,-1
 562 62 l 1,15,16
 526 21 526 21 478 5.5 c 128,-1,17
 430 -10 430 -10 362 -10 c 0,18,19
 226 -10 226 -10 150 62.5 c 128,-1,20
 74 135 74 135 74 265 c 0,21,22
 74 396 74 396 149 471 c 128,-1,23
 224 546 224 546 355 546 c 0,24,25
 425 546 425 546 472.5 528.5 c 128,-1,26
 520 511 520 511 557 470 c 1,27,-1
 564 470 l 1,28,-1
 579 536 l 1,29,-1
 672 536 l 1,30,-1
 672 -14 l 2,31,32
 672 -90 672 -90 638.5 -141.5 c 128,-1,33
 605 -193 605 -193 535.5 -219 c 128,-1,34
 466 -245 466 -245 358 -245 c 0,0,1
384 63 m 0,35,36
 426 63 426 63 460 73.5 c 128,-1,37
 494 84 494 84 518 106.5 c 128,-1,38
 542 129 542 129 554.5 163.5 c 128,-1,39
 567 198 567 198 567 246 c 2,40,-1
 567 267 l 2,41,42
 567 340 567 340 544.5 385.5 c 128,-1,43
 522 431 522 431 480 452 c 128,-1,44
 438 473 438 473 380 473 c 0,45,46
 282 473 282 473 237 419.5 c 128,-1,47
 192 366 192 366 192 268 c 0,48,49
 192 168 192 168 239 115.5 c 128,-1,50
 286 63 286 63 384 63 c 0,35,36
EndSplineSet
EndChar

StartChar: h
Encoding: 104 104 104
Width: 771
Flags: W
LayerCount: 2
Fore
SplineSet
215 384 m 2,0,1
 215 365 215 365 213 345 c 128,-1,2
 211 325 211 325 208 309 c 1,3,-1
 216 309 l 1,4,5
 238 337 238 337 271.5 355 c 128,-1,6
 305 373 305 373 346 382.5 c 128,-1,7
 387 392 387 392 431 392 c 0,8,9
 514 392 514 392 570 371.5 c 128,-1,10
 626 351 626 351 654 308 c 128,-1,11
 682 265 682 265 682 196 c 2,12,-1
 682 0 l 1,13,-1
 571 0 l 1,14,-1
 571 190 l 2,15,16
 571 255 571 255 533.5 287 c 128,-1,17
 496 319 496 319 416 319 c 0,18,19
 339 319 339 319 295.5 296.5 c 128,-1,20
 252 274 252 274 233.5 230.5 c 128,-1,21
 215 187 215 187 215 124 c 2,22,-1
 215 0 l 1,23,-1
 102 0 l 1,24,-1
 102 580 l 1,25,-1
 215 580 l 1,26,-1
 215 384 l 2,0,1
EndSplineSet
EndChar

StartChar: i
Encoding: 105 105 105
Width: 771
Flags: W
LayerCount: 2
Fore
SplineSet
108 0 m 1,0,-1
 108 60 l 1,1,-1
 354 75 l 1,2,-1
 354 461 l 1,3,-1
 129 474 l 1,4,-1
 129 536 l 1,5,-1
 470 536 l 1,6,-1
 470 75 l 1,7,-1
 700 60 l 1,8,-1
 700 0 l 1,9,-1
 108 0 l 1,0,-1
400 633 m 0,10,11
 367 633 367 633 343 649 c 128,-1,12
 319 665 319 665 319 696 c 0,13,14
 319 729 319 729 343 744.5 c 128,-1,15
 367 760 367 760 400 760 c 0,16,17
 434 760 434 760 457.5 744.5 c 128,-1,18
 481 729 481 729 481 696 c 0,19,20
 481 665 481 665 457.5 649 c 128,-1,21
 434 633 434 633 400 633 c 0,10,11
EndSplineSet
EndChar

StartChar: j
Encoding: 106 106 106
Width: 771
Flags: W
LayerCount: 2
Fore
SplineSet
422 578 m 0,0,1
 359 578 359 578 320 606 c 128,-1,2
 281 634 281 634 281 684 c 256,3,4
 281 734 281 734 320 761.5 c 128,-1,5
 359 789 359 789 422 789 c 0,6,7
 482 789 482 789 523 761.5 c 128,-1,8
 564 734 564 734 564 685 c 0,9,10
 564 634 564 634 523.5 606 c 128,-1,11
 483 578 483 578 422 578 c 0,0,1
422 628 m 0,12,13
 454 628 454 628 474 643 c 128,-1,14
 494 658 494 658 494 684 c 256,15,16
 494 710 494 710 473 725 c 128,-1,17
 452 740 452 740 422 740 c 0,18,19
 391 740 391 740 370.5 725 c 128,-1,20
 350 710 350 710 350 684 c 256,21,22
 350 658 350 658 368.5 643 c 128,-1,23
 387 628 387 628 422 628 c 0,12,13
626 0 m 1,24,-1
 122 0 l 1,25,-1
 122 58 l 1,26,-1
 492 468 l 1,27,-1
 144 468 l 1,28,-1
 144 536 l 1,29,-1
 617 536 l 1,30,-1
 617 470 l 1,31,-1
 252 68 l 1,32,-1
 626 68 l 1,33,-1
 626 0 l 1,24,-1
EndSplineSet
EndChar

StartChar: k
Encoding: 107 107 107
Width: 771
Flags: W
LayerCount: 2
Fore
SplineSet
124 0 m 1,0,-1
 124 760 l 1,1,-1
 240 760 l 1,2,-1
 240 394 l 2,3,4
 240 373 240 373 238.5 347 c 128,-1,5
 237 321 237 321 235 294 c 128,-1,6
 233 267 233 267 231 243 c 1,7,-1
 233 243 l 1,8,9
 258 268 258 268 280.5 288.5 c 128,-1,10
 303 309 303 309 327 331 c 2,11,-1
 565 536 l 1,12,-1
 704 536 l 1,13,-1
 430 305 l 1,14,-1
 722 0 l 1,15,-1
 588 0 l 1,16,-1
 353 252 l 1,17,-1
 240 167 l 1,18,-1
 240 0 l 1,19,-1
 124 0 l 1,0,-1
EndSplineSet
EndChar

StartChar: l
Encoding: 108 108 108
Width: 771
Flags: W
LayerCount: 2
Fore
SplineSet
445 -15 m 0,0,1
 488 -15 488 -15 533.5 -7 c 128,-1,2
 579 1 579 1 615 14 c 1,3,-1
 615 99 l 1,4,5
 586 89 586 89 542.5 78.5 c 128,-1,6
 499 68 499 68 454 68 c 0,7,8
 390 68 390 68 351.5 103.5 c 128,-1,9
 313 139 313 139 313 224 c 2,10,-1
 313 679 l 5,11,-1
 197 679 l 5,12,-1
 197 212 l 2,13,14
 197 140 197 140 225.5 89 c 128,-1,15
 254 38 254 38 308.5 11.5 c 128,-1,16
 363 -15 363 -15 445 -15 c 0,0,1
EndSplineSet
EndChar

StartChar: m
Encoding: 109 109 109
Width: 771
Flags: W
LayerCount: 2
Fore
SplineSet
64 0 m 1,0,-1
 64 536 l 1,1,-1
 144 536 l 1,2,-1
 160 477 l 1,3,-1
 167 477 l 1,4,5
 183 504 183 504 202.5 519 c 128,-1,6
 222 534 222 534 244.5 540 c 128,-1,7
 267 546 267 546 294 546 c 0,8,9
 347 546 347 546 375.5 526.5 c 128,-1,10
 404 507 404 507 420 469 c 1,11,-1
 424 469 l 1,12,13
 446 506 446 506 478.5 526 c 128,-1,14
 511 546 511 546 565 546 c 0,15,16
 618 546 618 546 649.5 525 c 128,-1,17
 681 504 681 504 694.5 461 c 128,-1,18
 708 418 708 418 708 350 c 2,19,-1
 708 0 l 1,20,-1
 605 0 l 1,21,-1
 605 335 l 2,22,23
 605 377 605 377 600.5 406.5 c 128,-1,24
 596 436 596 436 582 452 c 128,-1,25
 568 468 568 468 535 468 c 0,26,27
 505 468 505 468 483 445.5 c 128,-1,28
 461 423 461 423 449.5 379 c 128,-1,29
 438 335 438 335 438 268 c 2,30,-1
 438 0 l 1,31,-1
 335 0 l 1,32,-1
 335 335 l 2,33,34
 335 378 335 378 328.5 407.5 c 128,-1,35
 322 437 322 437 306 452.5 c 128,-1,36
 290 468 290 468 258 468 c 0,37,38
 224 468 224 468 203.5 443.5 c 128,-1,39
 183 419 183 419 175 374.5 c 128,-1,40
 167 330 167 330 167 268 c 2,41,-1
 167 0 l 1,42,-1
 64 0 l 1,0,-1
EndSplineSet
EndChar

StartChar: n
Encoding: 110 110 110
Width: 771
Flags: W
LayerCount: 2
Fore
SplineSet
102 0 m 1,0,-1
 102 536 l 1,1,-1
 194 536 l 1,2,-1
 211 457 l 1,3,-1
 217 457 l 1,4,5
 238 488 238 488 271 507.5 c 128,-1,6
 304 527 304 527 347.5 536.5 c 128,-1,7
 391 546 391 546 442 546 c 0,8,9
 546 546 546 546 610 500.5 c 128,-1,10
 674 455 674 455 674 358 c 2,11,-1
 674 0 l 1,12,-1
 558 0 l 1,13,-1
 558 342 l 2,14,15
 558 410 558 410 522.5 441.5 c 128,-1,16
 487 473 487 473 409 473 c 0,17,18
 304 473 304 473 260.5 421 c 128,-1,19
 217 369 217 369 217 275 c 2,20,-1
 217 0 l 1,21,-1
 102 0 l 1,0,-1
EndSplineSet
EndChar

StartChar: o
Encoding: 111 111 111
Width: 771
Flags: W
LayerCount: 2
Fore
SplineSet
706 269 m 0,0,1
 706 202 706 202 683.5 150.5 c 128,-1,2
 661 99 661 99 619 63 c 128,-1,3
 577 27 577 27 517.5 8.5 c 128,-1,4
 458 -10 458 -10 384 -10 c 0,5,6
 316 -10 316 -10 258.5 8.5 c 128,-1,7
 201 27 201 27 158.5 63 c 128,-1,8
 116 99 116 99 92 150.5 c 128,-1,9
 68 202 68 202 68 269 c 0,10,11
 68 358 68 358 106.5 419.5 c 128,-1,12
 145 481 145 481 217 513.5 c 128,-1,13
 289 546 289 546 388 546 c 0,14,15
 482 546 482 546 553.5 513.5 c 128,-1,16
 625 481 625 481 665.5 419.5 c 128,-1,17
 706 358 706 358 706 269 c 0,0,1
185 269 m 0,18,19
 185 206 185 206 206.5 159.5 c 128,-1,20
 228 113 228 113 273 88 c 128,-1,21
 318 63 318 63 387 63 c 256,22,23
 456 63 456 63 501 88 c 128,-1,24
 546 113 546 113 567.5 159.5 c 128,-1,25
 589 206 589 206 589 269 c 0,26,27
 589 333 589 333 567 378 c 128,-1,28
 545 423 545 423 500.5 447.5 c 128,-1,29
 456 472 456 472 386 472 c 0,30,31
 280 472 280 472 232.5 418 c 128,-1,32
 185 364 185 364 185 269 c 0,18,19
EndSplineSet
EndChar

StartChar: p
Encoding: 112 112 112
Width: 771
Flags: W
LayerCount: 2
Fore
SplineSet
99 -240 m 1,0,-1
 99 536 l 1,1,-1
 194 536 l 1,2,-1
 208 463 l 1,3,-1
 213 463 l 1,4,5
 234 489 234 489 262 507.5 c 128,-1,6
 290 526 290 526 329 536 c 128,-1,7
 368 546 368 546 419 546 c 0,8,9
 482 546 482 546 533.5 528.5 c 128,-1,10
 585 511 585 511 621.5 476 c 128,-1,11
 658 441 658 441 677.5 389 c 128,-1,12
 697 337 697 337 697 269 c 0,13,14
 697 178 697 178 662.5 115.5 c 128,-1,15
 628 53 628 53 566 21.5 c 128,-1,16
 504 -10 504 -10 419 -10 c 0,17,18
 369 -10 369 -10 329.5 1 c 128,-1,19
 290 12 290 12 262 30 c 128,-1,20
 234 48 234 48 213 69 c 1,21,-1
 206 69 l 1,22,23
 209 50 209 50 211 29.5 c 128,-1,24
 213 9 213 9 213 -11 c 2,25,-1
 213 -240 l 1,26,-1
 99 -240 l 1,0,-1
395 63 m 0,27,28
 491 63 491 63 534.5 114.5 c 128,-1,29
 578 166 578 166 578 271 c 0,30,31
 578 374 578 374 535 423.5 c 128,-1,32
 492 473 492 473 393 473 c 0,33,34
 299 473 299 473 256 425.5 c 128,-1,35
 213 378 213 378 213 289 c 2,36,-1
 213 269 l 2,37,38
 213 174 213 174 252.5 118.5 c 128,-1,39
 292 63 292 63 395 63 c 0,27,28
EndSplineSet
EndChar

StartChar: q
Encoding: 113 113 113
Width: 771
Flags: W
LayerCount: 2
Fore
SplineSet
360 578 m 0,0,1
 297 578 297 578 258.5 606 c 128,-1,2
 220 634 220 634 220 684 c 256,3,4
 220 734 220 734 258.5 761.5 c 128,-1,5
 297 789 297 789 360 789 c 0,6,7
 420 789 420 789 461 761.5 c 128,-1,8
 502 734 502 734 502 685 c 0,9,10
 502 634 502 634 461.5 606 c 128,-1,11
 421 578 421 578 360 578 c 0,0,1
360 628 m 0,12,13
 392 628 392 628 412 643 c 128,-1,14
 432 658 432 658 432 684 c 256,15,16
 432 710 432 710 411 725 c 128,-1,17
 390 740 390 740 360 740 c 0,18,19
 329 740 329 740 308.5 725 c 128,-1,20
 288 710 288 710 288 684 c 256,21,22
 288 658 288 658 306.5 643 c 128,-1,23
 325 628 325 628 360 628 c 0,12,13
231 363 m 2,24,25
 231 347 231 347 229 321 c 128,-1,26
 227 295 227 295 226 276 c 1,27,-1
 231 276 l 1,28,29
 239 284 239 284 254.5 299 c 128,-1,30
 270 314 270 314 286 330 c 0,31,32
 312 353 312 353 313 355 c 2,33,-1
 533 536 l 1,34,-1
 665 536 l 1,35,-1
 387 307 l 1,36,-1
 685 0 l 1,37,-1
 548 0 l 1,38,-1
 309 250 l 1,39,-1
 231 197 l 1,40,-1
 231 0 l 1,41,-1
 119 0 l 1,42,-1
 119 535 l 1,43,-1
 231 535 l 1,44,-1
 231 363 l 2,24,25
EndSplineSet
EndChar

StartChar: r
Encoding: 114 114 114
Width: 771
Flags: W
LayerCount: 2
Fore
SplineSet
75 0 m 1,0,-1
 75 60 l 1,1,-1
 284 75 l 1,2,-1
 284 461 l 1,3,-1
 95 474 l 1,4,-1
 95 536 l 1,5,-1
 377 536 l 1,6,-1
 392 438 l 1,7,-1
 397 438 l 1,8,9
 433 491 433 491 476 518.5 c 128,-1,10
 519 546 519 546 590 546 c 0,11,12
 634 546 634 546 668 540 c 128,-1,13
 702 534 702 534 730 524 c 1,14,-1
 699 445 l 1,15,16
 679 454 679 454 650.5 460.5 c 128,-1,17
 622 467 622 467 590 467 c 0,18,19
 535 467 535 467 492.5 440 c 128,-1,20
 450 413 450 413 425.5 368 c 128,-1,21
 401 323 401 323 401 269 c 2,22,-1
 401 75 l 1,23,-1
 601 60 l 1,24,-1
 601 0 l 1,25,-1
 75 0 l 1,0,-1
EndSplineSet
EndChar

StartChar: s
Encoding: 115 115 115
Width: 771
Flags: W
LayerCount: 2
Fore
SplineSet
358 -10 m 0,0,1
 294 -10 294 -10 235.5 -1 c 128,-1,2
 177 8 177 8 135 24 c 1,3,-1
 135 107 l 1,4,5
 180 91 180 91 234.5 77.5 c 128,-1,6
 289 64 289 64 365 64 c 0,7,8
 450 64 450 64 485 84.5 c 128,-1,9
 520 105 520 105 520 144 c 0,10,11
 520 165 520 165 508 178.5 c 128,-1,12
 496 192 496 192 461 206 c 128,-1,13
 426 220 426 220 360 242 c 0,14,15
 293 265 293 265 245.5 285 c 128,-1,16
 198 305 198 305 172 332.5 c 128,-1,17
 146 360 146 360 146 403 c 0,18,19
 146 451 146 451 177.5 482.5 c 128,-1,20
 209 514 209 514 269 530 c 128,-1,21
 329 546 329 546 411 546 c 0,22,23
 467 546 467 546 518.5 538 c 128,-1,24
 570 530 570 530 626 512 c 1,25,-1
 591 442 l 1,26,27
 539 459 539 459 496 465 c 128,-1,28
 453 471 453 471 411 471 c 0,29,30
 331 471 331 471 294.5 455 c 128,-1,31
 258 439 258 439 258 405 c 0,32,33
 258 383 258 383 274 368 c 128,-1,34
 290 353 290 353 326.5 339 c 128,-1,35
 363 325 363 325 424 305 c 0,36,37
 492 283 492 283 539.5 264 c 128,-1,38
 587 245 587 245 611.5 218.5 c 128,-1,39
 636 192 636 192 636 146 c 0,40,41
 636 95 636 95 604.5 60.5 c 128,-1,42
 573 26 573 26 511.5 8 c 128,-1,43
 450 -10 450 -10 358 -10 c 0,0,1
EndSplineSet
EndChar

StartChar: t
Encoding: 116 116 116
Width: 771
Flags: W
LayerCount: 2
Fore
SplineSet
520 -10 m 0,0,1
 447 -10 447 -10 389 5 c 128,-1,2
 331 20 331 20 297 58 c 128,-1,3
 263 96 263 96 263 163 c 2,4,-1
 263 461 l 1,5,-1
 76 461 l 1,6,-1
 76 523 l 1,7,-1
 263 539 l 1,8,-1
 286 679 l 1,9,-1
 379 679 l 1,10,-1
 379 536 l 1,11,-1
 648 536 l 1,12,-1
 648 461 l 1,13,-1
 379 461 l 1,14,-1
 379 180 l 2,15,16
 379 140 379 140 394 114 c 128,-1,17
 409 88 409 88 442 75.5 c 128,-1,18
 475 63 475 63 528 63 c 0,19,20
 561 63 561 63 600 68 c 128,-1,21
 639 73 639 73 667 78 c 1,22,-1
 667 6 l 1,23,24
 636 0 636 0 598.5 -5 c 128,-1,25
 561 -10 561 -10 520 -10 c 0,0,1
EndSplineSet
EndChar

StartChar: u
Encoding: 117 117 117
Width: 771
Flags: W
LayerCount: 2
Fore
SplineSet
681 536 m 1,0,-1
 681 0 l 1,1,-1
 588 0 l 1,2,-1
 571 71 l 1,3,-1
 566 71 l 1,4,5
 544 43 544 43 509.5 25 c 128,-1,6
 475 7 475 7 434 -1.5 c 128,-1,7
 393 -10 393 -10 348 -10 c 0,8,9
 266 -10 266 -10 210 10.5 c 128,-1,10
 154 31 154 31 125.5 74 c 128,-1,11
 97 117 97 117 97 185 c 2,12,-1
 97 536 l 1,13,-1
 212 536 l 1,14,-1
 212 191 l 2,15,16
 212 127 212 127 249 95 c 128,-1,17
 286 63 286 63 365 63 c 0,18,19
 442 63 442 63 486 85.5 c 128,-1,20
 530 108 530 108 549 151.5 c 128,-1,21
 568 195 568 195 568 257 c 2,22,-1
 568 536 l 1,23,-1
 681 536 l 1,0,-1
EndSplineSet
EndChar

StartChar: v
Encoding: 118 118 118
Width: 771
Flags: W
LayerCount: 2
Fore
SplineSet
312 0 m 1,0,-1
 58 536 l 1,1,-1
 176 536 l 1,2,-1
 320 218 l 2,3,4
 334 186 334 186 350 151 c 128,-1,5
 366 116 366 116 383 76 c 1,6,-1
 387 76 l 1,7,8
 403 116 403 116 420.5 151.5 c 128,-1,9
 438 187 438 187 451 218 c 2,10,-1
 591 536 l 1,11,-1
 712 536 l 1,12,-1
 455 0 l 1,13,-1
 312 0 l 1,0,-1
EndSplineSet
EndChar

StartChar: w
Encoding: 119 119 119
Width: 771
Flags: W
LayerCount: 2
Fore
SplineSet
126 0 m 1,0,-1
 16 536 l 1,1,-1
 124 536 l 1,2,-1
 174 271 l 2,3,4
 182 234 182 234 185 205 c 128,-1,5
 188 176 188 176 191.5 146 c 128,-1,6
 195 116 195 116 197 75 c 1,7,-1
 201 75 l 1,8,9
 205 92 205 92 212 122.5 c 128,-1,10
 219 153 219 153 228.5 188.5 c 128,-1,11
 238 224 238 224 250 254 c 2,12,-1
 317 435 l 1,13,-1
 444 435 l 1,14,-1
 508 254 l 2,15,16
 520 224 520 224 530 189.5 c 128,-1,17
 540 155 540 155 548.5 124.5 c 128,-1,18
 557 94 557 94 559 75 c 1,19,-1
 563 75 l 1,20,21
 567 115 567 115 569.5 144.5 c 128,-1,22
 572 174 572 174 576 203 c 128,-1,23
 580 232 580 232 588 271 c 2,24,-1
 642 536 l 1,25,-1
 747 536 l 1,26,-1
 634 0 l 1,27,-1
 495 0 l 1,28,-1
 434 188 l 2,29,30
 421 229 421 229 406.5 270 c 128,-1,31
 392 311 392 311 382 351 c 1,32,-1
 378 351 l 1,33,34
 368 311 368 311 353 270 c 128,-1,35
 338 229 338 229 324 188 c 2,36,-1
 261 0 l 1,37,-1
 126 0 l 1,0,-1
EndSplineSet
EndChar

StartChar: x
Encoding: 120 120 120
Width: 771
Flags: W
LayerCount: 2
Fore
SplineSet
174 138 m 1,0,-1
 110 187 l 1,1,-1
 321 353 l 1,2,-1
 109 518 l 1,3,-1
 173 568 l 1,4,-1
 385 402 l 1,5,-1
 600 568 l 1,6,-1
 663 519 l 1,7,-1
 449 353 l 1,8,-1
 661 187 l 1,9,-1
 598 138 l 1,10,-1
 384 302 l 1,11,-1
 174 138 l 1,0,-1
EndSplineSet
EndChar

StartChar: y
Encoding: 121 121 121
Width: 771
Flags: W
LayerCount: 2
Fore
SplineSet
175 -245 m 0,0,1
 149 -245 149 -245 124.5 -242.5 c 128,-1,2
 100 -240 100 -240 82 -237 c 1,3,-1
 82 -168 l 1,4,5
 98 -170 98 -170 119 -172 c 128,-1,6
 140 -174 140 -174 161 -174 c 0,7,8
 200 -174 200 -174 226.5 -164 c 128,-1,9
 253 -154 253 -154 273 -133 c 128,-1,10
 293 -112 293 -112 310 -78 c 2,11,-1
 347 -5 l 1,12,-1
 58 536 l 1,13,-1
 171 536 l 1,14,-1
 335 221 l 2,15,16
 352 190 352 190 368 152 c 128,-1,17
 384 114 384 114 397 79 c 1,18,-1
 401 79 l 1,19,20
 410 104 410 104 420 128.5 c 128,-1,21
 430 153 430 153 440 177 c 128,-1,22
 450 201 450 201 459 222 c 2,23,-1
 594 536 l 1,24,-1
 712 536 l 1,25,-1
 423 -70 l 2,26,27
 398 -122 398 -122 369 -161.5 c 128,-1,28
 340 -201 340 -201 294.5 -223 c 128,-1,29
 249 -245 249 -245 175 -245 c 0,0,1
EndSplineSet
EndChar

StartChar: z
Encoding: 122 122 122
Width: 771
Flags: W
LayerCount: 2
Fore
SplineSet
115 0 m 1,0,-1
 115 61 l 1,1,-1
 520 467 l 1,2,-1
 136 467 l 1,3,-1
 136 536 l 1,4,-1
 645 536 l 1,5,-1
 645 465 l 1,6,-1
 253 76 l 1,7,-1
 655 76 l 1,8,-1
 655 0 l 1,9,-1
 115 0 l 1,0,-1
EndSplineSet
EndChar

StartChar: braceleft.deva
Encoding: 123 123 123
Width: 771
Flags: W
LayerCount: 2
Fore
SplineSet
591 -158 m 1,0,1
 512 -157 512 -157 455 -140 c 128,-1,2
 398 -123 398 -123 367 -87.5 c 128,-1,3
 336 -52 336 -52 336 1 c 2,4,-1
 336 148 l 2,5,6
 336 199 336 199 295.5 220.5 c 128,-1,7
 255 242 255 242 180 242 c 1,8,-1
 180 315 l 1,9,10
 255 316 255 316 295.5 337 c 128,-1,11
 336 358 336 358 336 408 c 2,12,-1
 336 556 l 2,13,14
 336 609 336 609 368.5 644 c 128,-1,15
 401 679 401 679 458.5 696.5 c 128,-1,16
 516 714 516 714 591 714 c 1,17,-1
 591 642 l 1,18,19
 547 641 547 641 515 631 c 128,-1,20
 483 621 483 621 465.5 601 c 128,-1,21
 448 581 448 581 448 548 c 2,22,-1
 448 404 l 2,23,24
 448 353 448 353 413.5 322.5 c 128,-1,25
 379 292 379 292 308 282 c 1,26,-1
 308 276 l 1,27,28
 380 266 380 266 414 235.5 c 128,-1,29
 448 205 448 205 448 154 c 2,30,-1
 448 7 l 2,31,32
 448 -42 448 -42 485.5 -63.5 c 128,-1,33
 523 -85 523 -85 591 -86 c 1,34,-1
 591 -158 l 1,0,1
EndSplineSet
EndChar

StartChar: bar.deva
Encoding: 124 124 124
Width: 771
Flags: W
LayerCount: 2
Fore
SplineSet
339 -240 m 1,0,-1
 339 760 l 1,1,-1
 433 760 l 1,2,-1
 433 -240 l 1,3,-1
 339 -240 l 1,0,-1
EndSplineSet
EndChar

StartChar: braceright.deva
Encoding: 125 125 125
Width: 771
Flags: W
LayerCount: 2
Fore
SplineSet
180 714 m 1,0,1
 259 714 259 714 315.5 696.5 c 128,-1,2
 372 679 372 679 403 644 c 128,-1,3
 434 609 434 609 434 555 c 2,4,-1
 434 408 l 2,5,6
 434 357 434 357 474.5 335.5 c 128,-1,7
 515 314 515 314 591 314 c 1,8,-1
 591 241 l 1,9,10
 515 240 515 240 474.5 219 c 128,-1,11
 434 198 434 198 434 148 c 2,12,-1
 434 0 l 2,13,14
 434 -53 434 -53 402 -88 c 128,-1,15
 370 -123 370 -123 312.5 -140.5 c 128,-1,16
 255 -158 255 -158 180 -158 c 1,17,-1
 180 -86 l 1,18,19
 225 -85 225 -85 256.5 -75 c 128,-1,20
 288 -65 288 -65 305 -44.5 c 128,-1,21
 322 -24 322 -24 322 8 c 2,22,-1
 322 152 l 2,23,24
 322 203 322 203 357 233.5 c 128,-1,25
 392 264 392 264 462 274 c 1,26,-1
 462 280 l 1,27,28
 392 290 392 290 357 320.5 c 128,-1,29
 322 351 322 351 322 402 c 2,30,-1
 322 549 l 2,31,32
 322 598 322 598 285 619.5 c 128,-1,33
 248 641 248 641 180 642 c 1,34,-1
 180 714 l 1,0,1
EndSplineSet
EndChar

StartChar: asciitilde.deva
Encoding: 126 126 126
Width: 771
Flags: W
LayerCount: 2
Fore
SplineSet
95 287 m 1,0,1
 99 316 99 316 106.5 346.5 c 128,-1,2
 114 377 114 377 131 403.5 c 128,-1,3
 148 430 148 430 177 446 c 128,-1,4
 206 462 206 462 252 462 c 0,5,6
 281 462 281 462 306.5 454.5 c 128,-1,7
 332 447 332 447 357.5 432.5 c 128,-1,8
 383 418 383 418 413 396 c 0,9,10
 440 377 440 377 465.5 361.5 c 128,-1,11
 491 346 491 346 518 346 c 0,12,13
 554 346 554 346 570.5 376.5 c 128,-1,14
 587 407 587 407 596 462 c 1,15,-1
 673 462 l 1,16,17
 670 436 670 436 661.5 406 c 128,-1,18
 653 376 653 376 636 349 c 128,-1,19
 619 322 619 322 590.5 304.5 c 128,-1,20
 562 287 562 287 517 287 c 0,21,22
 487 287 487 287 460.5 295 c 128,-1,23
 434 303 434 303 410.5 317.5 c 128,-1,24
 387 332 387 332 362 350 c 0,25,26
 333 373 333 373 307 388 c 128,-1,27
 281 403 281 403 252 403 c 0,28,29
 215 403 215 403 196 374.5 c 128,-1,30
 177 346 177 346 171 287 c 1,31,-1
 95 287 l 1,0,1
EndSplineSet
EndChar

StartChar: uni0080
Encoding: 128 128 128
Width: 771
Flags: W
LayerCount: 2
Fore
SplineSet
122 85 m 0,0,1
 122 103 122 103 142 118 c 128,-1,2
 162 133 162 133 198 144.5 c 128,-1,3
 234 156 234 156 282 162.5 c 128,-1,4
 330 169 330 169 385 169 c 0,5,6
 442 169 442 169 490 162.5 c 128,-1,7
 538 156 538 156 573.5 144.5 c 128,-1,8
 609 133 609 133 629.5 118 c 128,-1,9
 650 103 650 103 650 85 c 0,10,11
 650 68 650 68 629.5 53 c 128,-1,12
 609 38 609 38 573.5 27 c 128,-1,13
 538 16 538 16 490 9.5 c 128,-1,14
 442 3 442 3 385 3 c 0,15,16
 330 3 330 3 282 9.5 c 128,-1,17
 234 16 234 16 198 27 c 128,-1,18
 162 38 162 38 142 53 c 128,-1,19
 122 68 122 68 122 85 c 0,0,1
225 85 m 256,20,21
 225 74 225 74 237 64.5 c 128,-1,22
 249 55 249 55 271 48.5 c 128,-1,23
 293 42 293 42 322.5 38 c 128,-1,24
 352 34 352 34 385 34 c 0,25,26
 420 34 420 34 449 38 c 128,-1,27
 478 42 478 42 500 48.5 c 128,-1,28
 522 55 522 55 534 64.5 c 128,-1,29
 546 74 546 74 546 85 c 256,30,31
 546 96 546 96 534 105.5 c 128,-1,32
 522 115 522 115 500 122 c 128,-1,33
 478 129 478 129 449 133 c 128,-1,34
 420 137 420 137 385 137 c 0,35,36
 352 137 352 137 322.5 133 c 128,-1,37
 293 129 293 129 271 122 c 128,-1,38
 249 115 249 115 237 105.5 c 128,-1,39
 225 96 225 96 225 85 c 256,20,21
122 272 m 0,40,41
 122 290 122 290 142 305 c 128,-1,42
 162 320 162 320 198 331.5 c 128,-1,43
 234 343 234 343 282 349 c 128,-1,44
 330 355 330 355 385 355 c 0,45,46
 442 355 442 355 490 349 c 128,-1,47
 538 343 538 343 573.5 331.5 c 128,-1,48
 609 320 609 320 629.5 305 c 128,-1,49
 650 290 650 290 650 272 c 0,50,51
 650 255 650 255 629.5 240 c 128,-1,52
 609 225 609 225 573.5 214 c 128,-1,53
 538 203 538 203 490 196 c 128,-1,54
 442 189 442 189 385 189 c 0,55,56
 330 189 330 189 282 196 c 128,-1,57
 234 203 234 203 198 214 c 128,-1,58
 162 225 162 225 142 240 c 128,-1,59
 122 255 122 255 122 272 c 0,40,41
225 272 m 256,60,61
 225 261 225 261 237 251.5 c 128,-1,62
 249 242 249 242 271 235 c 128,-1,63
 293 228 293 228 322.5 224 c 128,-1,64
 352 220 352 220 385 220 c 0,65,66
 420 220 420 220 449 224 c 128,-1,67
 478 228 478 228 500 235 c 128,-1,68
 522 242 522 242 534 251.5 c 128,-1,69
 546 261 546 261 546 272 c 256,70,71
 546 283 546 283 534 292.5 c 128,-1,72
 522 302 522 302 500 309 c 128,-1,73
 478 316 478 316 449 320 c 128,-1,74
 420 324 420 324 385 324 c 0,75,76
 352 324 352 324 322.5 320 c 128,-1,77
 293 316 293 316 271 309 c 128,-1,78
 249 302 249 302 237 292.5 c 128,-1,79
 225 283 225 283 225 272 c 256,60,61
122 461 m 256,80,81
 122 478 122 478 142 493.5 c 128,-1,82
 162 509 162 509 198 520 c 128,-1,83
 234 531 234 531 282 537.5 c 128,-1,84
 330 544 330 544 385 544 c 0,85,86
 442 544 442 544 490 537.5 c 128,-1,87
 538 531 538 531 573.5 520 c 128,-1,88
 609 509 609 509 629.5 493.5 c 128,-1,89
 650 478 650 478 650 461 c 256,90,91
 650 444 650 444 629.5 429 c 128,-1,92
 609 414 609 414 573.5 402.5 c 128,-1,93
 538 391 538 391 490 384.5 c 128,-1,94
 442 378 442 378 385 378 c 0,95,96
 330 378 330 378 282 384.5 c 128,-1,97
 234 391 234 391 198 402.5 c 128,-1,98
 162 414 162 414 142 429 c 128,-1,99
 122 444 122 444 122 461 c 256,80,81
225 461 m 256,100,101
 225 450 225 450 237 440.5 c 128,-1,102
 249 431 249 431 271 424 c 128,-1,103
 293 417 293 417 322.5 413 c 128,-1,104
 352 409 352 409 385 409 c 0,105,106
 420 409 420 409 449 413 c 128,-1,107
 478 417 478 417 500 424 c 128,-1,108
 522 431 522 431 534 440.5 c 128,-1,109
 546 450 546 450 546 461 c 256,110,111
 546 472 546 472 534 481.5 c 128,-1,112
 522 491 522 491 500 498 c 128,-1,113
 478 505 478 505 449 509 c 128,-1,114
 420 513 420 513 385 513 c 0,115,116
 352 513 352 513 322.5 509 c 128,-1,117
 293 505 293 505 271 498 c 128,-1,118
 249 491 249 491 237 481.5 c 128,-1,119
 225 472 225 472 225 461 c 256,100,101
122 648 m 256,120,121
 122 665 122 665 142 680.5 c 128,-1,122
 162 696 162 696 198 707 c 128,-1,123
 234 718 234 718 282 724.5 c 128,-1,124
 330 731 330 731 385 731 c 0,125,126
 442 731 442 731 490 724.5 c 128,-1,127
 538 718 538 718 573.5 707 c 128,-1,128
 609 696 609 696 629.5 680.5 c 128,-1,129
 650 665 650 665 650 648 c 256,130,131
 650 631 650 631 629.5 616 c 128,-1,132
 609 601 609 601 573.5 589.5 c 128,-1,133
 538 578 538 578 490 571.5 c 128,-1,134
 442 565 442 565 385 565 c 0,135,136
 330 565 330 565 282 571.5 c 128,-1,137
 234 578 234 578 198 589.5 c 128,-1,138
 162 601 162 601 142 616 c 128,-1,139
 122 631 122 631 122 648 c 256,120,121
225 648 m 0,140,141
 225 637 225 637 237 627.5 c 128,-1,142
 249 618 249 618 271 611 c 128,-1,143
 293 604 293 604 322.5 600 c 128,-1,144
 352 596 352 596 385 596 c 0,145,146
 420 596 420 596 449 600 c 128,-1,147
 478 604 478 604 500 611 c 128,-1,148
 522 618 522 618 534 627.5 c 128,-1,149
 546 637 546 637 546 648 c 0,150,151
 546 658 546 658 534 668 c 128,-1,152
 522 678 522 678 500 685 c 128,-1,153
 478 692 478 692 449 696 c 128,-1,154
 420 700 420 700 385 700 c 0,155,156
 352 700 352 700 322.5 696 c 128,-1,157
 293 692 293 692 271 685 c 128,-1,158
 249 678 249 678 237 668 c 128,-1,159
 225 658 225 658 225 648 c 0,140,141
EndSplineSet
EndChar

StartChar: uni0081
Encoding: 129 129 129
Width: 771
Flags: W
LayerCount: 2
Fore
SplineSet
122 85 m 0,0,1
 122 103 122 103 142 118 c 128,-1,2
 162 133 162 133 198 144.5 c 128,-1,3
 234 156 234 156 282 162.5 c 128,-1,4
 330 169 330 169 385 169 c 0,5,6
 442 169 442 169 490 162.5 c 128,-1,7
 538 156 538 156 573.5 144.5 c 128,-1,8
 609 133 609 133 629.5 118 c 128,-1,9
 650 103 650 103 650 85 c 0,10,11
 650 68 650 68 629.5 53 c 128,-1,12
 609 38 609 38 573.5 27 c 128,-1,13
 538 16 538 16 490 9.5 c 128,-1,14
 442 3 442 3 385 3 c 0,15,16
 330 3 330 3 282 9.5 c 128,-1,17
 234 16 234 16 198 27 c 128,-1,18
 162 38 162 38 142 53 c 128,-1,19
 122 68 122 68 122 85 c 0,0,1
122 272 m 0,20,21
 122 290 122 290 142 305 c 128,-1,22
 162 320 162 320 198 331.5 c 128,-1,23
 234 343 234 343 282 349 c 128,-1,24
 330 355 330 355 385 355 c 0,25,26
 442 355 442 355 490 349 c 128,-1,27
 538 343 538 343 573.5 331.5 c 128,-1,28
 609 320 609 320 629.5 305 c 128,-1,29
 650 290 650 290 650 272 c 0,30,31
 650 255 650 255 629.5 240 c 128,-1,32
 609 225 609 225 573.5 214 c 128,-1,33
 538 203 538 203 490 196 c 128,-1,34
 442 189 442 189 385 189 c 0,35,36
 330 189 330 189 282 196 c 128,-1,37
 234 203 234 203 198 214 c 128,-1,38
 162 225 162 225 142 240 c 128,-1,39
 122 255 122 255 122 272 c 0,20,21
225 272 m 256,40,41
 225 261 225 261 237 251.5 c 128,-1,42
 249 242 249 242 271 235 c 128,-1,43
 293 228 293 228 322.5 224 c 128,-1,44
 352 220 352 220 385 220 c 0,45,46
 420 220 420 220 449 224 c 128,-1,47
 478 228 478 228 500 235 c 128,-1,48
 522 242 522 242 534 251.5 c 128,-1,49
 546 261 546 261 546 272 c 256,50,51
 546 283 546 283 534 292.5 c 128,-1,52
 522 302 522 302 500 309 c 128,-1,53
 478 316 478 316 449 320 c 128,-1,54
 420 324 420 324 385 324 c 0,55,56
 352 324 352 324 322.5 320 c 128,-1,57
 293 316 293 316 271 309 c 128,-1,58
 249 302 249 302 237 292.5 c 128,-1,59
 225 283 225 283 225 272 c 256,40,41
122 461 m 256,60,61
 122 478 122 478 142 493.5 c 128,-1,62
 162 509 162 509 198 520 c 128,-1,63
 234 531 234 531 282 537.5 c 128,-1,64
 330 544 330 544 385 544 c 0,65,66
 442 544 442 544 490 537.5 c 128,-1,67
 538 531 538 531 573.5 520 c 128,-1,68
 609 509 609 509 629.5 493.5 c 128,-1,69
 650 478 650 478 650 461 c 256,70,71
 650 444 650 444 629.5 429 c 128,-1,72
 609 414 609 414 573.5 402.5 c 128,-1,73
 538 391 538 391 490 384.5 c 128,-1,74
 442 378 442 378 385 378 c 0,75,76
 330 378 330 378 282 384.5 c 128,-1,77
 234 391 234 391 198 402.5 c 128,-1,78
 162 414 162 414 142 429 c 128,-1,79
 122 444 122 444 122 461 c 256,60,61
225 461 m 256,80,81
 225 450 225 450 237 440.5 c 128,-1,82
 249 431 249 431 271 424 c 128,-1,83
 293 417 293 417 322.5 413 c 128,-1,84
 352 409 352 409 385 409 c 0,85,86
 420 409 420 409 449 413 c 128,-1,87
 478 417 478 417 500 424 c 128,-1,88
 522 431 522 431 534 440.5 c 128,-1,89
 546 450 546 450 546 461 c 256,90,91
 546 472 546 472 534 481.5 c 128,-1,92
 522 491 522 491 500 498 c 128,-1,93
 478 505 478 505 449 509 c 128,-1,94
 420 513 420 513 385 513 c 0,95,96
 352 513 352 513 322.5 509 c 128,-1,97
 293 505 293 505 271 498 c 128,-1,98
 249 491 249 491 237 481.5 c 128,-1,99
 225 472 225 472 225 461 c 256,80,81
122 648 m 256,100,101
 122 665 122 665 142 680.5 c 128,-1,102
 162 696 162 696 198 707 c 128,-1,103
 234 718 234 718 282 724.5 c 128,-1,104
 330 731 330 731 385 731 c 0,105,106
 442 731 442 731 490 724.5 c 128,-1,107
 538 718 538 718 573.5 707 c 128,-1,108
 609 696 609 696 629.5 680.5 c 128,-1,109
 650 665 650 665 650 648 c 256,110,111
 650 631 650 631 629.5 616 c 128,-1,112
 609 601 609 601 573.5 589.5 c 128,-1,113
 538 578 538 578 490 571.5 c 128,-1,114
 442 565 442 565 385 565 c 0,115,116
 330 565 330 565 282 571.5 c 128,-1,117
 234 578 234 578 198 589.5 c 128,-1,118
 162 601 162 601 142 616 c 128,-1,119
 122 631 122 631 122 648 c 256,100,101
225 648 m 0,120,121
 225 637 225 637 237 627.5 c 128,-1,122
 249 618 249 618 271 611 c 128,-1,123
 293 604 293 604 322.5 600 c 128,-1,124
 352 596 352 596 385 596 c 0,125,126
 420 596 420 596 449 600 c 128,-1,127
 478 604 478 604 500 611 c 128,-1,128
 522 618 522 618 534 627.5 c 128,-1,129
 546 637 546 637 546 648 c 0,130,131
 546 658 546 658 534 668 c 128,-1,132
 522 678 522 678 500 685 c 128,-1,133
 478 692 478 692 449 696 c 128,-1,134
 420 700 420 700 385 700 c 0,135,136
 352 700 352 700 322.5 696 c 128,-1,137
 293 692 293 692 271 685 c 128,-1,138
 249 678 249 678 237 668 c 128,-1,139
 225 658 225 658 225 648 c 0,120,121
EndSplineSet
EndChar

StartChar: uni0082
Encoding: 130 130 130
Width: 771
Flags: W
LayerCount: 2
Fore
SplineSet
122 85 m 0,0,1
 122 103 122 103 142 118 c 128,-1,2
 162 133 162 133 198 144.5 c 128,-1,3
 234 156 234 156 282 162.5 c 128,-1,4
 330 169 330 169 385 169 c 0,5,6
 442 169 442 169 490 162.5 c 128,-1,7
 538 156 538 156 573.5 144.5 c 128,-1,8
 609 133 609 133 629.5 118 c 128,-1,9
 650 103 650 103 650 85 c 0,10,11
 650 68 650 68 629.5 53 c 128,-1,12
 609 38 609 38 573.5 27 c 128,-1,13
 538 16 538 16 490 9.5 c 128,-1,14
 442 3 442 3 385 3 c 0,15,16
 330 3 330 3 282 9.5 c 128,-1,17
 234 16 234 16 198 27 c 128,-1,18
 162 38 162 38 142 53 c 128,-1,19
 122 68 122 68 122 85 c 0,0,1
225 85 m 256,20,21
 225 74 225 74 237 64.5 c 128,-1,22
 249 55 249 55 271 48.5 c 128,-1,23
 293 42 293 42 322.5 38 c 128,-1,24
 352 34 352 34 385 34 c 0,25,26
 420 34 420 34 449 38 c 128,-1,27
 478 42 478 42 500 48.5 c 128,-1,28
 522 55 522 55 534 64.5 c 128,-1,29
 546 74 546 74 546 85 c 256,30,31
 546 96 546 96 534 105.5 c 128,-1,32
 522 115 522 115 500 122 c 128,-1,33
 478 129 478 129 449 133 c 128,-1,34
 420 137 420 137 385 137 c 0,35,36
 352 137 352 137 322.5 133 c 128,-1,37
 293 129 293 129 271 122 c 128,-1,38
 249 115 249 115 237 105.5 c 128,-1,39
 225 96 225 96 225 85 c 256,20,21
122 272 m 0,40,41
 122 290 122 290 142 305 c 128,-1,42
 162 320 162 320 198 331.5 c 128,-1,43
 234 343 234 343 282 349 c 128,-1,44
 330 355 330 355 385 355 c 0,45,46
 442 355 442 355 490 349 c 128,-1,47
 538 343 538 343 573.5 331.5 c 128,-1,48
 609 320 609 320 629.5 305 c 128,-1,49
 650 290 650 290 650 272 c 0,50,51
 650 255 650 255 629.5 240 c 128,-1,52
 609 225 609 225 573.5 214 c 128,-1,53
 538 203 538 203 490 196 c 128,-1,54
 442 189 442 189 385 189 c 0,55,56
 330 189 330 189 282 196 c 128,-1,57
 234 203 234 203 198 214 c 128,-1,58
 162 225 162 225 142 240 c 128,-1,59
 122 255 122 255 122 272 c 0,40,41
122 461 m 256,60,61
 122 478 122 478 142 493.5 c 128,-1,62
 162 509 162 509 198 520 c 128,-1,63
 234 531 234 531 282 537.5 c 128,-1,64
 330 544 330 544 385 544 c 0,65,66
 442 544 442 544 490 537.5 c 128,-1,67
 538 531 538 531 573.5 520 c 128,-1,68
 609 509 609 509 629.5 493.5 c 128,-1,69
 650 478 650 478 650 461 c 256,70,71
 650 444 650 444 629.5 429 c 128,-1,72
 609 414 609 414 573.5 402.5 c 128,-1,73
 538 391 538 391 490 384.5 c 128,-1,74
 442 378 442 378 385 378 c 0,75,76
 330 378 330 378 282 384.5 c 128,-1,77
 234 391 234 391 198 402.5 c 128,-1,78
 162 414 162 414 142 429 c 128,-1,79
 122 444 122 444 122 461 c 256,60,61
225 461 m 256,80,81
 225 450 225 450 237 440.5 c 128,-1,82
 249 431 249 431 271 424 c 128,-1,83
 293 417 293 417 322.5 413 c 128,-1,84
 352 409 352 409 385 409 c 0,85,86
 420 409 420 409 449 413 c 128,-1,87
 478 417 478 417 500 424 c 128,-1,88
 522 431 522 431 534 440.5 c 128,-1,89
 546 450 546 450 546 461 c 256,90,91
 546 472 546 472 534 481.5 c 128,-1,92
 522 491 522 491 500 498 c 128,-1,93
 478 505 478 505 449 509 c 128,-1,94
 420 513 420 513 385 513 c 0,95,96
 352 513 352 513 322.5 509 c 128,-1,97
 293 505 293 505 271 498 c 128,-1,98
 249 491 249 491 237 481.5 c 128,-1,99
 225 472 225 472 225 461 c 256,80,81
122 648 m 256,100,101
 122 665 122 665 142 680.5 c 128,-1,102
 162 696 162 696 198 707 c 128,-1,103
 234 718 234 718 282 724.5 c 128,-1,104
 330 731 330 731 385 731 c 0,105,106
 442 731 442 731 490 724.5 c 128,-1,107
 538 718 538 718 573.5 707 c 128,-1,108
 609 696 609 696 629.5 680.5 c 128,-1,109
 650 665 650 665 650 648 c 256,110,111
 650 631 650 631 629.5 616 c 128,-1,112
 609 601 609 601 573.5 589.5 c 128,-1,113
 538 578 538 578 490 571.5 c 128,-1,114
 442 565 442 565 385 565 c 0,115,116
 330 565 330 565 282 571.5 c 128,-1,117
 234 578 234 578 198 589.5 c 128,-1,118
 162 601 162 601 142 616 c 128,-1,119
 122 631 122 631 122 648 c 256,100,101
225 648 m 0,120,121
 225 637 225 637 237 627.5 c 128,-1,122
 249 618 249 618 271 611 c 128,-1,123
 293 604 293 604 322.5 600 c 128,-1,124
 352 596 352 596 385 596 c 0,125,126
 420 596 420 596 449 600 c 128,-1,127
 478 604 478 604 500 611 c 128,-1,128
 522 618 522 618 534 627.5 c 128,-1,129
 546 637 546 637 546 648 c 0,130,131
 546 658 546 658 534 668 c 128,-1,132
 522 678 522 678 500 685 c 128,-1,133
 478 692 478 692 449 696 c 128,-1,134
 420 700 420 700 385 700 c 0,135,136
 352 700 352 700 322.5 696 c 128,-1,137
 293 692 293 692 271 685 c 128,-1,138
 249 678 249 678 237 668 c 128,-1,139
 225 658 225 658 225 648 c 0,120,121
EndSplineSet
EndChar

StartChar: uni0083
Encoding: 131 131 131
Width: 771
Flags: W
LayerCount: 2
Fore
SplineSet
122 85 m 0,0,1
 122 103 122 103 142 118 c 128,-1,2
 162 133 162 133 198 144.5 c 128,-1,3
 234 156 234 156 282 162.5 c 128,-1,4
 330 169 330 169 385 169 c 0,5,6
 442 169 442 169 490 162.5 c 128,-1,7
 538 156 538 156 573.5 144.5 c 128,-1,8
 609 133 609 133 629.5 118 c 128,-1,9
 650 103 650 103 650 85 c 0,10,11
 650 68 650 68 629.5 53 c 128,-1,12
 609 38 609 38 573.5 27 c 128,-1,13
 538 16 538 16 490 9.5 c 128,-1,14
 442 3 442 3 385 3 c 0,15,16
 330 3 330 3 282 9.5 c 128,-1,17
 234 16 234 16 198 27 c 128,-1,18
 162 38 162 38 142 53 c 128,-1,19
 122 68 122 68 122 85 c 0,0,1
122 272 m 0,20,21
 122 290 122 290 142 305 c 128,-1,22
 162 320 162 320 198 331.5 c 128,-1,23
 234 343 234 343 282 349 c 128,-1,24
 330 355 330 355 385 355 c 0,25,26
 442 355 442 355 490 349 c 128,-1,27
 538 343 538 343 573.5 331.5 c 128,-1,28
 609 320 609 320 629.5 305 c 128,-1,29
 650 290 650 290 650 272 c 0,30,31
 650 255 650 255 629.5 240 c 128,-1,32
 609 225 609 225 573.5 214 c 128,-1,33
 538 203 538 203 490 196 c 128,-1,34
 442 189 442 189 385 189 c 0,35,36
 330 189 330 189 282 196 c 128,-1,37
 234 203 234 203 198 214 c 128,-1,38
 162 225 162 225 142 240 c 128,-1,39
 122 255 122 255 122 272 c 0,20,21
122 461 m 256,40,41
 122 478 122 478 142 493.5 c 128,-1,42
 162 509 162 509 198 520 c 128,-1,43
 234 531 234 531 282 537.5 c 128,-1,44
 330 544 330 544 385 544 c 0,45,46
 442 544 442 544 490 537.5 c 128,-1,47
 538 531 538 531 573.5 520 c 128,-1,48
 609 509 609 509 629.5 493.5 c 128,-1,49
 650 478 650 478 650 461 c 256,50,51
 650 444 650 444 629.5 429 c 128,-1,52
 609 414 609 414 573.5 402.5 c 128,-1,53
 538 391 538 391 490 384.5 c 128,-1,54
 442 378 442 378 385 378 c 0,55,56
 330 378 330 378 282 384.5 c 128,-1,57
 234 391 234 391 198 402.5 c 128,-1,58
 162 414 162 414 142 429 c 128,-1,59
 122 444 122 444 122 461 c 256,40,41
225 461 m 256,60,61
 225 450 225 450 237 440.5 c 128,-1,62
 249 431 249 431 271 424 c 128,-1,63
 293 417 293 417 322.5 413 c 128,-1,64
 352 409 352 409 385 409 c 0,65,66
 420 409 420 409 449 413 c 128,-1,67
 478 417 478 417 500 424 c 128,-1,68
 522 431 522 431 534 440.5 c 128,-1,69
 546 450 546 450 546 461 c 256,70,71
 546 472 546 472 534 481.5 c 128,-1,72
 522 491 522 491 500 498 c 128,-1,73
 478 505 478 505 449 509 c 128,-1,74
 420 513 420 513 385 513 c 0,75,76
 352 513 352 513 322.5 509 c 128,-1,77
 293 505 293 505 271 498 c 128,-1,78
 249 491 249 491 237 481.5 c 128,-1,79
 225 472 225 472 225 461 c 256,60,61
122 648 m 256,80,81
 122 665 122 665 142 680.5 c 128,-1,82
 162 696 162 696 198 707 c 128,-1,83
 234 718 234 718 282 724.5 c 128,-1,84
 330 731 330 731 385 731 c 0,85,86
 442 731 442 731 490 724.5 c 128,-1,87
 538 718 538 718 573.5 707 c 128,-1,88
 609 696 609 696 629.5 680.5 c 128,-1,89
 650 665 650 665 650 648 c 256,90,91
 650 631 650 631 629.5 616 c 128,-1,92
 609 601 609 601 573.5 589.5 c 128,-1,93
 538 578 538 578 490 571.5 c 128,-1,94
 442 565 442 565 385 565 c 0,95,96
 330 565 330 565 282 571.5 c 128,-1,97
 234 578 234 578 198 589.5 c 128,-1,98
 162 601 162 601 142 616 c 128,-1,99
 122 631 122 631 122 648 c 256,80,81
225 648 m 0,100,101
 225 637 225 637 237 627.5 c 128,-1,102
 249 618 249 618 271 611 c 128,-1,103
 293 604 293 604 322.5 600 c 128,-1,104
 352 596 352 596 385 596 c 0,105,106
 420 596 420 596 449 600 c 128,-1,107
 478 604 478 604 500 611 c 128,-1,108
 522 618 522 618 534 627.5 c 128,-1,109
 546 637 546 637 546 648 c 0,110,111
 546 658 546 658 534 668 c 128,-1,112
 522 678 522 678 500 685 c 128,-1,113
 478 692 478 692 449 696 c 128,-1,114
 420 700 420 700 385 700 c 0,115,116
 352 700 352 700 322.5 696 c 128,-1,117
 293 692 293 692 271 685 c 128,-1,118
 249 678 249 678 237 668 c 128,-1,119
 225 658 225 658 225 648 c 0,100,101
EndSplineSet
EndChar

StartChar: uni0084
Encoding: 132 132 132
Width: 771
Flags: W
LayerCount: 2
Fore
SplineSet
122 85 m 0,0,1
 122 103 122 103 142 118 c 128,-1,2
 162 133 162 133 198 144.5 c 128,-1,3
 234 156 234 156 282 162.5 c 128,-1,4
 330 169 330 169 385 169 c 0,5,6
 442 169 442 169 490 162.5 c 128,-1,7
 538 156 538 156 573.5 144.5 c 128,-1,8
 609 133 609 133 629.5 118 c 128,-1,9
 650 103 650 103 650 85 c 0,10,11
 650 68 650 68 629.5 53 c 128,-1,12
 609 38 609 38 573.5 27 c 128,-1,13
 538 16 538 16 490 9.5 c 128,-1,14
 442 3 442 3 385 3 c 0,15,16
 330 3 330 3 282 9.5 c 128,-1,17
 234 16 234 16 198 27 c 128,-1,18
 162 38 162 38 142 53 c 128,-1,19
 122 68 122 68 122 85 c 0,0,1
225 85 m 256,20,21
 225 74 225 74 237 64.5 c 128,-1,22
 249 55 249 55 271 48.5 c 128,-1,23
 293 42 293 42 322.5 38 c 128,-1,24
 352 34 352 34 385 34 c 0,25,26
 420 34 420 34 449 38 c 128,-1,27
 478 42 478 42 500 48.5 c 128,-1,28
 522 55 522 55 534 64.5 c 128,-1,29
 546 74 546 74 546 85 c 256,30,31
 546 96 546 96 534 105.5 c 128,-1,32
 522 115 522 115 500 122 c 128,-1,33
 478 129 478 129 449 133 c 128,-1,34
 420 137 420 137 385 137 c 0,35,36
 352 137 352 137 322.5 133 c 128,-1,37
 293 129 293 129 271 122 c 128,-1,38
 249 115 249 115 237 105.5 c 128,-1,39
 225 96 225 96 225 85 c 256,20,21
122 272 m 0,40,41
 122 290 122 290 142 305 c 128,-1,42
 162 320 162 320 198 331.5 c 128,-1,43
 234 343 234 343 282 349 c 128,-1,44
 330 355 330 355 385 355 c 0,45,46
 442 355 442 355 490 349 c 128,-1,47
 538 343 538 343 573.5 331.5 c 128,-1,48
 609 320 609 320 629.5 305 c 128,-1,49
 650 290 650 290 650 272 c 0,50,51
 650 255 650 255 629.5 240 c 128,-1,52
 609 225 609 225 573.5 214 c 128,-1,53
 538 203 538 203 490 196 c 128,-1,54
 442 189 442 189 385 189 c 0,55,56
 330 189 330 189 282 196 c 128,-1,57
 234 203 234 203 198 214 c 128,-1,58
 162 225 162 225 142 240 c 128,-1,59
 122 255 122 255 122 272 c 0,40,41
225 272 m 256,60,61
 225 261 225 261 237 251.5 c 128,-1,62
 249 242 249 242 271 235 c 128,-1,63
 293 228 293 228 322.5 224 c 128,-1,64
 352 220 352 220 385 220 c 0,65,66
 420 220 420 220 449 224 c 128,-1,67
 478 228 478 228 500 235 c 128,-1,68
 522 242 522 242 534 251.5 c 128,-1,69
 546 261 546 261 546 272 c 256,70,71
 546 283 546 283 534 292.5 c 128,-1,72
 522 302 522 302 500 309 c 128,-1,73
 478 316 478 316 449 320 c 128,-1,74
 420 324 420 324 385 324 c 0,75,76
 352 324 352 324 322.5 320 c 128,-1,77
 293 316 293 316 271 309 c 128,-1,78
 249 302 249 302 237 292.5 c 128,-1,79
 225 283 225 283 225 272 c 256,60,61
122 461 m 256,80,81
 122 478 122 478 142 493.5 c 128,-1,82
 162 509 162 509 198 520 c 128,-1,83
 234 531 234 531 282 537.5 c 128,-1,84
 330 544 330 544 385 544 c 0,85,86
 442 544 442 544 490 537.5 c 128,-1,87
 538 531 538 531 573.5 520 c 128,-1,88
 609 509 609 509 629.5 493.5 c 128,-1,89
 650 478 650 478 650 461 c 256,90,91
 650 444 650 444 629.5 429 c 128,-1,92
 609 414 609 414 573.5 402.5 c 128,-1,93
 538 391 538 391 490 384.5 c 128,-1,94
 442 378 442 378 385 378 c 0,95,96
 330 378 330 378 282 384.5 c 128,-1,97
 234 391 234 391 198 402.5 c 128,-1,98
 162 414 162 414 142 429 c 128,-1,99
 122 444 122 444 122 461 c 256,80,81
122 648 m 256,100,101
 122 665 122 665 142 680.5 c 128,-1,102
 162 696 162 696 198 707 c 128,-1,103
 234 718 234 718 282 724.5 c 128,-1,104
 330 731 330 731 385 731 c 0,105,106
 442 731 442 731 490 724.5 c 128,-1,107
 538 718 538 718 573.5 707 c 128,-1,108
 609 696 609 696 629.5 680.5 c 128,-1,109
 650 665 650 665 650 648 c 256,110,111
 650 631 650 631 629.5 616 c 128,-1,112
 609 601 609 601 573.5 589.5 c 128,-1,113
 538 578 538 578 490 571.5 c 128,-1,114
 442 565 442 565 385 565 c 0,115,116
 330 565 330 565 282 571.5 c 128,-1,117
 234 578 234 578 198 589.5 c 128,-1,118
 162 601 162 601 142 616 c 128,-1,119
 122 631 122 631 122 648 c 256,100,101
225 648 m 0,120,121
 225 637 225 637 237 627.5 c 128,-1,122
 249 618 249 618 271 611 c 128,-1,123
 293 604 293 604 322.5 600 c 128,-1,124
 352 596 352 596 385 596 c 0,125,126
 420 596 420 596 449 600 c 128,-1,127
 478 604 478 604 500 611 c 128,-1,128
 522 618 522 618 534 627.5 c 128,-1,129
 546 637 546 637 546 648 c 0,130,131
 546 658 546 658 534 668 c 128,-1,132
 522 678 522 678 500 685 c 128,-1,133
 478 692 478 692 449 696 c 128,-1,134
 420 700 420 700 385 700 c 0,135,136
 352 700 352 700 322.5 696 c 128,-1,137
 293 692 293 692 271 685 c 128,-1,138
 249 678 249 678 237 668 c 128,-1,139
 225 658 225 658 225 648 c 0,120,121
EndSplineSet
EndChar

StartChar: uni0085
Encoding: 133 133 133
Width: 771
Flags: W
LayerCount: 2
Fore
SplineSet
122 85 m 0,0,1
 122 103 122 103 142 118 c 128,-1,2
 162 133 162 133 198 144.5 c 128,-1,3
 234 156 234 156 282 162.5 c 128,-1,4
 330 169 330 169 385 169 c 0,5,6
 442 169 442 169 490 162.5 c 128,-1,7
 538 156 538 156 573.5 144.5 c 128,-1,8
 609 133 609 133 629.5 118 c 128,-1,9
 650 103 650 103 650 85 c 0,10,11
 650 68 650 68 629.5 53 c 128,-1,12
 609 38 609 38 573.5 27 c 128,-1,13
 538 16 538 16 490 9.5 c 128,-1,14
 442 3 442 3 385 3 c 0,15,16
 330 3 330 3 282 9.5 c 128,-1,17
 234 16 234 16 198 27 c 128,-1,18
 162 38 162 38 142 53 c 128,-1,19
 122 68 122 68 122 85 c 0,0,1
122 272 m 0,20,21
 122 290 122 290 142 305 c 128,-1,22
 162 320 162 320 198 331.5 c 128,-1,23
 234 343 234 343 282 349 c 128,-1,24
 330 355 330 355 385 355 c 0,25,26
 442 355 442 355 490 349 c 128,-1,27
 538 343 538 343 573.5 331.5 c 128,-1,28
 609 320 609 320 629.5 305 c 128,-1,29
 650 290 650 290 650 272 c 0,30,31
 650 255 650 255 629.5 240 c 128,-1,32
 609 225 609 225 573.5 214 c 128,-1,33
 538 203 538 203 490 196 c 128,-1,34
 442 189 442 189 385 189 c 0,35,36
 330 189 330 189 282 196 c 128,-1,37
 234 203 234 203 198 214 c 128,-1,38
 162 225 162 225 142 240 c 128,-1,39
 122 255 122 255 122 272 c 0,20,21
225 272 m 256,40,41
 225 261 225 261 237 251.5 c 128,-1,42
 249 242 249 242 271 235 c 128,-1,43
 293 228 293 228 322.5 224 c 128,-1,44
 352 220 352 220 385 220 c 0,45,46
 420 220 420 220 449 224 c 128,-1,47
 478 228 478 228 500 235 c 128,-1,48
 522 242 522 242 534 251.5 c 128,-1,49
 546 261 546 261 546 272 c 256,50,51
 546 283 546 283 534 292.5 c 128,-1,52
 522 302 522 302 500 309 c 128,-1,53
 478 316 478 316 449 320 c 128,-1,54
 420 324 420 324 385 324 c 0,55,56
 352 324 352 324 322.5 320 c 128,-1,57
 293 316 293 316 271 309 c 128,-1,58
 249 302 249 302 237 292.5 c 128,-1,59
 225 283 225 283 225 272 c 256,40,41
122 461 m 256,60,61
 122 478 122 478 142 493.5 c 128,-1,62
 162 509 162 509 198 520 c 128,-1,63
 234 531 234 531 282 537.5 c 128,-1,64
 330 544 330 544 385 544 c 0,65,66
 442 544 442 544 490 537.5 c 128,-1,67
 538 531 538 531 573.5 520 c 128,-1,68
 609 509 609 509 629.5 493.5 c 128,-1,69
 650 478 650 478 650 461 c 256,70,71
 650 444 650 444 629.5 429 c 128,-1,72
 609 414 609 414 573.5 402.5 c 128,-1,73
 538 391 538 391 490 384.5 c 128,-1,74
 442 378 442 378 385 378 c 0,75,76
 330 378 330 378 282 384.5 c 128,-1,77
 234 391 234 391 198 402.5 c 128,-1,78
 162 414 162 414 142 429 c 128,-1,79
 122 444 122 444 122 461 c 256,60,61
122 648 m 256,80,81
 122 665 122 665 142 680.5 c 128,-1,82
 162 696 162 696 198 707 c 128,-1,83
 234 718 234 718 282 724.5 c 128,-1,84
 330 731 330 731 385 731 c 0,85,86
 442 731 442 731 490 724.5 c 128,-1,87
 538 718 538 718 573.5 707 c 128,-1,88
 609 696 609 696 629.5 680.5 c 128,-1,89
 650 665 650 665 650 648 c 256,90,91
 650 631 650 631 629.5 616 c 128,-1,92
 609 601 609 601 573.5 589.5 c 128,-1,93
 538 578 538 578 490 571.5 c 128,-1,94
 442 565 442 565 385 565 c 0,95,96
 330 565 330 565 282 571.5 c 128,-1,97
 234 578 234 578 198 589.5 c 128,-1,98
 162 601 162 601 142 616 c 128,-1,99
 122 631 122 631 122 648 c 256,80,81
225 648 m 0,100,101
 225 637 225 637 237 627.5 c 128,-1,102
 249 618 249 618 271 611 c 128,-1,103
 293 604 293 604 322.5 600 c 128,-1,104
 352 596 352 596 385 596 c 0,105,106
 420 596 420 596 449 600 c 128,-1,107
 478 604 478 604 500 611 c 128,-1,108
 522 618 522 618 534 627.5 c 128,-1,109
 546 637 546 637 546 648 c 0,110,111
 546 658 546 658 534 668 c 128,-1,112
 522 678 522 678 500 685 c 128,-1,113
 478 692 478 692 449 696 c 128,-1,114
 420 700 420 700 385 700 c 0,115,116
 352 700 352 700 322.5 696 c 128,-1,117
 293 692 293 692 271 685 c 128,-1,118
 249 678 249 678 237 668 c 128,-1,119
 225 658 225 658 225 648 c 0,100,101
EndSplineSet
EndChar

StartChar: uni0086
Encoding: 134 134 134
Width: 771
Flags: W
LayerCount: 2
Fore
SplineSet
122 85 m 0,0,1
 122 103 122 103 142 118 c 128,-1,2
 162 133 162 133 198 144.5 c 128,-1,3
 234 156 234 156 282 162.5 c 128,-1,4
 330 169 330 169 385 169 c 0,5,6
 442 169 442 169 490 162.5 c 128,-1,7
 538 156 538 156 573.5 144.5 c 128,-1,8
 609 133 609 133 629.5 118 c 128,-1,9
 650 103 650 103 650 85 c 0,10,11
 650 68 650 68 629.5 53 c 128,-1,12
 609 38 609 38 573.5 27 c 128,-1,13
 538 16 538 16 490 9.5 c 128,-1,14
 442 3 442 3 385 3 c 0,15,16
 330 3 330 3 282 9.5 c 128,-1,17
 234 16 234 16 198 27 c 128,-1,18
 162 38 162 38 142 53 c 128,-1,19
 122 68 122 68 122 85 c 0,0,1
225 85 m 256,20,21
 225 74 225 74 237 64.5 c 128,-1,22
 249 55 249 55 271 48.5 c 128,-1,23
 293 42 293 42 322.5 38 c 128,-1,24
 352 34 352 34 385 34 c 0,25,26
 420 34 420 34 449 38 c 128,-1,27
 478 42 478 42 500 48.5 c 128,-1,28
 522 55 522 55 534 64.5 c 128,-1,29
 546 74 546 74 546 85 c 256,30,31
 546 96 546 96 534 105.5 c 128,-1,32
 522 115 522 115 500 122 c 128,-1,33
 478 129 478 129 449 133 c 128,-1,34
 420 137 420 137 385 137 c 0,35,36
 352 137 352 137 322.5 133 c 128,-1,37
 293 129 293 129 271 122 c 128,-1,38
 249 115 249 115 237 105.5 c 128,-1,39
 225 96 225 96 225 85 c 256,20,21
122 272 m 0,40,41
 122 290 122 290 142 305 c 128,-1,42
 162 320 162 320 198 331.5 c 128,-1,43
 234 343 234 343 282 349 c 128,-1,44
 330 355 330 355 385 355 c 0,45,46
 442 355 442 355 490 349 c 128,-1,47
 538 343 538 343 573.5 331.5 c 128,-1,48
 609 320 609 320 629.5 305 c 128,-1,49
 650 290 650 290 650 272 c 0,50,51
 650 255 650 255 629.5 240 c 128,-1,52
 609 225 609 225 573.5 214 c 128,-1,53
 538 203 538 203 490 196 c 128,-1,54
 442 189 442 189 385 189 c 0,55,56
 330 189 330 189 282 196 c 128,-1,57
 234 203 234 203 198 214 c 128,-1,58
 162 225 162 225 142 240 c 128,-1,59
 122 255 122 255 122 272 c 0,40,41
122 461 m 256,60,61
 122 478 122 478 142 493.5 c 128,-1,62
 162 509 162 509 198 520 c 128,-1,63
 234 531 234 531 282 537.5 c 128,-1,64
 330 544 330 544 385 544 c 0,65,66
 442 544 442 544 490 537.5 c 128,-1,67
 538 531 538 531 573.5 520 c 128,-1,68
 609 509 609 509 629.5 493.5 c 128,-1,69
 650 478 650 478 650 461 c 256,70,71
 650 444 650 444 629.5 429 c 128,-1,72
 609 414 609 414 573.5 402.5 c 128,-1,73
 538 391 538 391 490 384.5 c 128,-1,74
 442 378 442 378 385 378 c 0,75,76
 330 378 330 378 282 384.5 c 128,-1,77
 234 391 234 391 198 402.5 c 128,-1,78
 162 414 162 414 142 429 c 128,-1,79
 122 444 122 444 122 461 c 256,60,61
122 648 m 256,80,81
 122 665 122 665 142 680.5 c 128,-1,82
 162 696 162 696 198 707 c 128,-1,83
 234 718 234 718 282 724.5 c 128,-1,84
 330 731 330 731 385 731 c 0,85,86
 442 731 442 731 490 724.5 c 128,-1,87
 538 718 538 718 573.5 707 c 128,-1,88
 609 696 609 696 629.5 680.5 c 128,-1,89
 650 665 650 665 650 648 c 256,90,91
 650 631 650 631 629.5 616 c 128,-1,92
 609 601 609 601 573.5 589.5 c 128,-1,93
 538 578 538 578 490 571.5 c 128,-1,94
 442 565 442 565 385 565 c 0,95,96
 330 565 330 565 282 571.5 c 128,-1,97
 234 578 234 578 198 589.5 c 128,-1,98
 162 601 162 601 142 616 c 128,-1,99
 122 631 122 631 122 648 c 256,80,81
225 648 m 0,100,101
 225 637 225 637 237 627.5 c 128,-1,102
 249 618 249 618 271 611 c 128,-1,103
 293 604 293 604 322.5 600 c 128,-1,104
 352 596 352 596 385 596 c 0,105,106
 420 596 420 596 449 600 c 128,-1,107
 478 604 478 604 500 611 c 128,-1,108
 522 618 522 618 534 627.5 c 128,-1,109
 546 637 546 637 546 648 c 0,110,111
 546 658 546 658 534 668 c 128,-1,112
 522 678 522 678 500 685 c 128,-1,113
 478 692 478 692 449 696 c 128,-1,114
 420 700 420 700 385 700 c 0,115,116
 352 700 352 700 322.5 696 c 128,-1,117
 293 692 293 692 271 685 c 128,-1,118
 249 678 249 678 237 668 c 128,-1,119
 225 658 225 658 225 648 c 0,100,101
EndSplineSet
EndChar

StartChar: uni0087
Encoding: 135 135 135
Width: 771
Flags: W
LayerCount: 2
Fore
SplineSet
122 85 m 0,0,1
 122 103 122 103 142 118 c 128,-1,2
 162 133 162 133 198 144.5 c 128,-1,3
 234 156 234 156 282 162.5 c 128,-1,4
 330 169 330 169 385 169 c 0,5,6
 442 169 442 169 490 162.5 c 128,-1,7
 538 156 538 156 573.5 144.5 c 128,-1,8
 609 133 609 133 629.5 118 c 128,-1,9
 650 103 650 103 650 85 c 0,10,11
 650 68 650 68 629.5 53 c 128,-1,12
 609 38 609 38 573.5 27 c 128,-1,13
 538 16 538 16 490 9.5 c 128,-1,14
 442 3 442 3 385 3 c 0,15,16
 330 3 330 3 282 9.5 c 128,-1,17
 234 16 234 16 198 27 c 128,-1,18
 162 38 162 38 142 53 c 128,-1,19
 122 68 122 68 122 85 c 0,0,1
122 272 m 0,20,21
 122 290 122 290 142 305 c 128,-1,22
 162 320 162 320 198 331.5 c 128,-1,23
 234 343 234 343 282 349 c 128,-1,24
 330 355 330 355 385 355 c 0,25,26
 442 355 442 355 490 349 c 128,-1,27
 538 343 538 343 573.5 331.5 c 128,-1,28
 609 320 609 320 629.5 305 c 128,-1,29
 650 290 650 290 650 272 c 0,30,31
 650 255 650 255 629.5 240 c 128,-1,32
 609 225 609 225 573.5 214 c 128,-1,33
 538 203 538 203 490 196 c 128,-1,34
 442 189 442 189 385 189 c 0,35,36
 330 189 330 189 282 196 c 128,-1,37
 234 203 234 203 198 214 c 128,-1,38
 162 225 162 225 142 240 c 128,-1,39
 122 255 122 255 122 272 c 0,20,21
122 461 m 256,40,41
 122 478 122 478 142 493.5 c 128,-1,42
 162 509 162 509 198 520 c 128,-1,43
 234 531 234 531 282 537.5 c 128,-1,44
 330 544 330 544 385 544 c 0,45,46
 442 544 442 544 490 537.5 c 128,-1,47
 538 531 538 531 573.5 520 c 128,-1,48
 609 509 609 509 629.5 493.5 c 128,-1,49
 650 478 650 478 650 461 c 256,50,51
 650 444 650 444 629.5 429 c 128,-1,52
 609 414 609 414 573.5 402.5 c 128,-1,53
 538 391 538 391 490 384.5 c 128,-1,54
 442 378 442 378 385 378 c 0,55,56
 330 378 330 378 282 384.5 c 128,-1,57
 234 391 234 391 198 402.5 c 128,-1,58
 162 414 162 414 142 429 c 128,-1,59
 122 444 122 444 122 461 c 256,40,41
122 648 m 256,60,61
 122 665 122 665 142 680.5 c 128,-1,62
 162 696 162 696 198 707 c 128,-1,63
 234 718 234 718 282 724.5 c 128,-1,64
 330 731 330 731 385 731 c 0,65,66
 442 731 442 731 490 724.5 c 128,-1,67
 538 718 538 718 573.5 707 c 128,-1,68
 609 696 609 696 629.5 680.5 c 128,-1,69
 650 665 650 665 650 648 c 256,70,71
 650 631 650 631 629.5 616 c 128,-1,72
 609 601 609 601 573.5 589.5 c 128,-1,73
 538 578 538 578 490 571.5 c 128,-1,74
 442 565 442 565 385 565 c 0,75,76
 330 565 330 565 282 571.5 c 128,-1,77
 234 578 234 578 198 589.5 c 128,-1,78
 162 601 162 601 142 616 c 128,-1,79
 122 631 122 631 122 648 c 256,60,61
225 648 m 0,80,81
 225 637 225 637 237 627.5 c 128,-1,82
 249 618 249 618 271 611 c 128,-1,83
 293 604 293 604 322.5 600 c 128,-1,84
 352 596 352 596 385 596 c 0,85,86
 420 596 420 596 449 600 c 128,-1,87
 478 604 478 604 500 611 c 128,-1,88
 522 618 522 618 534 627.5 c 128,-1,89
 546 637 546 637 546 648 c 0,90,91
 546 658 546 658 534 668 c 128,-1,92
 522 678 522 678 500 685 c 128,-1,93
 478 692 478 692 449 696 c 128,-1,94
 420 700 420 700 385 700 c 0,95,96
 352 700 352 700 322.5 696 c 128,-1,97
 293 692 293 692 271 685 c 128,-1,98
 249 678 249 678 237 668 c 128,-1,99
 225 658 225 658 225 648 c 0,80,81
EndSplineSet
EndChar

StartChar: uni0088
Encoding: 136 136 136
Width: 771
Flags: W
LayerCount: 2
Fore
SplineSet
122 85 m 0,0,1
 122 103 122 103 142 118 c 128,-1,2
 162 133 162 133 198 144.5 c 128,-1,3
 234 156 234 156 282 162.5 c 128,-1,4
 330 169 330 169 385 169 c 0,5,6
 442 169 442 169 490 162.5 c 128,-1,7
 538 156 538 156 573.5 144.5 c 128,-1,8
 609 133 609 133 629.5 118 c 128,-1,9
 650 103 650 103 650 85 c 0,10,11
 650 68 650 68 629.5 53 c 128,-1,12
 609 38 609 38 573.5 27 c 128,-1,13
 538 16 538 16 490 9.5 c 128,-1,14
 442 3 442 3 385 3 c 0,15,16
 330 3 330 3 282 9.5 c 128,-1,17
 234 16 234 16 198 27 c 128,-1,18
 162 38 162 38 142 53 c 128,-1,19
 122 68 122 68 122 85 c 0,0,1
225 85 m 256,20,21
 225 74 225 74 237 64.5 c 128,-1,22
 249 55 249 55 271 48.5 c 128,-1,23
 293 42 293 42 322.5 38 c 128,-1,24
 352 34 352 34 385 34 c 0,25,26
 420 34 420 34 449 38 c 128,-1,27
 478 42 478 42 500 48.5 c 128,-1,28
 522 55 522 55 534 64.5 c 128,-1,29
 546 74 546 74 546 85 c 256,30,31
 546 96 546 96 534 105.5 c 128,-1,32
 522 115 522 115 500 122 c 128,-1,33
 478 129 478 129 449 133 c 128,-1,34
 420 137 420 137 385 137 c 0,35,36
 352 137 352 137 322.5 133 c 128,-1,37
 293 129 293 129 271 122 c 128,-1,38
 249 115 249 115 237 105.5 c 128,-1,39
 225 96 225 96 225 85 c 256,20,21
122 272 m 0,40,41
 122 290 122 290 142 305 c 128,-1,42
 162 320 162 320 198 331.5 c 128,-1,43
 234 343 234 343 282 349 c 128,-1,44
 330 355 330 355 385 355 c 0,45,46
 442 355 442 355 490 349 c 128,-1,47
 538 343 538 343 573.5 331.5 c 128,-1,48
 609 320 609 320 629.5 305 c 128,-1,49
 650 290 650 290 650 272 c 0,50,51
 650 255 650 255 629.5 240 c 128,-1,52
 609 225 609 225 573.5 214 c 128,-1,53
 538 203 538 203 490 196 c 128,-1,54
 442 189 442 189 385 189 c 0,55,56
 330 189 330 189 282 196 c 128,-1,57
 234 203 234 203 198 214 c 128,-1,58
 162 225 162 225 142 240 c 128,-1,59
 122 255 122 255 122 272 c 0,40,41
225 272 m 256,60,61
 225 261 225 261 237 251.5 c 128,-1,62
 249 242 249 242 271 235 c 128,-1,63
 293 228 293 228 322.5 224 c 128,-1,64
 352 220 352 220 385 220 c 0,65,66
 420 220 420 220 449 224 c 128,-1,67
 478 228 478 228 500 235 c 128,-1,68
 522 242 522 242 534 251.5 c 128,-1,69
 546 261 546 261 546 272 c 256,70,71
 546 283 546 283 534 292.5 c 128,-1,72
 522 302 522 302 500 309 c 128,-1,73
 478 316 478 316 449 320 c 128,-1,74
 420 324 420 324 385 324 c 0,75,76
 352 324 352 324 322.5 320 c 128,-1,77
 293 316 293 316 271 309 c 128,-1,78
 249 302 249 302 237 292.5 c 128,-1,79
 225 283 225 283 225 272 c 256,60,61
122 461 m 256,80,81
 122 478 122 478 142 493.5 c 128,-1,82
 162 509 162 509 198 520 c 128,-1,83
 234 531 234 531 282 537.5 c 128,-1,84
 330 544 330 544 385 544 c 0,85,86
 442 544 442 544 490 537.5 c 128,-1,87
 538 531 538 531 573.5 520 c 128,-1,88
 609 509 609 509 629.5 493.5 c 128,-1,89
 650 478 650 478 650 461 c 256,90,91
 650 444 650 444 629.5 429 c 128,-1,92
 609 414 609 414 573.5 402.5 c 128,-1,93
 538 391 538 391 490 384.5 c 128,-1,94
 442 378 442 378 385 378 c 0,95,96
 330 378 330 378 282 384.5 c 128,-1,97
 234 391 234 391 198 402.5 c 128,-1,98
 162 414 162 414 142 429 c 128,-1,99
 122 444 122 444 122 461 c 256,80,81
225 461 m 256,100,101
 225 450 225 450 237 440.5 c 128,-1,102
 249 431 249 431 271 424 c 128,-1,103
 293 417 293 417 322.5 413 c 128,-1,104
 352 409 352 409 385 409 c 0,105,106
 420 409 420 409 449 413 c 128,-1,107
 478 417 478 417 500 424 c 128,-1,108
 522 431 522 431 534 440.5 c 128,-1,109
 546 450 546 450 546 461 c 256,110,111
 546 472 546 472 534 481.5 c 128,-1,112
 522 491 522 491 500 498 c 128,-1,113
 478 505 478 505 449 509 c 128,-1,114
 420 513 420 513 385 513 c 0,115,116
 352 513 352 513 322.5 509 c 128,-1,117
 293 505 293 505 271 498 c 128,-1,118
 249 491 249 491 237 481.5 c 128,-1,119
 225 472 225 472 225 461 c 256,100,101
122 648 m 256,120,121
 122 665 122 665 142 680.5 c 128,-1,122
 162 696 162 696 198 707 c 128,-1,123
 234 718 234 718 282 724.5 c 128,-1,124
 330 731 330 731 385 731 c 0,125,126
 442 731 442 731 490 724.5 c 128,-1,127
 538 718 538 718 573.5 707 c 128,-1,128
 609 696 609 696 629.5 680.5 c 128,-1,129
 650 665 650 665 650 648 c 256,130,131
 650 631 650 631 629.5 616 c 128,-1,132
 609 601 609 601 573.5 589.5 c 128,-1,133
 538 578 538 578 490 571.5 c 128,-1,134
 442 565 442 565 385 565 c 0,135,136
 330 565 330 565 282 571.5 c 128,-1,137
 234 578 234 578 198 589.5 c 128,-1,138
 162 601 162 601 142 616 c 128,-1,139
 122 631 122 631 122 648 c 256,120,121
EndSplineSet
EndChar

StartChar: uni0089
Encoding: 137 137 137
Width: 771
Flags: W
LayerCount: 2
Fore
SplineSet
122 85 m 0,0,1
 122 103 122 103 142 118 c 128,-1,2
 162 133 162 133 198 144.5 c 128,-1,3
 234 156 234 156 282 162.5 c 128,-1,4
 330 169 330 169 385 169 c 0,5,6
 442 169 442 169 490 162.5 c 128,-1,7
 538 156 538 156 573.5 144.5 c 128,-1,8
 609 133 609 133 629.5 118 c 128,-1,9
 650 103 650 103 650 85 c 0,10,11
 650 68 650 68 629.5 53 c 128,-1,12
 609 38 609 38 573.5 27 c 128,-1,13
 538 16 538 16 490 9.5 c 128,-1,14
 442 3 442 3 385 3 c 0,15,16
 330 3 330 3 282 9.5 c 128,-1,17
 234 16 234 16 198 27 c 128,-1,18
 162 38 162 38 142 53 c 128,-1,19
 122 68 122 68 122 85 c 0,0,1
122 272 m 0,20,21
 122 290 122 290 142 305 c 128,-1,22
 162 320 162 320 198 331.5 c 128,-1,23
 234 343 234 343 282 349 c 128,-1,24
 330 355 330 355 385 355 c 0,25,26
 442 355 442 355 490 349 c 128,-1,27
 538 343 538 343 573.5 331.5 c 128,-1,28
 609 320 609 320 629.5 305 c 128,-1,29
 650 290 650 290 650 272 c 0,30,31
 650 255 650 255 629.5 240 c 128,-1,32
 609 225 609 225 573.5 214 c 128,-1,33
 538 203 538 203 490 196 c 128,-1,34
 442 189 442 189 385 189 c 0,35,36
 330 189 330 189 282 196 c 128,-1,37
 234 203 234 203 198 214 c 128,-1,38
 162 225 162 225 142 240 c 128,-1,39
 122 255 122 255 122 272 c 0,20,21
225 272 m 256,40,41
 225 261 225 261 237 251.5 c 128,-1,42
 249 242 249 242 271 235 c 128,-1,43
 293 228 293 228 322.5 224 c 128,-1,44
 352 220 352 220 385 220 c 0,45,46
 420 220 420 220 449 224 c 128,-1,47
 478 228 478 228 500 235 c 128,-1,48
 522 242 522 242 534 251.5 c 128,-1,49
 546 261 546 261 546 272 c 256,50,51
 546 283 546 283 534 292.5 c 128,-1,52
 522 302 522 302 500 309 c 128,-1,53
 478 316 478 316 449 320 c 128,-1,54
 420 324 420 324 385 324 c 0,55,56
 352 324 352 324 322.5 320 c 128,-1,57
 293 316 293 316 271 309 c 128,-1,58
 249 302 249 302 237 292.5 c 128,-1,59
 225 283 225 283 225 272 c 256,40,41
122 461 m 256,60,61
 122 478 122 478 142 493.5 c 128,-1,62
 162 509 162 509 198 520 c 128,-1,63
 234 531 234 531 282 537.5 c 128,-1,64
 330 544 330 544 385 544 c 0,65,66
 442 544 442 544 490 537.5 c 128,-1,67
 538 531 538 531 573.5 520 c 128,-1,68
 609 509 609 509 629.5 493.5 c 128,-1,69
 650 478 650 478 650 461 c 256,70,71
 650 444 650 444 629.5 429 c 128,-1,72
 609 414 609 414 573.5 402.5 c 128,-1,73
 538 391 538 391 490 384.5 c 128,-1,74
 442 378 442 378 385 378 c 0,75,76
 330 378 330 378 282 384.5 c 128,-1,77
 234 391 234 391 198 402.5 c 128,-1,78
 162 414 162 414 142 429 c 128,-1,79
 122 444 122 444 122 461 c 256,60,61
225 461 m 256,80,81
 225 450 225 450 237 440.5 c 128,-1,82
 249 431 249 431 271 424 c 128,-1,83
 293 417 293 417 322.5 413 c 128,-1,84
 352 409 352 409 385 409 c 0,85,86
 420 409 420 409 449 413 c 128,-1,87
 478 417 478 417 500 424 c 128,-1,88
 522 431 522 431 534 440.5 c 128,-1,89
 546 450 546 450 546 461 c 256,90,91
 546 472 546 472 534 481.5 c 128,-1,92
 522 491 522 491 500 498 c 128,-1,93
 478 505 478 505 449 509 c 128,-1,94
 420 513 420 513 385 513 c 0,95,96
 352 513 352 513 322.5 509 c 128,-1,97
 293 505 293 505 271 498 c 128,-1,98
 249 491 249 491 237 481.5 c 128,-1,99
 225 472 225 472 225 461 c 256,80,81
122 648 m 256,100,101
 122 665 122 665 142 680.5 c 128,-1,102
 162 696 162 696 198 707 c 128,-1,103
 234 718 234 718 282 724.5 c 128,-1,104
 330 731 330 731 385 731 c 0,105,106
 442 731 442 731 490 724.5 c 128,-1,107
 538 718 538 718 573.5 707 c 128,-1,108
 609 696 609 696 629.5 680.5 c 128,-1,109
 650 665 650 665 650 648 c 256,110,111
 650 631 650 631 629.5 616 c 128,-1,112
 609 601 609 601 573.5 589.5 c 128,-1,113
 538 578 538 578 490 571.5 c 128,-1,114
 442 565 442 565 385 565 c 0,115,116
 330 565 330 565 282 571.5 c 128,-1,117
 234 578 234 578 198 589.5 c 128,-1,118
 162 601 162 601 142 616 c 128,-1,119
 122 631 122 631 122 648 c 256,100,101
EndSplineSet
EndChar

StartChar: uni008A
Encoding: 138 138 138
Width: 771
Flags: W
LayerCount: 2
Fore
SplineSet
122 85 m 0,0,1
 122 103 122 103 142 118 c 128,-1,2
 162 133 162 133 198 144.5 c 128,-1,3
 234 156 234 156 282 162.5 c 128,-1,4
 330 169 330 169 385 169 c 0,5,6
 442 169 442 169 490 162.5 c 128,-1,7
 538 156 538 156 573.5 144.5 c 128,-1,8
 609 133 609 133 629.5 118 c 128,-1,9
 650 103 650 103 650 85 c 0,10,11
 650 68 650 68 629.5 53 c 128,-1,12
 609 38 609 38 573.5 27 c 128,-1,13
 538 16 538 16 490 9.5 c 128,-1,14
 442 3 442 3 385 3 c 0,15,16
 330 3 330 3 282 9.5 c 128,-1,17
 234 16 234 16 198 27 c 128,-1,18
 162 38 162 38 142 53 c 128,-1,19
 122 68 122 68 122 85 c 0,0,1
225 85 m 256,20,21
 225 74 225 74 237 64.5 c 128,-1,22
 249 55 249 55 271 48.5 c 128,-1,23
 293 42 293 42 322.5 38 c 128,-1,24
 352 34 352 34 385 34 c 0,25,26
 420 34 420 34 449 38 c 128,-1,27
 478 42 478 42 500 48.5 c 128,-1,28
 522 55 522 55 534 64.5 c 128,-1,29
 546 74 546 74 546 85 c 256,30,31
 546 96 546 96 534 105.5 c 128,-1,32
 522 115 522 115 500 122 c 128,-1,33
 478 129 478 129 449 133 c 128,-1,34
 420 137 420 137 385 137 c 0,35,36
 352 137 352 137 322.5 133 c 128,-1,37
 293 129 293 129 271 122 c 128,-1,38
 249 115 249 115 237 105.5 c 128,-1,39
 225 96 225 96 225 85 c 256,20,21
122 272 m 0,40,41
 122 290 122 290 142 305 c 128,-1,42
 162 320 162 320 198 331.5 c 128,-1,43
 234 343 234 343 282 349 c 128,-1,44
 330 355 330 355 385 355 c 0,45,46
 442 355 442 355 490 349 c 128,-1,47
 538 343 538 343 573.5 331.5 c 128,-1,48
 609 320 609 320 629.5 305 c 128,-1,49
 650 290 650 290 650 272 c 0,50,51
 650 255 650 255 629.5 240 c 128,-1,52
 609 225 609 225 573.5 214 c 128,-1,53
 538 203 538 203 490 196 c 128,-1,54
 442 189 442 189 385 189 c 0,55,56
 330 189 330 189 282 196 c 128,-1,57
 234 203 234 203 198 214 c 128,-1,58
 162 225 162 225 142 240 c 128,-1,59
 122 255 122 255 122 272 c 0,40,41
122 461 m 256,60,61
 122 478 122 478 142 493.5 c 128,-1,62
 162 509 162 509 198 520 c 128,-1,63
 234 531 234 531 282 537.5 c 128,-1,64
 330 544 330 544 385 544 c 0,65,66
 442 544 442 544 490 537.5 c 128,-1,67
 538 531 538 531 573.5 520 c 128,-1,68
 609 509 609 509 629.5 493.5 c 128,-1,69
 650 478 650 478 650 461 c 256,70,71
 650 444 650 444 629.5 429 c 128,-1,72
 609 414 609 414 573.5 402.5 c 128,-1,73
 538 391 538 391 490 384.5 c 128,-1,74
 442 378 442 378 385 378 c 0,75,76
 330 378 330 378 282 384.5 c 128,-1,77
 234 391 234 391 198 402.5 c 128,-1,78
 162 414 162 414 142 429 c 128,-1,79
 122 444 122 444 122 461 c 256,60,61
225 461 m 256,80,81
 225 450 225 450 237 440.5 c 128,-1,82
 249 431 249 431 271 424 c 128,-1,83
 293 417 293 417 322.5 413 c 128,-1,84
 352 409 352 409 385 409 c 0,85,86
 420 409 420 409 449 413 c 128,-1,87
 478 417 478 417 500 424 c 128,-1,88
 522 431 522 431 534 440.5 c 128,-1,89
 546 450 546 450 546 461 c 256,90,91
 546 472 546 472 534 481.5 c 128,-1,92
 522 491 522 491 500 498 c 128,-1,93
 478 505 478 505 449 509 c 128,-1,94
 420 513 420 513 385 513 c 0,95,96
 352 513 352 513 322.5 509 c 128,-1,97
 293 505 293 505 271 498 c 128,-1,98
 249 491 249 491 237 481.5 c 128,-1,99
 225 472 225 472 225 461 c 256,80,81
122 648 m 256,100,101
 122 665 122 665 142 680.5 c 128,-1,102
 162 696 162 696 198 707 c 128,-1,103
 234 718 234 718 282 724.5 c 128,-1,104
 330 731 330 731 385 731 c 0,105,106
 442 731 442 731 490 724.5 c 128,-1,107
 538 718 538 718 573.5 707 c 128,-1,108
 609 696 609 696 629.5 680.5 c 128,-1,109
 650 665 650 665 650 648 c 256,110,111
 650 631 650 631 629.5 616 c 128,-1,112
 609 601 609 601 573.5 589.5 c 128,-1,113
 538 578 538 578 490 571.5 c 128,-1,114
 442 565 442 565 385 565 c 0,115,116
 330 565 330 565 282 571.5 c 128,-1,117
 234 578 234 578 198 589.5 c 128,-1,118
 162 601 162 601 142 616 c 128,-1,119
 122 631 122 631 122 648 c 256,100,101
EndSplineSet
EndChar

StartChar: uni008B
Encoding: 139 139 139
Width: 771
Flags: W
LayerCount: 2
Fore
SplineSet
122 85 m 0,0,1
 122 103 122 103 142 118 c 128,-1,2
 162 133 162 133 198 144.5 c 128,-1,3
 234 156 234 156 282 162.5 c 128,-1,4
 330 169 330 169 385 169 c 0,5,6
 442 169 442 169 490 162.5 c 128,-1,7
 538 156 538 156 573.5 144.5 c 128,-1,8
 609 133 609 133 629.5 118 c 128,-1,9
 650 103 650 103 650 85 c 0,10,11
 650 68 650 68 629.5 53 c 128,-1,12
 609 38 609 38 573.5 27 c 128,-1,13
 538 16 538 16 490 9.5 c 128,-1,14
 442 3 442 3 385 3 c 0,15,16
 330 3 330 3 282 9.5 c 128,-1,17
 234 16 234 16 198 27 c 128,-1,18
 162 38 162 38 142 53 c 128,-1,19
 122 68 122 68 122 85 c 0,0,1
122 272 m 0,20,21
 122 290 122 290 142 305 c 128,-1,22
 162 320 162 320 198 331.5 c 128,-1,23
 234 343 234 343 282 349 c 128,-1,24
 330 355 330 355 385 355 c 0,25,26
 442 355 442 355 490 349 c 128,-1,27
 538 343 538 343 573.5 331.5 c 128,-1,28
 609 320 609 320 629.5 305 c 128,-1,29
 650 290 650 290 650 272 c 0,30,31
 650 255 650 255 629.5 240 c 128,-1,32
 609 225 609 225 573.5 214 c 128,-1,33
 538 203 538 203 490 196 c 128,-1,34
 442 189 442 189 385 189 c 0,35,36
 330 189 330 189 282 196 c 128,-1,37
 234 203 234 203 198 214 c 128,-1,38
 162 225 162 225 142 240 c 128,-1,39
 122 255 122 255 122 272 c 0,20,21
122 461 m 256,40,41
 122 478 122 478 142 493.5 c 128,-1,42
 162 509 162 509 198 520 c 128,-1,43
 234 531 234 531 282 537.5 c 128,-1,44
 330 544 330 544 385 544 c 0,45,46
 442 544 442 544 490 537.5 c 128,-1,47
 538 531 538 531 573.5 520 c 128,-1,48
 609 509 609 509 629.5 493.5 c 128,-1,49
 650 478 650 478 650 461 c 256,50,51
 650 444 650 444 629.5 429 c 128,-1,52
 609 414 609 414 573.5 402.5 c 128,-1,53
 538 391 538 391 490 384.5 c 128,-1,54
 442 378 442 378 385 378 c 0,55,56
 330 378 330 378 282 384.5 c 128,-1,57
 234 391 234 391 198 402.5 c 128,-1,58
 162 414 162 414 142 429 c 128,-1,59
 122 444 122 444 122 461 c 256,40,41
225 461 m 256,60,61
 225 450 225 450 237 440.5 c 128,-1,62
 249 431 249 431 271 424 c 128,-1,63
 293 417 293 417 322.5 413 c 128,-1,64
 352 409 352 409 385 409 c 0,65,66
 420 409 420 409 449 413 c 128,-1,67
 478 417 478 417 500 424 c 128,-1,68
 522 431 522 431 534 440.5 c 128,-1,69
 546 450 546 450 546 461 c 256,70,71
 546 472 546 472 534 481.5 c 128,-1,72
 522 491 522 491 500 498 c 128,-1,73
 478 505 478 505 449 509 c 128,-1,74
 420 513 420 513 385 513 c 0,75,76
 352 513 352 513 322.5 509 c 128,-1,77
 293 505 293 505 271 498 c 128,-1,78
 249 491 249 491 237 481.5 c 128,-1,79
 225 472 225 472 225 461 c 256,60,61
122 648 m 256,80,81
 122 665 122 665 142 680.5 c 128,-1,82
 162 696 162 696 198 707 c 128,-1,83
 234 718 234 718 282 724.5 c 128,-1,84
 330 731 330 731 385 731 c 0,85,86
 442 731 442 731 490 724.5 c 128,-1,87
 538 718 538 718 573.5 707 c 128,-1,88
 609 696 609 696 629.5 680.5 c 128,-1,89
 650 665 650 665 650 648 c 256,90,91
 650 631 650 631 629.5 616 c 128,-1,92
 609 601 609 601 573.5 589.5 c 128,-1,93
 538 578 538 578 490 571.5 c 128,-1,94
 442 565 442 565 385 565 c 0,95,96
 330 565 330 565 282 571.5 c 128,-1,97
 234 578 234 578 198 589.5 c 128,-1,98
 162 601 162 601 142 616 c 128,-1,99
 122 631 122 631 122 648 c 256,80,81
EndSplineSet
EndChar

StartChar: uni008C
Encoding: 140 140 140
Width: 771
Flags: W
LayerCount: 2
Fore
SplineSet
122 85 m 0,0,1
 122 103 122 103 142 118 c 128,-1,2
 162 133 162 133 198 144.5 c 128,-1,3
 234 156 234 156 282 162.5 c 128,-1,4
 330 169 330 169 385 169 c 0,5,6
 442 169 442 169 490 162.5 c 128,-1,7
 538 156 538 156 573.5 144.5 c 128,-1,8
 609 133 609 133 629.5 118 c 128,-1,9
 650 103 650 103 650 85 c 0,10,11
 650 68 650 68 629.5 53 c 128,-1,12
 609 38 609 38 573.5 27 c 128,-1,13
 538 16 538 16 490 9.5 c 128,-1,14
 442 3 442 3 385 3 c 0,15,16
 330 3 330 3 282 9.5 c 128,-1,17
 234 16 234 16 198 27 c 128,-1,18
 162 38 162 38 142 53 c 128,-1,19
 122 68 122 68 122 85 c 0,0,1
225 85 m 256,20,21
 225 74 225 74 237 64.5 c 128,-1,22
 249 55 249 55 271 48.5 c 128,-1,23
 293 42 293 42 322.5 38 c 128,-1,24
 352 34 352 34 385 34 c 0,25,26
 420 34 420 34 449 38 c 128,-1,27
 478 42 478 42 500 48.5 c 128,-1,28
 522 55 522 55 534 64.5 c 128,-1,29
 546 74 546 74 546 85 c 256,30,31
 546 96 546 96 534 105.5 c 128,-1,32
 522 115 522 115 500 122 c 128,-1,33
 478 129 478 129 449 133 c 128,-1,34
 420 137 420 137 385 137 c 0,35,36
 352 137 352 137 322.5 133 c 128,-1,37
 293 129 293 129 271 122 c 128,-1,38
 249 115 249 115 237 105.5 c 128,-1,39
 225 96 225 96 225 85 c 256,20,21
122 272 m 0,40,41
 122 290 122 290 142 305 c 128,-1,42
 162 320 162 320 198 331.5 c 128,-1,43
 234 343 234 343 282 349 c 128,-1,44
 330 355 330 355 385 355 c 0,45,46
 442 355 442 355 490 349 c 128,-1,47
 538 343 538 343 573.5 331.5 c 128,-1,48
 609 320 609 320 629.5 305 c 128,-1,49
 650 290 650 290 650 272 c 0,50,51
 650 255 650 255 629.5 240 c 128,-1,52
 609 225 609 225 573.5 214 c 128,-1,53
 538 203 538 203 490 196 c 128,-1,54
 442 189 442 189 385 189 c 0,55,56
 330 189 330 189 282 196 c 128,-1,57
 234 203 234 203 198 214 c 128,-1,58
 162 225 162 225 142 240 c 128,-1,59
 122 255 122 255 122 272 c 0,40,41
225 272 m 256,60,61
 225 261 225 261 237 251.5 c 128,-1,62
 249 242 249 242 271 235 c 128,-1,63
 293 228 293 228 322.5 224 c 128,-1,64
 352 220 352 220 385 220 c 0,65,66
 420 220 420 220 449 224 c 128,-1,67
 478 228 478 228 500 235 c 128,-1,68
 522 242 522 242 534 251.5 c 128,-1,69
 546 261 546 261 546 272 c 256,70,71
 546 283 546 283 534 292.5 c 128,-1,72
 522 302 522 302 500 309 c 128,-1,73
 478 316 478 316 449 320 c 128,-1,74
 420 324 420 324 385 324 c 0,75,76
 352 324 352 324 322.5 320 c 128,-1,77
 293 316 293 316 271 309 c 128,-1,78
 249 302 249 302 237 292.5 c 128,-1,79
 225 283 225 283 225 272 c 256,60,61
122 461 m 256,80,81
 122 478 122 478 142 493.5 c 128,-1,82
 162 509 162 509 198 520 c 128,-1,83
 234 531 234 531 282 537.5 c 128,-1,84
 330 544 330 544 385 544 c 0,85,86
 442 544 442 544 490 537.5 c 128,-1,87
 538 531 538 531 573.5 520 c 128,-1,88
 609 509 609 509 629.5 493.5 c 128,-1,89
 650 478 650 478 650 461 c 256,90,91
 650 444 650 444 629.5 429 c 128,-1,92
 609 414 609 414 573.5 402.5 c 128,-1,93
 538 391 538 391 490 384.5 c 128,-1,94
 442 378 442 378 385 378 c 0,95,96
 330 378 330 378 282 384.5 c 128,-1,97
 234 391 234 391 198 402.5 c 128,-1,98
 162 414 162 414 142 429 c 128,-1,99
 122 444 122 444 122 461 c 256,80,81
122 648 m 256,100,101
 122 665 122 665 142 680.5 c 128,-1,102
 162 696 162 696 198 707 c 128,-1,103
 234 718 234 718 282 724.5 c 128,-1,104
 330 731 330 731 385 731 c 0,105,106
 442 731 442 731 490 724.5 c 128,-1,107
 538 718 538 718 573.5 707 c 128,-1,108
 609 696 609 696 629.5 680.5 c 128,-1,109
 650 665 650 665 650 648 c 256,110,111
 650 631 650 631 629.5 616 c 128,-1,112
 609 601 609 601 573.5 589.5 c 128,-1,113
 538 578 538 578 490 571.5 c 128,-1,114
 442 565 442 565 385 565 c 0,115,116
 330 565 330 565 282 571.5 c 128,-1,117
 234 578 234 578 198 589.5 c 128,-1,118
 162 601 162 601 142 616 c 128,-1,119
 122 631 122 631 122 648 c 256,100,101
EndSplineSet
EndChar

StartChar: uni008D
Encoding: 141 141 141
Width: 771
Flags: W
LayerCount: 2
Fore
SplineSet
122 85 m 0,0,1
 122 103 122 103 142 118 c 128,-1,2
 162 133 162 133 198 144.5 c 128,-1,3
 234 156 234 156 282 162.5 c 128,-1,4
 330 169 330 169 385 169 c 0,5,6
 442 169 442 169 490 162.5 c 128,-1,7
 538 156 538 156 573.5 144.5 c 128,-1,8
 609 133 609 133 629.5 118 c 128,-1,9
 650 103 650 103 650 85 c 0,10,11
 650 68 650 68 629.5 53 c 128,-1,12
 609 38 609 38 573.5 27 c 128,-1,13
 538 16 538 16 490 9.5 c 128,-1,14
 442 3 442 3 385 3 c 0,15,16
 330 3 330 3 282 9.5 c 128,-1,17
 234 16 234 16 198 27 c 128,-1,18
 162 38 162 38 142 53 c 128,-1,19
 122 68 122 68 122 85 c 0,0,1
122 272 m 0,20,21
 122 290 122 290 142 305 c 128,-1,22
 162 320 162 320 198 331.5 c 128,-1,23
 234 343 234 343 282 349 c 128,-1,24
 330 355 330 355 385 355 c 0,25,26
 442 355 442 355 490 349 c 128,-1,27
 538 343 538 343 573.5 331.5 c 128,-1,28
 609 320 609 320 629.5 305 c 128,-1,29
 650 290 650 290 650 272 c 0,30,31
 650 255 650 255 629.5 240 c 128,-1,32
 609 225 609 225 573.5 214 c 128,-1,33
 538 203 538 203 490 196 c 128,-1,34
 442 189 442 189 385 189 c 0,35,36
 330 189 330 189 282 196 c 128,-1,37
 234 203 234 203 198 214 c 128,-1,38
 162 225 162 225 142 240 c 128,-1,39
 122 255 122 255 122 272 c 0,20,21
225 272 m 256,40,41
 225 261 225 261 237 251.5 c 128,-1,42
 249 242 249 242 271 235 c 128,-1,43
 293 228 293 228 322.5 224 c 128,-1,44
 352 220 352 220 385 220 c 0,45,46
 420 220 420 220 449 224 c 128,-1,47
 478 228 478 228 500 235 c 128,-1,48
 522 242 522 242 534 251.5 c 128,-1,49
 546 261 546 261 546 272 c 256,50,51
 546 283 546 283 534 292.5 c 128,-1,52
 522 302 522 302 500 309 c 128,-1,53
 478 316 478 316 449 320 c 128,-1,54
 420 324 420 324 385 324 c 0,55,56
 352 324 352 324 322.5 320 c 128,-1,57
 293 316 293 316 271 309 c 128,-1,58
 249 302 249 302 237 292.5 c 128,-1,59
 225 283 225 283 225 272 c 256,40,41
122 461 m 256,60,61
 122 478 122 478 142 493.5 c 128,-1,62
 162 509 162 509 198 520 c 128,-1,63
 234 531 234 531 282 537.5 c 128,-1,64
 330 544 330 544 385 544 c 0,65,66
 442 544 442 544 490 537.5 c 128,-1,67
 538 531 538 531 573.5 520 c 128,-1,68
 609 509 609 509 629.5 493.5 c 128,-1,69
 650 478 650 478 650 461 c 256,70,71
 650 444 650 444 629.5 429 c 128,-1,72
 609 414 609 414 573.5 402.5 c 128,-1,73
 538 391 538 391 490 384.5 c 128,-1,74
 442 378 442 378 385 378 c 0,75,76
 330 378 330 378 282 384.5 c 128,-1,77
 234 391 234 391 198 402.5 c 128,-1,78
 162 414 162 414 142 429 c 128,-1,79
 122 444 122 444 122 461 c 256,60,61
122 648 m 256,80,81
 122 665 122 665 142 680.5 c 128,-1,82
 162 696 162 696 198 707 c 128,-1,83
 234 718 234 718 282 724.5 c 128,-1,84
 330 731 330 731 385 731 c 0,85,86
 442 731 442 731 490 724.5 c 128,-1,87
 538 718 538 718 573.5 707 c 128,-1,88
 609 696 609 696 629.5 680.5 c 128,-1,89
 650 665 650 665 650 648 c 256,90,91
 650 631 650 631 629.5 616 c 128,-1,92
 609 601 609 601 573.5 589.5 c 128,-1,93
 538 578 538 578 490 571.5 c 128,-1,94
 442 565 442 565 385 565 c 0,95,96
 330 565 330 565 282 571.5 c 128,-1,97
 234 578 234 578 198 589.5 c 128,-1,98
 162 601 162 601 142 616 c 128,-1,99
 122 631 122 631 122 648 c 256,80,81
EndSplineSet
EndChar

StartChar: uni008E
Encoding: 142 142 142
Width: 771
Flags: W
LayerCount: 2
Fore
SplineSet
122 85 m 0,0,1
 122 103 122 103 142 118 c 128,-1,2
 162 133 162 133 198 144.5 c 128,-1,3
 234 156 234 156 282 162.5 c 128,-1,4
 330 169 330 169 385 169 c 0,5,6
 442 169 442 169 490 162.5 c 128,-1,7
 538 156 538 156 573.5 144.5 c 128,-1,8
 609 133 609 133 629.5 118 c 128,-1,9
 650 103 650 103 650 85 c 0,10,11
 650 68 650 68 629.5 53 c 128,-1,12
 609 38 609 38 573.5 27 c 128,-1,13
 538 16 538 16 490 9.5 c 128,-1,14
 442 3 442 3 385 3 c 0,15,16
 330 3 330 3 282 9.5 c 128,-1,17
 234 16 234 16 198 27 c 128,-1,18
 162 38 162 38 142 53 c 128,-1,19
 122 68 122 68 122 85 c 0,0,1
225 85 m 256,20,21
 225 74 225 74 237 64.5 c 128,-1,22
 249 55 249 55 271 48.5 c 128,-1,23
 293 42 293 42 322.5 38 c 128,-1,24
 352 34 352 34 385 34 c 0,25,26
 420 34 420 34 449 38 c 128,-1,27
 478 42 478 42 500 48.5 c 128,-1,28
 522 55 522 55 534 64.5 c 128,-1,29
 546 74 546 74 546 85 c 256,30,31
 546 96 546 96 534 105.5 c 128,-1,32
 522 115 522 115 500 122 c 128,-1,33
 478 129 478 129 449 133 c 128,-1,34
 420 137 420 137 385 137 c 0,35,36
 352 137 352 137 322.5 133 c 128,-1,37
 293 129 293 129 271 122 c 128,-1,38
 249 115 249 115 237 105.5 c 128,-1,39
 225 96 225 96 225 85 c 256,20,21
122 272 m 0,40,41
 122 290 122 290 142 305 c 128,-1,42
 162 320 162 320 198 331.5 c 128,-1,43
 234 343 234 343 282 349 c 128,-1,44
 330 355 330 355 385 355 c 0,45,46
 442 355 442 355 490 349 c 128,-1,47
 538 343 538 343 573.5 331.5 c 128,-1,48
 609 320 609 320 629.5 305 c 128,-1,49
 650 290 650 290 650 272 c 0,50,51
 650 255 650 255 629.5 240 c 128,-1,52
 609 225 609 225 573.5 214 c 128,-1,53
 538 203 538 203 490 196 c 128,-1,54
 442 189 442 189 385 189 c 0,55,56
 330 189 330 189 282 196 c 128,-1,57
 234 203 234 203 198 214 c 128,-1,58
 162 225 162 225 142 240 c 128,-1,59
 122 255 122 255 122 272 c 0,40,41
122 461 m 256,60,61
 122 478 122 478 142 493.5 c 128,-1,62
 162 509 162 509 198 520 c 128,-1,63
 234 531 234 531 282 537.5 c 128,-1,64
 330 544 330 544 385 544 c 0,65,66
 442 544 442 544 490 537.5 c 128,-1,67
 538 531 538 531 573.5 520 c 128,-1,68
 609 509 609 509 629.5 493.5 c 128,-1,69
 650 478 650 478 650 461 c 256,70,71
 650 444 650 444 629.5 429 c 128,-1,72
 609 414 609 414 573.5 402.5 c 128,-1,73
 538 391 538 391 490 384.5 c 128,-1,74
 442 378 442 378 385 378 c 0,75,76
 330 378 330 378 282 384.5 c 128,-1,77
 234 391 234 391 198 402.5 c 128,-1,78
 162 414 162 414 142 429 c 128,-1,79
 122 444 122 444 122 461 c 256,60,61
122 648 m 256,80,81
 122 665 122 665 142 680.5 c 128,-1,82
 162 696 162 696 198 707 c 128,-1,83
 234 718 234 718 282 724.5 c 128,-1,84
 330 731 330 731 385 731 c 0,85,86
 442 731 442 731 490 724.5 c 128,-1,87
 538 718 538 718 573.5 707 c 128,-1,88
 609 696 609 696 629.5 680.5 c 128,-1,89
 650 665 650 665 650 648 c 256,90,91
 650 631 650 631 629.5 616 c 128,-1,92
 609 601 609 601 573.5 589.5 c 128,-1,93
 538 578 538 578 490 571.5 c 128,-1,94
 442 565 442 565 385 565 c 0,95,96
 330 565 330 565 282 571.5 c 128,-1,97
 234 578 234 578 198 589.5 c 128,-1,98
 162 601 162 601 142 616 c 128,-1,99
 122 631 122 631 122 648 c 256,80,81
EndSplineSet
EndChar

StartChar: uni008F
Encoding: 143 143 143
Width: 771
Flags: W
LayerCount: 2
Fore
SplineSet
122 85 m 0,0,1
 122 103 122 103 142 118 c 128,-1,2
 162 133 162 133 198 144.5 c 128,-1,3
 234 156 234 156 282 162.5 c 128,-1,4
 330 169 330 169 385 169 c 0,5,6
 442 169 442 169 490 162.5 c 128,-1,7
 538 156 538 156 573.5 144.5 c 128,-1,8
 609 133 609 133 629.5 118 c 128,-1,9
 650 103 650 103 650 85 c 0,10,11
 650 68 650 68 629.5 53 c 128,-1,12
 609 38 609 38 573.5 27 c 128,-1,13
 538 16 538 16 490 9.5 c 128,-1,14
 442 3 442 3 385 3 c 0,15,16
 330 3 330 3 282 9.5 c 128,-1,17
 234 16 234 16 198 27 c 128,-1,18
 162 38 162 38 142 53 c 128,-1,19
 122 68 122 68 122 85 c 0,0,1
122 272 m 0,20,21
 122 290 122 290 142 305 c 128,-1,22
 162 320 162 320 198 331.5 c 128,-1,23
 234 343 234 343 282 349 c 128,-1,24
 330 355 330 355 385 355 c 0,25,26
 442 355 442 355 490 349 c 128,-1,27
 538 343 538 343 573.5 331.5 c 128,-1,28
 609 320 609 320 629.5 305 c 128,-1,29
 650 290 650 290 650 272 c 0,30,31
 650 255 650 255 629.5 240 c 128,-1,32
 609 225 609 225 573.5 214 c 128,-1,33
 538 203 538 203 490 196 c 128,-1,34
 442 189 442 189 385 189 c 0,35,36
 330 189 330 189 282 196 c 128,-1,37
 234 203 234 203 198 214 c 128,-1,38
 162 225 162 225 142 240 c 128,-1,39
 122 255 122 255 122 272 c 0,20,21
122 461 m 256,40,41
 122 478 122 478 142 493.5 c 128,-1,42
 162 509 162 509 198 520 c 128,-1,43
 234 531 234 531 282 537.5 c 128,-1,44
 330 544 330 544 385 544 c 0,45,46
 442 544 442 544 490 537.5 c 128,-1,47
 538 531 538 531 573.5 520 c 128,-1,48
 609 509 609 509 629.5 493.5 c 128,-1,49
 650 478 650 478 650 461 c 256,50,51
 650 444 650 444 629.5 429 c 128,-1,52
 609 414 609 414 573.5 402.5 c 128,-1,53
 538 391 538 391 490 384.5 c 128,-1,54
 442 378 442 378 385 378 c 0,55,56
 330 378 330 378 282 384.5 c 128,-1,57
 234 391 234 391 198 402.5 c 128,-1,58
 162 414 162 414 142 429 c 128,-1,59
 122 444 122 444 122 461 c 256,40,41
122 648 m 256,60,61
 122 665 122 665 142 680.5 c 128,-1,62
 162 696 162 696 198 707 c 128,-1,63
 234 718 234 718 282 724.5 c 128,-1,64
 330 731 330 731 385 731 c 0,65,66
 442 731 442 731 490 724.5 c 128,-1,67
 538 718 538 718 573.5 707 c 128,-1,68
 609 696 609 696 629.5 680.5 c 128,-1,69
 650 665 650 665 650 648 c 256,70,71
 650 631 650 631 629.5 616 c 128,-1,72
 609 601 609 601 573.5 589.5 c 128,-1,73
 538 578 538 578 490 571.5 c 128,-1,74
 442 565 442 565 385 565 c 0,75,76
 330 565 330 565 282 571.5 c 128,-1,77
 234 578 234 578 198 589.5 c 128,-1,78
 162 601 162 601 142 616 c 128,-1,79
 122 631 122 631 122 648 c 256,60,61
EndSplineSet
EndChar

StartChar: uni0090
Encoding: 144 144 144
Width: 771
Flags: W
LayerCount: 2
Fore
SplineSet
384 -10 m 0,0,1
 277 -10 277 -10 209 34 c 128,-1,2
 141 78 141 78 109 160.5 c 128,-1,3
 77 243 77 243 77 358 c 0,4,5
 77 474 77 474 108 555.5 c 128,-1,6
 139 637 139 637 206 680.5 c 128,-1,7
 273 724 273 724 384 724 c 0,8,9
 492 724 492 724 560.5 681 c 128,-1,10
 629 638 629 638 661.5 556 c 128,-1,11
 694 474 694 474 694 358 c 0,12,13
 694 271 694 271 676.5 203 c 128,-1,14
 659 135 659 135 622.5 87.5 c 128,-1,15
 586 40 586 40 526.5 15 c 128,-1,16
 467 -10 467 -10 384 -10 c 0,0,1
237 100 m 1,17,-1
 162 152 l 1,18,-1
 521 626 l 1,19,-1
 588 560 l 1,20,-1
 237 100 l 1,17,-1
384 69 m 0,21,22
 489 69 489 69 539.5 139.5 c 128,-1,23
 590 210 590 210 590 358 c 0,24,25
 590 453 590 453 568 516.5 c 128,-1,26
 546 580 546 580 500.5 612.5 c 128,-1,27
 455 645 455 645 384 645 c 0,28,29
 315 645 315 645 271 614 c 128,-1,30
 227 583 227 583 206 519.5 c 128,-1,31
 185 456 185 456 185 358 c 0,32,33
 185 219 185 219 230.5 144 c 128,-1,34
 276 69 276 69 384 69 c 0,21,22
EndSplineSet
EndChar

StartChar: uni0091
Encoding: 145 145 145
Width: 771
Flags: W
LayerCount: 2
Fore
SplineSet
361 446 m 2,0,1
 361 474 361 474 361.5 506.5 c 128,-1,2
 362 539 362 539 363.5 569.5 c 128,-1,3
 365 600 365 600 366 622 c 1,4,5
 346 613 346 613 329 607 c 128,-1,6
 312 601 312 601 279 588 c 2,7,-1
 172 545 l 1,8,-1
 122 613 l 1,9,-1
 378 714 l 1,10,-1
 471 714 l 1,11,-1
 471 0 l 1,12,-1
 361 0 l 1,13,-1
 361 446 l 2,0,1
168 0 m 1,14,-1
 168 60 l 1,15,-1
 361 70 l 1,16,-1
 471 70 l 1,17,-1
 666 60 l 1,18,-1
 666 0 l 1,19,-1
 168 0 l 1,14,-1
EndSplineSet
EndChar

StartChar: uni0092
Encoding: 146 146 146
Width: 771
Flags: W
LayerCount: 2
Fore
SplineSet
88 0 m 1,0,-1
 88 76 l 1,1,-1
 332 263 l 2,2,3
 396 312 396 312 441 354.5 c 128,-1,4
 486 397 486 397 509.5 438 c 128,-1,5
 533 479 533 479 533 524 c 0,6,7
 533 588 533 588 488.5 616.5 c 128,-1,8
 444 645 444 645 374 645 c 0,9,10
 314 645 314 645 260.5 626 c 128,-1,11
 207 607 207 607 161 578 c 1,12,-1
 97 640 l 1,13,14
 131 664 131 664 173.5 683 c 128,-1,15
 216 702 216 702 267.5 713 c 128,-1,16
 319 724 319 724 378 724 c 0,17,18
 460 724 460 724 521 701 c 128,-1,19
 582 678 582 678 615.5 634.5 c 128,-1,20
 649 591 649 591 649 527 c 0,21,22
 649 473 649 473 624 424.5 c 128,-1,23
 599 376 599 376 552 329.5 c 128,-1,24
 505 283 505 283 440 233 c 2,25,-1
 243 84 l 1,26,-1
 243 80 l 1,27,-1
 698 80 l 1,28,-1
 698 0 l 1,29,-1
 88 0 l 1,0,-1
EndSplineSet
EndChar

StartChar: uni0093
Encoding: 147 147 147
Width: 771
Flags: W
LayerCount: 2
Fore
SplineSet
335 -10 m 0,0,1
 280 -10 280 -10 216 -1.5 c 128,-1,2
 152 7 152 7 95 29 c 1,3,-1
 95 114 l 1,4,5
 152 92 152 92 217.5 80.5 c 128,-1,6
 283 69 283 69 343 69 c 0,7,8
 455 69 455 69 506.5 106 c 128,-1,9
 558 143 558 143 558 203 c 0,10,11
 558 249 558 249 530 276.5 c 128,-1,12
 502 304 502 304 451 316.5 c 128,-1,13
 400 329 400 329 325 329 c 2,14,-1
 230 329 l 1,15,-1
 230 409 l 1,16,-1
 325 409 l 2,17,18
 392 409 392 409 437 425.5 c 128,-1,19
 482 442 482 442 505.5 471.5 c 128,-1,20
 529 501 529 501 529 539 c 0,21,22
 529 589 529 589 488.5 617 c 128,-1,23
 448 645 448 645 370 645 c 0,24,25
 304 645 304 645 249.5 627.5 c 128,-1,26
 195 610 195 610 157 590 c 1,27,-1
 99 651 l 1,28,29
 148 681 148 681 218.5 702.5 c 128,-1,30
 289 724 289 724 378 724 c 0,31,32
 466 724 466 724 526 701 c 128,-1,33
 586 678 586 678 616 638.5 c 128,-1,34
 646 599 646 599 646 547 c 0,35,36
 646 499 646 499 622.5 463.5 c 128,-1,37
 599 428 599 428 556 406 c 128,-1,38
 513 384 513 384 455 376 c 1,39,-1
 455 373 l 1,40,41
 527 366 527 366 575.5 344 c 128,-1,42
 624 322 624 322 649.5 285.5 c 128,-1,43
 675 249 675 249 675 198 c 0,44,45
 675 138 675 138 639 91 c 128,-1,46
 603 44 603 44 528 17 c 128,-1,47
 453 -10 453 -10 335 -10 c 0,0,1
EndSplineSet
EndChar

StartChar: uni0094
Encoding: 148 148 148
Width: 771
Flags: W
LayerCount: 2
Fore
SplineSet
462 0 m 1,0,-1
 462 160 l 1,1,-1
 64 160 l 1,2,-1
 64 234 l 1,3,-1
 442 718 l 1,4,-1
 573 718 l 1,5,-1
 573 237 l 1,6,-1
 706 237 l 1,7,-1
 706 160 l 1,8,-1
 573 160 l 1,9,-1
 573 0 l 1,10,-1
 462 0 l 1,0,-1
176 237 m 1,11,-1
 462 237 l 1,12,-1
 462 415 l 2,13,14
 462 442 462 442 463 472 c 128,-1,15
 464 502 464 502 465 531 c 128,-1,16
 466 560 466 560 467.5 584.5 c 128,-1,17
 469 609 469 609 470 626 c 1,18,-1
 465 626 l 1,19,20
 456 607 456 607 438.5 581 c 128,-1,21
 421 555 421 555 408 538 c 2,22,-1
 176 237 l 1,11,-1
EndSplineSet
EndChar

StartChar: uni0095
Encoding: 149 149 149
Width: 771
Flags: W
LayerCount: 2
Fore
SplineSet
330 -10 m 0,0,1
 270 -10 270 -10 208 0 c 128,-1,2
 146 10 146 10 103 29 c 1,3,-1
 103 114 l 1,4,5
 146 92 146 92 202.5 80.5 c 128,-1,6
 259 69 259 69 320 69 c 0,7,8
 428 69 428 69 488.5 104.5 c 128,-1,9
 549 140 549 140 549 214 c 0,10,11
 549 264 549 264 522 297.5 c 128,-1,12
 495 331 495 331 445.5 348 c 128,-1,13
 396 365 396 365 329 365 c 0,14,15
 293 365 293 365 252 360.5 c 128,-1,16
 211 356 211 356 179 350 c 1,17,-1
 122 378 l 1,18,-1
 157 714 l 1,19,-1
 614 714 l 1,20,-1
 614 634 l 1,21,-1
 256 634 l 1,22,-1
 231 428 l 1,23,24
 258 433 258 433 297.5 435.5 c 128,-1,25
 337 438 337 438 366 438 c 0,26,27
 450 438 450 438 518 414 c 128,-1,28
 586 390 586 390 626.5 341.5 c 128,-1,29
 667 293 667 293 667 220 c 0,30,31
 667 150 667 150 627.5 98.5 c 128,-1,32
 588 47 588 47 513 18.5 c 128,-1,33
 438 -10 438 -10 330 -10 c 0,0,1
EndSplineSet
EndChar

StartChar: uni0096
Encoding: 150 150 150
Width: 771
Flags: W
LayerCount: 2
Fore
SplineSet
396 -10 m 0,0,1
 322 -10 322 -10 263 9.5 c 128,-1,2
 204 29 204 29 163 68.5 c 128,-1,3
 122 108 122 108 99.5 168 c 128,-1,4
 77 228 77 228 77 308 c 0,5,6
 77 385 77 385 94.5 459 c 128,-1,7
 112 533 112 533 158 593 c 128,-1,8
 204 653 204 653 287.5 688.5 c 128,-1,9
 371 724 371 724 503 724 c 0,10,11
 529 724 529 724 563 722 c 128,-1,12
 597 720 597 720 618 715 c 1,13,-1
 618 636 l 1,14,15
 596 642 596 642 566.5 645 c 128,-1,16
 537 648 537 648 507 648 c 0,17,18
 415 648 415 648 354.5 625.5 c 128,-1,19
 294 603 294 603 259.5 564 c 128,-1,20
 225 525 225 525 209.5 473.5 c 128,-1,21
 194 422 194 422 191 364 c 1,22,-1
 199 364 l 1,23,24
 216 389 216 389 245.5 409 c 128,-1,25
 275 429 275 429 317.5 440.5 c 128,-1,26
 360 452 360 452 414 452 c 0,27,28
 542 452 542 452 618 394 c 128,-1,29
 694 336 694 336 694 230 c 0,30,31
 694 156 694 156 657 102 c 128,-1,32
 620 48 620 48 553.5 19 c 128,-1,33
 487 -10 487 -10 396 -10 c 0,0,1
394 65 m 0,34,35
 478 65 478 65 530.5 103.5 c 128,-1,36
 583 142 583 142 583 230 c 0,37,38
 583 304 583 304 536 343 c 128,-1,39
 489 382 489 382 398 382 c 0,40,41
 336 382 336 382 289.5 362 c 128,-1,42
 243 342 243 342 217 311 c 128,-1,43
 191 280 191 280 191 247 c 0,44,45
 191 221 191 221 199.5 195 c 128,-1,46
 208 169 208 169 224 145.5 c 128,-1,47
 240 122 240 122 264.5 104 c 128,-1,48
 289 86 289 86 321.5 75.5 c 128,-1,49
 354 65 354 65 394 65 c 0,34,35
EndSplineSet
EndChar

StartChar: uni0097
Encoding: 151 151 151
Width: 771
Flags: W
LayerCount: 2
Fore
SplineSet
223 0 m 1,0,-1
 577 634 l 1,1,-1
 77 634 l 1,2,-1
 77 714 l 1,3,-1
 694 714 l 1,4,-1
 694 643 l 1,5,-1
 345 0 l 1,6,-1
 223 0 l 1,0,-1
EndSplineSet
EndChar

StartChar: uni0098
Encoding: 152 152 152
Width: 771
Flags: W
LayerCount: 2
Fore
SplineSet
379 -10 m 0,0,1
 290 -10 290 -10 224.5 13 c 128,-1,2
 159 36 159 36 123 78.5 c 128,-1,3
 87 121 87 121 87 179 c 0,4,5
 87 230 87 230 113 266.5 c 128,-1,6
 139 303 139 303 181 329.5 c 128,-1,7
 223 356 223 356 275 374 c 1,8,9
 234 393 234 393 197.5 418.5 c 128,-1,10
 161 444 161 444 139 477.5 c 128,-1,11
 117 511 117 511 117 554 c 0,12,13
 117 610 117 610 154 648 c 128,-1,14
 191 686 191 686 253 705 c 128,-1,15
 315 724 315 724 387 724 c 256,16,17
 459 724 459 724 519 705 c 128,-1,18
 579 686 579 686 616 648 c 128,-1,19
 653 610 653 610 653 554 c 0,20,21
 653 488 653 488 603.5 446.5 c 128,-1,22
 554 405 554 405 479 378 c 1,23,24
 536 356 536 356 582 328.5 c 128,-1,25
 628 301 628 301 655 265 c 128,-1,26
 682 229 682 229 682 180 c 0,27,28
 682 125 682 125 645 82 c 128,-1,29
 608 39 608 39 540.5 14.5 c 128,-1,30
 473 -10 473 -10 379 -10 c 0,0,1
383 63 m 0,31,32
 474 63 474 63 522 97.5 c 128,-1,33
 570 132 570 132 570 185 c 0,34,35
 570 221 570 221 547.5 246 c 128,-1,36
 525 271 525 271 481 293 c 128,-1,37
 437 315 437 315 369 340 c 1,38,39
 317 322 317 322 279 299.5 c 128,-1,40
 241 277 241 277 220.5 247.5 c 128,-1,41
 200 218 200 218 200 180 c 0,42,43
 200 129 200 129 244 96 c 128,-1,44
 288 63 288 63 383 63 c 0,31,32
387 414 m 1,45,46
 430 429 430 429 465 447 c 128,-1,47
 500 465 500 465 520.5 490 c 128,-1,48
 541 515 541 515 541 549 c 0,49,50
 541 598 541 598 498.5 623.5 c 128,-1,51
 456 649 456 649 384 649 c 0,52,53
 313 649 313 649 271 624 c 128,-1,54
 229 599 229 599 229 549 c 0,55,56
 229 512 229 512 252 487 c 128,-1,57
 275 462 275 462 311 445 c 128,-1,58
 347 428 347 428 387 414 c 1,45,46
EndSplineSet
EndChar

StartChar: uni0099
Encoding: 153 153 153
Width: 771
Flags: W
LayerCount: 2
Fore
SplineSet
279 -10 m 0,0,1
 249 -10 249 -10 218 -7.5 c 128,-1,2
 187 -5 187 -5 166 -1 c 1,3,-1
 166 78 l 1,4,5
 187 72 187 72 215 69 c 128,-1,6
 243 66 243 66 273 66 c 0,7,8
 361 66 361 66 418.5 88.5 c 128,-1,9
 476 111 476 111 510.5 150.5 c 128,-1,10
 545 190 545 190 561 241 c 128,-1,11
 577 292 577 292 579 350 c 1,12,-1
 572 350 l 1,13,14
 555 325 555 325 524.5 305 c 128,-1,15
 494 285 494 285 452.5 273.5 c 128,-1,16
 411 262 411 262 357 262 c 0,17,18
 228 262 228 262 152.5 320.5 c 128,-1,19
 77 379 77 379 77 488 c 0,20,21
 77 561 77 561 113.5 613.5 c 128,-1,22
 150 666 150 666 217.5 695 c 128,-1,23
 285 724 285 724 378 724 c 0,24,25
 448 724 448 724 506.5 705 c 128,-1,26
 565 686 565 686 607 645.5 c 128,-1,27
 649 605 649 605 671.5 542 c 128,-1,28
 694 479 694 479 694 391 c 0,29,30
 694 337 694 337 683.5 280.5 c 128,-1,31
 673 224 673 224 646.5 172 c 128,-1,32
 620 120 620 120 573.5 79 c 128,-1,33
 527 38 527 38 454 14 c 128,-1,34
 381 -10 381 -10 279 -10 c 0,0,1
369 332 m 0,35,36
 429 332 429 332 476.5 350.5 c 128,-1,37
 524 369 524 369 551.5 402 c 128,-1,38
 579 435 579 435 579 477 c 0,39,40
 579 503 579 503 567 532.5 c 128,-1,41
 555 562 555 562 530.5 588.5 c 128,-1,42
 506 615 506 615 467.5 632 c 128,-1,43
 429 649 429 649 376 649 c 0,44,45
 290 649 290 649 238.5 609 c 128,-1,46
 187 569 187 569 187 487 c 0,47,48
 187 406 187 406 235.5 369 c 128,-1,49
 284 332 284 332 369 332 c 0,35,36
EndSplineSet
EndChar

StartChar: uni009A
Encoding: 154 154 154
Width: 771
Flags: W
LayerCount: 2
Fore
SplineSet
453 554 m 0,0,1
 524 554 524 554 580.5 542 c 128,-1,2
 637 530 637 530 681 513 c 1,3,-1
 641 443 l 1,4,5
 602 457 602 457 555.5 469 c 128,-1,6
 509 481 509 481 456 481 c 0,7,8
 383 481 383 481 344.5 451.5 c 128,-1,9
 306 422 306 422 306 356 c 2,10,-1
 306 314 l 1,11,-1
 568 314 l 1,12,-1
 568 248 l 1,13,-1
 306 248 l 1,14,-1
 306 202 l 2,15,16
 306 162 306 162 293.5 142.5 c 128,-1,17
 281 123 281 123 261 107 c 128,-1,18
 241 91 241 91 218 80 c 1,19,-1
 712 80 l 1,20,-1
 712 0 l 1,21,-1
 65 0 l 1,22,-1
 65 74 l 1,23,24
 103 81 103 81 131 97.5 c 128,-1,25
 159 114 159 114 176 135.5 c 128,-1,26
 193 157 193 157 193 201 c 2,27,-1
 193 248 l 1,28,-1
 69 248 l 1,29,-1
 69 314 l 1,30,-1
 193 314 l 1,31,-1
 193 365 l 2,32,33
 193 425 193 425 225 467 c 128,-1,34
 257 509 257 509 316 531.5 c 128,-1,35
 375 554 375 554 453 554 c 0,0,1
EndSplineSet
EndChar

StartChar: uni009B
Encoding: 155 155 155
Width: 771
Flags: W
LayerCount: 2
Fore
SplineSet
349 -15 m 0,0,1
 306 -15 306 -15 260.5 -7 c 128,-1,2
 215 1 215 1 179 14 c 1,3,-1
 179 99 l 1,4,5
 208 89 208 89 251.5 78.5 c 128,-1,6
 295 68 295 68 340 68 c 0,7,8
 404 68 404 68 442.5 103.5 c 128,-1,9
 481 139 481 139 481 224 c 2,10,-1
 481 572 l 1,11,-1
 597 572 l 1,12,-1
 597 212 l 2,13,14
 597 140 597 140 568.5 89 c 128,-1,15
 540 38 540 38 485.5 11.5 c 128,-1,16
 431 -15 431 -15 349 -15 c 0,0,1
EndSplineSet
EndChar

StartChar: uni009C
Encoding: 156 156 156
Width: 771
Flags: W
LayerCount: 2
Fore
SplineSet
701 -109 m 1,0,1
 675 -109 675 -109 650.5 -102 c 128,-1,2
 626 -95 626 -95 608 -78 c 1,3,-1
 608 127 l 1,4,5
 572 102 572 102 524.5 86.5 c 128,-1,6
 477 71 477 71 413 71 c 0,7,8
 359 71 359 71 296 94 c 128,-1,9
 233 117 233 117 179 154 c 128,-1,10
 125 191 125 191 89 237 c 128,-1,11
 53 283 53 283 53 329 c 0,12,13
 53 377 53 377 75.5 414 c 128,-1,14
 98 451 98 451 136.5 476.5 c 128,-1,15
 175 502 175 502 227 515 c 128,-1,16
 279 528 279 528 338 528 c 0,17,18
 382 528 382 528 420 520 c 0,19,20
 483 507 483 507 492 498 c 0,21,22
 537 458 537 458 555 468 c 0,23,24
 559 470 559 470 608 554 c 1,25,-1
 605 553 l 1,26,-1
 703 553 l 1,27,-1
 701 -109 l 1,0,1
339 128 m 0,28,29
 388 128 388 128 434.5 140.5 c 128,-1,30
 481 153 481 153 519 176 c 1,31,-1
 220 416 l 1,32,33
 185 392 185 392 166 357.5 c 128,-1,34
 147 323 147 323 147 278 c 0,35,36
 147 242 147 242 161.5 214 c 128,-1,37
 176 186 176 186 202 167 c 128,-1,38
 228 148 228 148 263 138 c 128,-1,39
 298 128 298 128 339 128 c 0,28,29
608 407 m 1,40,41
 563 434 563 434 515 449.5 c 128,-1,42
 467 465 467 465 404 465 c 0,43,44
 311 465 311 465 246 432 c 1,45,-1
 542 192 l 1,46,47
 563 207 563 207 579.5 225 c 128,-1,48
 596 243 596 243 608 263 c 1,49,-1
 608 407 l 1,40,41
EndSplineSet
EndChar

StartChar: uni009D
Encoding: 157 157 157
Width: 771
Flags: W
LayerCount: 2
Fore
SplineSet
253 -10 m 0,0,1
 167 -10 167 -10 118.5 60 c 128,-1,2
 70 130 70 130 70 263 c 0,3,4
 70 310 70 310 76.5 354.5 c 128,-1,5
 83 399 83 399 96 444.5 c 128,-1,6
 109 490 109 490 130 537 c 1,7,-1
 239 537 l 1,8,9
 216 488 216 488 203 442.5 c 128,-1,10
 190 397 190 397 185 353.5 c 128,-1,11
 180 310 180 310 180 266 c 0,12,13
 180 161 180 161 201.5 114.5 c 128,-1,14
 223 68 223 68 264 68 c 0,15,16
 302 68 302 68 318.5 103.5 c 128,-1,17
 335 139 335 139 335 215 c 2,18,-1
 335 348 l 1,19,-1
 435 348 l 1,20,-1
 435 215 l 2,21,22
 435 140 435 140 452 104 c 128,-1,23
 469 68 469 68 505 68 c 0,24,25
 547 68 547 68 569.5 116 c 128,-1,26
 592 164 592 164 592 262 c 0,27,28
 592 308 592 308 586.5 355 c 128,-1,29
 581 402 581 402 568 448 c 128,-1,30
 555 494 555 494 533 537 c 1,31,-1
 641 537 l 1,32,33
 671 468 671 468 685.5 400.5 c 128,-1,34
 700 333 700 333 700 264 c 0,35,36
 700 197 700 197 687 146 c 128,-1,37
 674 95 674 95 650 60 c 128,-1,38
 626 25 626 25 591.5 7.5 c 128,-1,39
 557 -10 557 -10 515 -10 c 0,40,41
 466 -10 466 -10 433.5 14 c 128,-1,42
 401 38 401 38 387 81 c 1,43,-1
 384 81 l 1,44,45
 371 38 371 38 338.5 14 c 128,-1,46
 306 -10 306 -10 253 -10 c 0,0,1
EndSplineSet
EndChar

StartChar: uni009E
Encoding: 158 158 158
Width: 771
Flags: W
LayerCount: 2
Fore
SplineSet
67 0 m 1,0,-1
 315 295 l 1,1,-1
 87 572 l 1,2,-1
 211 572 l 1,3,-1
 385 354 l 1,4,-1
 560 572 l 1,5,-1
 685 572 l 1,6,-1
 452 292 l 1,7,-1
 703 0 l 1,8,-1
 574 0 l 1,9,-1
 384 231 l 1,10,-1
 193 0 l 1,11,-1
 67 0 l 1,0,-1
EndSplineSet
EndChar

StartChar: uni009F
Encoding: 159 159 159
Width: 771
Flags: W
LayerCount: 2
Fore
SplineSet
172 0 m 1,0,-1
 172 572 l 1,1,-1
 619 572 l 1,2,-1
 619 501 l 1,3,-1
 283 501 l 1,4,-1
 283 309 l 1,5,-1
 600 309 l 1,6,-1
 600 238 l 1,7,-1
 283 238 l 1,8,-1
 283 0 l 1,9,-1
 172 0 l 1,0,-1
EndSplineSet
EndChar

StartChar: cent
Encoding: 162 162 160
Width: 771
Flags: W
LayerCount: 2
Fore
SplineSet
675 473 m 5,0,-1
 675 1 l 5,1,-1
 594 1 l 5,2,-1
 594 473 l 5,3,-1
 521 473 l 5,4,-1
 521 544 l 5,5,-1
 727 544 l 5,6,-1
 727 473 l 5,7,-1
 675 473 l 5,0,-1
298 554 m 4,8,9
 376 554 376 554 417.5 515 c 132,-1,10
 459 476 459 476 459 417 c 4,11,12
 459 374 459 374 436.5 339.5 c 132,-1,13
 414 305 414 305 370 285 c 132,-1,14
 326 265 326 265 260 263 c 5,15,-1
 255 333 l 5,16,17
 323 335 323 335 351.5 357 c 132,-1,18
 380 379 380 379 380 416 c 4,19,20
 380 452 380 452 356.5 468 c 132,-1,21
 333 484 333 484 302 484 c 4,22,23
 265 484 265 484 235 474 c 132,-1,24
 205 464 205 464 171 447 c 5,25,-1
 146 516 l 5,26,27
 172 530 172 530 210.5 542 c 132,-1,28
 249 554 249 554 298 554 c 4,8,9
470 140 m 4,29,30
 470 94 470 94 449 63 c 132,-1,31
 428 32 428 32 392.5 17 c 132,-1,32
 357 2 357 2 312 2 c 4,33,34
 255 2 255 2 206.5 30 c 132,-1,35
 158 58 158 58 114.5 119 c 132,-1,36
 71 180 71 180 29 278 c 5,37,-1
 100 304 l 5,38,39
 129 233 129 233 160.5 181.5 c 132,-1,40
 192 130 192 130 228 102.5 c 132,-1,41
 264 75 264 75 305 75 c 4,42,43
 343 75 343 75 367 92.5 c 132,-1,44
 391 110 391 110 391 149 c 4,45,46
 391 197 391 197 358 232 c 132,-1,47
 325 267 325 267 278 296 c 5,48,-1
 337 299 l 5,49,-1
 380 308 l 5,50,51
 394 296 394 296 411 279 c 132,-1,52
 428 262 428 262 438 245 c 5,53,-1
 443 226 l 5,54,55
 456 207 456 207 463 186 c 132,-1,56
 470 165 470 165 470 140 c 4,29,30
486 272 m 4,57,58
 534 272 534 272 569 279.5 c 132,-1,59
 604 287 604 287 651 304 c 5,60,-1
 651 232 l 5,61,62
 608 213 608 213 573.5 207 c 132,-1,63
 539 201 539 201 498 201 c 4,64,65
 483 201 483 201 463 203.5 c 132,-1,66
 443 206 443 206 425.5 209.5 c 132,-1,67
 408 213 408 213 400 216 c 5,68,-1
 353 272 l 5,69,-1
 359 287 l 5,70,71
 388 280 388 280 420 276 c 132,-1,72
 452 272 452 272 486 272 c 4,57,58
EndSplineSet
EndChar

